G04 Layer_Physical_Order=2*
G04 Layer_Color=16711680*
%FSLAX42Y42*%
%MOMM*%
G71*
G01*
G75*
%ADD19C,0.38*%
%ADD20P,2.16X8X292.5*%
%ADD21C,1.91*%
%ADD22R,1.91X1.91*%
%ADD23C,2.03*%
%ADD24P,1.79X8X292.5*%
%ADD25C,3.05*%
%ADD26R,1.91X1.91*%
%ADD27P,4.55X8X22.5*%
%ADD28C,4.00*%
%ADD29C,1.02*%
%ADD30C,0.64*%
%ADD31C,0.25*%
D19*
X14053Y2891D02*
X14055Y2889D01*
X14053Y2891D02*
Y3376D01*
X10558Y12391D02*
X11904D01*
X14899Y11934D02*
X14975Y12010D01*
X14617Y11934D02*
X14899D01*
X13743Y12807D02*
X14617Y11934D01*
X9008Y9975D02*
Y12020D01*
X14421Y7153D02*
X15115D01*
X8884Y9973D02*
Y11888D01*
X7827Y11784D02*
X7914Y11697D01*
Y11217D02*
Y11697D01*
X7670Y10973D02*
X7914Y11217D01*
Y11870D02*
Y12315D01*
X7827Y11784D02*
X7914Y11870D01*
Y12315D02*
X8274Y12675D01*
X9605Y11532D02*
X9701D01*
X9770Y11463D01*
Y6488D02*
Y11463D01*
X5539Y5888D02*
X6367Y5060D01*
X5389Y5787D02*
Y7423D01*
Y5787D02*
X5559Y5617D01*
X9923Y6488D02*
Y11527D01*
X9788Y11662D02*
X9923Y11527D01*
X9610Y11789D02*
X9831D01*
X5239Y7024D02*
Y7423D01*
X5539Y5888D02*
Y7423D01*
X13220Y9277D02*
X13618Y9675D01*
X11033Y9277D02*
X13220D01*
X8970Y7572D02*
Y9388D01*
X15115Y9086D02*
Y9109D01*
X14421Y9112D02*
X15089D01*
X9123Y9388D02*
Y9475D01*
X9074Y9523D02*
X9123Y9475D01*
X8544Y9523D02*
X9074D01*
X8498Y9477D02*
X8544Y9523D01*
X8498Y9388D02*
Y9477D01*
X8818Y7649D02*
Y9388D01*
X14421Y5121D02*
X15115D01*
X7672Y11784D02*
X7827D01*
X7227Y10973D02*
X7670D01*
X7025Y11175D02*
X7227Y10973D01*
X10673Y11122D02*
Y11211D01*
X5533Y3870D02*
X6181Y4519D01*
X12958Y4555D02*
X13643Y3870D01*
X7982Y7425D02*
X8823D01*
X8970Y7572D01*
X8274Y12675D02*
X8803D01*
X6821Y11812D02*
X7817Y12807D01*
X10510Y11212D02*
Y12287D01*
X13462Y11113D02*
X13970D01*
X14476D01*
X9674Y11662D02*
X9788D01*
X9397Y12020D02*
X9598Y12221D01*
X9397Y9709D02*
Y12020D01*
X9478Y9757D02*
Y11931D01*
X9694Y12147D01*
Y12177D01*
X9697Y12180D01*
Y12262D01*
X9694Y12264D02*
X9697Y12262D01*
X9694Y12264D02*
Y12391D01*
X9831Y11789D02*
X10007Y11614D01*
Y6602D02*
Y11614D01*
Y6602D02*
X12054Y4555D01*
X12958D01*
X6367Y5060D02*
X6684D01*
X5940Y7425D02*
X7779D01*
X8884Y9973D02*
X9400Y9457D01*
X9008Y9975D02*
X9488Y9495D01*
X9582Y3892D02*
X9604Y3870D01*
X9582Y3892D02*
Y9523D01*
X9397Y9709D02*
X9582Y9523D01*
X9671Y5797D02*
X11598Y3870D01*
X9671Y5797D02*
Y9564D01*
X9478Y9757D02*
X9671Y9564D01*
X10225Y12571D02*
X10510Y12287D01*
X8340Y12495D02*
X10192D01*
X8290Y12571D02*
X10225D01*
X8089Y12243D02*
X8340Y12495D01*
X8003Y12284D02*
X8290Y12571D01*
X8089Y11113D02*
Y12243D01*
X8003Y11164D02*
Y12284D01*
X6517Y11175D02*
X6892Y10801D01*
X7776D01*
X8089Y11113D01*
X6771Y11173D02*
X7054Y10890D01*
X7728D01*
X8003Y11164D01*
X7779Y7425D02*
X7909Y7555D01*
X8724D01*
X8818Y7649D01*
X6181Y4519D02*
X7332D01*
X9400Y6587D01*
Y9457D01*
X7554Y3870D02*
X9488Y5805D01*
Y9495D01*
X10192Y12495D02*
X10367Y12320D01*
X10609Y11057D02*
X10673Y11122D01*
X10367Y11144D02*
Y12320D01*
Y11144D02*
X10454Y11057D01*
X10609D01*
X8803Y12675D02*
X11228D01*
X11551Y11512D02*
X12618D01*
X11551Y11690D02*
X12498D01*
X11576Y12096D02*
X12211D01*
X12237Y12122D01*
Y12256D01*
X12510Y12021D02*
Y12256D01*
X12382Y11893D02*
X12510Y12021D01*
X11551Y11893D02*
X12382D01*
X12785Y11977D02*
Y12259D01*
X12498Y11690D02*
X12785Y11977D01*
X13060Y11954D02*
Y12252D01*
X12618Y11512D02*
X13060Y11954D01*
X5325Y11812D02*
X6821D01*
X5126Y12010D02*
X5325Y11812D01*
X14476Y11113D02*
X15252D01*
X7817Y12807D02*
X13743D01*
X15668Y10557D02*
Y10951D01*
X15506Y11113D02*
X15668Y10951D01*
X15252Y11113D02*
X15506D01*
X15089Y9112D02*
X15115Y9086D01*
X12117Y7230D02*
X12455D01*
Y7737D01*
X12117D01*
X12455Y7484D02*
X12286D01*
X12455Y7229D02*
Y7568D01*
X12624Y7737D01*
X12794Y7568D01*
Y7229D01*
Y7483D01*
X12455D01*
D20*
X15668Y10201D02*
D03*
Y9846D02*
D03*
Y10557D02*
D03*
X5678Y12431D02*
D03*
Y12076D02*
D03*
Y12787D02*
D03*
D21*
X7025Y11175D02*
D03*
X6517D02*
D03*
X10164Y11532D02*
D03*
Y11786D02*
D03*
Y12040D02*
D03*
Y12294D02*
D03*
X7672Y11530D02*
D03*
Y11784D02*
D03*
Y12038D02*
D03*
Y12292D02*
D03*
D22*
X6263Y11173D02*
D03*
D23*
X6771D02*
D03*
D24*
X14410Y11898D02*
D03*
X13710D02*
D03*
X14160D02*
D03*
X13960D02*
D03*
D25*
X13403Y12169D02*
D03*
X14717D02*
D03*
D26*
X10164Y11278D02*
D03*
X7672Y11276D02*
D03*
D27*
X4999Y12812D02*
D03*
X4992Y2991D02*
D03*
X15009Y2991D02*
D03*
Y12812D02*
D03*
D28*
X4439Y12813D02*
D03*
X4432Y2990D02*
D03*
X15569Y2990D02*
D03*
Y12813D02*
D03*
D29*
X14053Y3376D02*
D03*
X10558Y12391D02*
D03*
X11904D02*
D03*
X14975Y12010D02*
D03*
X9008Y12020D02*
D03*
X15115Y7153D02*
D03*
X8884Y11888D02*
D03*
X9598Y12221D02*
D03*
X9694Y12391D02*
D03*
X9605Y11532D02*
D03*
X14055Y2889D02*
D03*
X9610Y11789D02*
D03*
X5389Y7423D02*
D03*
X5239Y7024D02*
D03*
Y7423D02*
D03*
X5539D02*
D03*
X9770Y6488D02*
D03*
X9923D02*
D03*
X11033Y9277D02*
D03*
X13618Y9675D02*
D03*
X8970Y9388D02*
D03*
X15115Y9109D02*
D03*
X14421Y9112D02*
D03*
X8498Y9388D02*
D03*
X8818D02*
D03*
X9123D02*
D03*
X14421Y7153D02*
D03*
Y5121D02*
D03*
X15115D02*
D03*
X5126Y12010D02*
D03*
X8803Y12675D02*
D03*
X10510Y11212D02*
D03*
X13643Y3870D02*
D03*
X11598D02*
D03*
X9604D02*
D03*
X7554D02*
D03*
X5533D02*
D03*
X6684Y5060D02*
D03*
X10673Y11211D02*
D03*
X7982Y7425D02*
D03*
X5940D02*
D03*
X5559Y5617D02*
D03*
X11228Y12675D02*
D03*
X13462Y11113D02*
D03*
X13970D02*
D03*
X14476D02*
D03*
X9674Y11662D02*
D03*
X11551Y11512D02*
D03*
Y11690D02*
D03*
Y11893D02*
D03*
X11576Y12096D02*
D03*
X12237Y12256D02*
D03*
X12510D02*
D03*
X12785Y12259D02*
D03*
X13060Y12252D02*
D03*
X15252Y11113D02*
D03*
D30*
X5678Y12431D02*
X7202D01*
X7695Y12924D01*
X14370D01*
X15158Y12137D01*
Y11753D02*
Y12137D01*
X13326Y10625D02*
X13751Y10201D01*
X15668D01*
X13839Y9846D02*
X15668D01*
X13187Y10498D02*
X13839Y9846D01*
X13187Y10498D02*
Y11654D01*
X13431Y11898D01*
X13710D01*
X13326Y10625D02*
Y11387D01*
X13522Y11583D01*
X14988D01*
X15158Y11753D01*
D31*
X11893Y7664D02*
X12028D01*
X11893Y7799D01*
Y7833D01*
X11927Y7867D01*
X11995D01*
X12028Y7833D01*
X13547Y7047D02*
X13463D01*
X13505D01*
Y6793D01*
X13547D01*
X13463D01*
X13336D02*
Y7047D01*
X13166Y6793D01*
Y7047D01*
X13082D02*
Y6793D01*
X12955D01*
X12913Y6835D01*
Y7004D01*
X12955Y7047D01*
X13082D01*
X12828D02*
Y6835D01*
X12786Y6793D01*
X12701D01*
X12659Y6835D01*
Y7047D01*
X12405Y7004D02*
X12447Y7047D01*
X12532D01*
X12574Y7004D01*
Y6962D01*
X12532Y6920D01*
X12447D01*
X12405Y6877D01*
Y6835D01*
X12447Y6793D01*
X12532D01*
X12574Y6835D01*
X12320Y7047D02*
X12151D01*
X12235D01*
Y6793D01*
X12066D02*
Y7047D01*
X11939D01*
X11897Y7004D01*
Y6920D01*
X11939Y6877D01*
X12066D01*
X11982D02*
X11897Y6793D01*
X11812Y7047D02*
X11728D01*
X11770D01*
Y6793D01*
X11812D01*
X11728D01*
X11431Y7047D02*
X11601D01*
Y6793D01*
X11431D01*
X11601Y6920D02*
X11516D01*
X11177Y7004D02*
X11220Y7047D01*
X11304D01*
X11347Y7004D01*
Y6962D01*
X11304Y6920D01*
X11220D01*
X11177Y6877D01*
Y6835D01*
X11220Y6793D01*
X11304D01*
X11347Y6835D01*
M02*
