G04 Layer_Color=32896*
%FSLAX42Y42*%
%MOMM*%
G71*
G01*
G75*
%ADD31C,0.25*%
D31*
X7129Y11062D02*
Y11288D01*
X7092Y11326D02*
X7129Y11288D01*
X6965Y11326D02*
X7092D01*
X6927Y11288D02*
X6965Y11326D01*
X6880Y11288D02*
X6927D01*
X6710Y11328D02*
X6837D01*
X6837D02*
X6875Y11291D01*
X7092Y11024D02*
X7129Y11062D01*
X6965Y11024D02*
X7092D01*
X6927Y11063D02*
X6965Y11024D01*
X6880Y11063D02*
X6927D01*
X6837Y11022D02*
X6875Y11059D01*
X6710Y11022D02*
X6837D01*
X6164Y11060D02*
Y11290D01*
X6202Y11328D01*
X6329D01*
X6329D02*
X6367Y11291D01*
X6419Y11288D02*
X6457Y11326D01*
X6589D01*
X6372Y11288D02*
X6419D01*
X6589Y11326D02*
X6625Y11290D01*
X6672D02*
X6710Y11328D01*
X6625Y11290D02*
X6672D01*
X6625Y11060D02*
X6672D01*
X6710Y11022D01*
X6589Y11024D02*
X6625Y11060D01*
X6372Y11063D02*
X6419D01*
X6457Y11024D02*
X6589D01*
X6419Y11063D02*
X6457Y11024D01*
X6329Y11022D02*
X6367Y11059D01*
X6202Y11022D02*
X6329D01*
X6164Y11060D02*
X6202Y11022D01*
X7730Y7855D02*
Y8555D01*
X8320D01*
Y9905D01*
X7730D02*
X8320D01*
X7730D02*
Y11605D01*
X5150D02*
X7730D01*
X5150Y7855D02*
Y11605D01*
Y7855D02*
X7730D01*
X13405Y11754D02*
Y11885D01*
Y11754D02*
X14715D01*
Y11885D01*
X14060Y13191D02*
X14715D01*
X13405D02*
X14060D01*
X13405Y11885D02*
Y13191D01*
X14715Y11885D02*
Y13191D01*
M02*
