G04 Layer_Physical_Order=1*
G04 Layer_Color=255*
%FSLAX42Y42*%
%MOMM*%
G71*
G01*
G75*
%ADD10R,1.05X1.20*%
%ADD11R,1.20X1.05*%
%ADD12R,0.80X1.60*%
%ADD13R,1.00X0.90*%
%ADD14O,2.67X0.56*%
%ADD15O,0.56X2.67*%
%ADD16R,2.40X2.40*%
%ADD17R,1.50X1.50*%
%ADD18R,1.66X0.79*%
%ADD19C,0.38*%
%ADD20P,2.16X8X292.5*%
%ADD21C,1.91*%
%ADD22R,1.91X1.91*%
%ADD23C,2.03*%
%ADD24P,1.79X8X292.5*%
%ADD25C,3.05*%
%ADD26R,1.91X1.91*%
%ADD27P,4.55X8X22.5*%
%ADD28C,4.00*%
%ADD29C,1.02*%
G36*
X11829Y12746D02*
X11842Y12737D01*
X11858Y12734D01*
X14379D01*
X14757Y12356D01*
X14753Y12346D01*
X14748Y12340D01*
X14717Y12343D01*
X14683Y12340D01*
X14650Y12330D01*
X14620Y12314D01*
X14594Y12292D01*
X14573Y12266D01*
X14557Y12236D01*
X14547Y12203D01*
X14543Y12169D01*
X14547Y12136D01*
X14557Y12103D01*
X14573Y12073D01*
X14594Y12047D01*
X14620Y12025D01*
X14650Y12009D01*
X14683Y11999D01*
X14717Y11996D01*
X14742Y11998D01*
X14750Y11981D01*
X14481Y11712D01*
X14305D01*
X14298Y11730D01*
X14364Y11796D01*
X14461D01*
X14513Y11847D01*
Y11950D01*
X14461Y12001D01*
X14358D01*
X14307Y11950D01*
Y11852D01*
X14187Y11732D01*
X13525D01*
X13509Y11729D01*
X13496Y11721D01*
X13433Y11658D01*
X13425Y11645D01*
X13422Y11629D01*
Y11364D01*
X13401D01*
Y11304D01*
X13363D01*
X13348Y11301D01*
X13335Y11292D01*
X13323Y11281D01*
X13232D01*
Y11321D01*
X13086D01*
Y11281D01*
X12994D01*
X12975Y11299D01*
Y11789D01*
X12972Y11804D01*
X12964Y11817D01*
X12910Y11870D01*
X12897Y11879D01*
X12882Y11882D01*
X12676D01*
Y11915D01*
X12516D01*
Y11775D01*
X12501Y11767D01*
X12486Y11775D01*
Y11915D01*
X12326D01*
Y11882D01*
X12087D01*
X12072Y11879D01*
X12058Y11870D01*
X11975Y11787D01*
X11966Y11774D01*
X11947Y11770D01*
X11938Y11779D01*
Y11787D01*
X11949Y11803D01*
X11953Y11822D01*
X11949Y11841D01*
X11943Y11849D01*
X11940Y11862D01*
X11943Y11875D01*
X11949Y11883D01*
X11953Y11902D01*
X11949Y11921D01*
X11943Y11929D01*
X11938Y11947D01*
X11949Y11963D01*
X11953Y11982D01*
X11949Y12001D01*
X11947Y12004D01*
X11956Y12022D01*
X13080D01*
X13217Y11885D01*
X13230Y11876D01*
X13245Y11873D01*
X13464D01*
X13479Y11876D01*
X13492Y11885D01*
X13643Y12036D01*
X13899D01*
X13916Y12019D01*
X13910Y12001D01*
X13908D01*
X13857Y11950D01*
Y11847D01*
X13908Y11796D01*
X14011D01*
X14060Y11844D01*
X14108Y11796D01*
X14211D01*
X14263Y11847D01*
Y11950D01*
X14211Y12001D01*
X14200D01*
Y12101D01*
X14197Y12116D01*
X14188Y12129D01*
X13995Y12323D01*
X13982Y12331D01*
X13966Y12334D01*
X13666D01*
X13548Y12452D01*
X13535Y12461D01*
X13519Y12464D01*
X13278D01*
X13263Y12461D01*
X13250Y12452D01*
X13141Y12343D01*
X13132Y12330D01*
X13129Y12315D01*
Y12308D01*
X13111Y12302D01*
X13110Y12303D01*
X13096Y12314D01*
X13078Y12321D01*
X13060Y12324D01*
X13041Y12321D01*
X13028Y12316D01*
X13011Y12324D01*
Y12338D01*
X12865D01*
Y12299D01*
X12849Y12295D01*
X12847Y12295D01*
X12836Y12309D01*
X12821Y12321D01*
X12804Y12328D01*
X12785Y12330D01*
X12767Y12328D01*
X12754Y12323D01*
X12736Y12331D01*
Y12338D01*
X12591D01*
Y12294D01*
X12573Y12290D01*
X12572Y12292D01*
X12561Y12307D01*
X12546Y12318D01*
X12529Y12325D01*
X12510Y12328D01*
X12491Y12325D01*
X12479Y12320D01*
X12461Y12328D01*
Y12335D01*
X12315D01*
Y12299D01*
X12303Y12294D01*
X12298Y12294D01*
X12287Y12307D01*
X12273Y12318D01*
X12255Y12325D01*
X12237Y12328D01*
X12218Y12325D01*
X12205Y12320D01*
X12188Y12328D01*
Y12335D01*
X12042D01*
Y12182D01*
X11956D01*
X11947Y12200D01*
X11949Y12203D01*
X11953Y12222D01*
X11949Y12241D01*
X11938Y12257D01*
X11922Y12267D01*
X11904Y12271D01*
X11838D01*
Y12330D01*
X11846Y12335D01*
X11856Y12338D01*
X11868Y12329D01*
X11885Y12321D01*
X11904Y12319D01*
X11923Y12321D01*
X11940Y12329D01*
X11955Y12340D01*
X11966Y12355D01*
X11973Y12372D01*
X11976Y12391D01*
X11973Y12409D01*
X11966Y12427D01*
X11955Y12441D01*
X11940Y12453D01*
X11923Y12460D01*
X11904Y12462D01*
X11885Y12460D01*
X11868Y12453D01*
X11856Y12444D01*
X11846Y12446D01*
X11838Y12451D01*
Y12613D01*
X11835Y12629D01*
X11827Y12642D01*
X11600Y12869D01*
X11587Y12877D01*
X11571Y12880D01*
X9120D01*
X9105Y12877D01*
X9092Y12869D01*
X8891Y12668D01*
X8878Y12674D01*
X8874Y12676D01*
X8872Y12694D01*
X8865Y12711D01*
X8853Y12726D01*
X8839Y12737D01*
X8821Y12745D01*
X8803Y12747D01*
X8784Y12745D01*
X8767Y12737D01*
X8752Y12726D01*
X8741Y12711D01*
X8733Y12694D01*
X8731Y12675D01*
X8733Y12657D01*
X8741Y12639D01*
X8752Y12625D01*
X8763Y12616D01*
Y12556D01*
X8745Y12547D01*
X8743Y12547D01*
X8735Y12549D01*
Y12392D01*
X8710D01*
Y12549D01*
X8702Y12547D01*
X8701Y12547D01*
X8683Y12556D01*
Y12627D01*
X8680Y12642D01*
X8671Y12655D01*
X8463Y12864D01*
X8450Y12872D01*
X8434Y12875D01*
X6829D01*
X6822Y12893D01*
X6866Y12937D01*
X11638D01*
X11829Y12746D01*
D02*
G37*
G36*
X11178Y12625D02*
X11188Y12616D01*
Y12556D01*
X11170Y12546D01*
X11169Y12547D01*
X11161Y12549D01*
Y12392D01*
X11135D01*
Y12549D01*
X11127Y12547D01*
X11118Y12541D01*
X11103Y12532D01*
X11087Y12543D01*
X11068Y12546D01*
X11049Y12543D01*
X11033Y12532D01*
X11015Y12537D01*
X11007Y12543D01*
X10988Y12546D01*
X10969Y12543D01*
X10961Y12537D01*
X10948Y12533D01*
X10935Y12537D01*
X10927Y12543D01*
X10908Y12546D01*
X10889Y12543D01*
X10881Y12537D01*
X10868Y12533D01*
X10855Y12537D01*
X10847Y12543D01*
X10828Y12546D01*
X10809Y12543D01*
X10793Y12532D01*
X10783Y12516D01*
X10779Y12497D01*
Y12286D01*
X10779Y12286D01*
X10764Y12271D01*
X10764Y12271D01*
X10553D01*
X10534Y12267D01*
X10518Y12257D01*
X10507Y12241D01*
X10504Y12222D01*
X10507Y12203D01*
X10512Y12195D01*
X10509Y12183D01*
X10493Y12185D01*
X10493Y12185D01*
X10485Y12198D01*
X10360Y12323D01*
X10347Y12331D01*
X10332Y12334D01*
X10273D01*
X10265Y12353D01*
X10247Y12377D01*
X10222Y12395D01*
X10194Y12407D01*
X10164Y12411D01*
X10134Y12407D01*
X10106Y12395D01*
X10082Y12377D01*
X10063Y12353D01*
X10051Y12324D01*
X10048Y12294D01*
X10051Y12264D01*
X10063Y12236D01*
X10082Y12212D01*
X10106Y12193D01*
X10134Y12182D01*
X10164Y12178D01*
X10194Y12182D01*
X10222Y12193D01*
X10247Y12212D01*
X10265Y12236D01*
X10273Y12254D01*
X10315D01*
X10416Y12153D01*
Y12007D01*
X10398Y12001D01*
X10396Y12005D01*
X10332Y12069D01*
X10319Y12077D01*
X10304Y12080D01*
X10273D01*
X10265Y12099D01*
X10247Y12123D01*
X10222Y12141D01*
X10194Y12153D01*
X10164Y12157D01*
X10134Y12153D01*
X10106Y12141D01*
X10082Y12123D01*
X10063Y12099D01*
X10051Y12070D01*
X10048Y12040D01*
X10051Y12010D01*
X10063Y11982D01*
X10082Y11958D01*
X10106Y11939D01*
X10134Y11928D01*
X10164Y11924D01*
X10194Y11928D01*
X10222Y11939D01*
X10247Y11958D01*
X10265Y11982D01*
X10271Y11996D01*
X10289Y11998D01*
X10327Y11960D01*
Y11873D01*
X10330Y11857D01*
X10339Y11844D01*
X10390Y11793D01*
X10393Y11791D01*
X10394Y11770D01*
X10339Y11716D01*
X10330Y11703D01*
X10327Y11687D01*
Y11343D01*
X10302Y11318D01*
X10280D01*
Y11394D01*
X10173D01*
X10172Y11412D01*
X10196Y11415D01*
X10225Y11427D01*
X10250Y11446D01*
X10269Y11471D01*
X10282Y11501D01*
X10284Y11520D01*
X10164D01*
X10044D01*
X10047Y11501D01*
X10059Y11471D01*
X10078Y11446D01*
X10103Y11427D01*
X10133Y11415D01*
X10156Y11412D01*
X10155Y11394D01*
X10049D01*
Y11163D01*
X10280D01*
Y11238D01*
X10319D01*
X10334Y11241D01*
X10347Y11250D01*
X10396Y11298D01*
X10404Y11311D01*
X10407Y11326D01*
Y11671D01*
X10439Y11702D01*
X10500D01*
X10509Y11684D01*
X10507Y11681D01*
X10504Y11662D01*
X10507Y11643D01*
X10518Y11627D01*
X10513Y11609D01*
X10507Y11601D01*
X10504Y11582D01*
X10507Y11563D01*
X10518Y11547D01*
Y11537D01*
X10507Y11521D01*
X10504Y11502D01*
X10507Y11483D01*
X10511Y11477D01*
X10511Y11472D01*
X10505Y11456D01*
X10496Y11450D01*
X10481Y11435D01*
X10472Y11422D01*
X10469Y11407D01*
Y11271D01*
X10459Y11263D01*
X10447Y11248D01*
X10440Y11231D01*
X10438Y11212D01*
X10440Y11194D01*
X10447Y11176D01*
X10459Y11161D01*
X10474Y11150D01*
X10491Y11143D01*
X10510Y11140D01*
X10528Y11143D01*
X10545Y11150D01*
X10560Y11161D01*
X10572Y11176D01*
X10579Y11194D01*
X10581Y11212D01*
X10579Y11231D01*
X10572Y11248D01*
X10560Y11263D01*
X10550Y11271D01*
Y11370D01*
X10553Y11373D01*
X10764D01*
X10764Y11373D01*
X10779Y11358D01*
X10779Y11357D01*
Y11292D01*
X10714D01*
X10698Y11289D01*
X10687Y11281D01*
X10673Y11283D01*
X10655Y11280D01*
X10637Y11273D01*
X10622Y11262D01*
X10611Y11247D01*
X10604Y11230D01*
X10601Y11211D01*
X10604Y11193D01*
X10611Y11175D01*
X10622Y11160D01*
X10637Y11149D01*
X10655Y11142D01*
X10673Y11139D01*
X10692Y11142D01*
X10709Y11149D01*
X10724Y11160D01*
X10735Y11175D01*
X10742Y11193D01*
X10745Y11211D01*
X10745Y11212D01*
X10779D01*
Y11146D01*
X10783Y11128D01*
X10793Y11112D01*
X10809Y11101D01*
X10828Y11097D01*
X10847Y11101D01*
X10863Y11112D01*
X10881Y11107D01*
X10889Y11101D01*
X10908Y11097D01*
X10927Y11101D01*
X10930Y11103D01*
X10948Y11094D01*
Y10962D01*
X10951Y10947D01*
X10960Y10934D01*
X11238Y10655D01*
X11251Y10647D01*
X11266Y10644D01*
X14199D01*
X14214Y10647D01*
X14228Y10655D01*
X14460Y10888D01*
X14556D01*
Y11034D01*
X14517D01*
X14513Y11050D01*
X14513Y11051D01*
X14527Y11062D01*
X14539Y11077D01*
X14546Y11095D01*
X14548Y11113D01*
X14546Y11132D01*
X14539Y11147D01*
X14537Y11164D01*
X14537Y11164D01*
X14537Y11164D01*
Y11364D01*
X14416D01*
Y11164D01*
X14416Y11164D01*
X14414Y11147D01*
X14407Y11132D01*
X14405Y11113D01*
X14407Y11095D01*
X14414Y11077D01*
X14426Y11062D01*
X14440Y11051D01*
X14440Y11050D01*
X14436Y11034D01*
X14396D01*
Y10937D01*
X14183Y10724D01*
X13813D01*
X13806Y10740D01*
X13954Y10888D01*
X14050D01*
Y11034D01*
X14010D01*
X14006Y11050D01*
X14006Y11051D01*
X14021Y11062D01*
X14032Y11077D01*
X14039Y11095D01*
X14042Y11113D01*
X14039Y11132D01*
X14033Y11147D01*
X14030Y11164D01*
X14030Y11164D01*
X14030Y11164D01*
Y11364D01*
X13910D01*
Y11164D01*
X13910Y11164D01*
X13907Y11147D01*
X13901Y11132D01*
X13898Y11113D01*
X13901Y11095D01*
X13908Y11077D01*
X13919Y11062D01*
X13934Y11051D01*
X13934Y11050D01*
X13930Y11034D01*
X13890D01*
Y10937D01*
X13740Y10788D01*
X13369D01*
X13362Y10804D01*
X13446Y10888D01*
X13542D01*
Y11034D01*
X13502D01*
X13498Y11050D01*
X13498Y11051D01*
X13512Y11062D01*
X13524Y11077D01*
X13531Y11095D01*
X13533Y11113D01*
X13531Y11132D01*
X13525Y11147D01*
X13522Y11164D01*
X13522Y11164D01*
X13522Y11164D01*
Y11364D01*
X13502D01*
Y11384D01*
X13617D01*
Y11488D01*
X13716Y11586D01*
X13988D01*
X14005Y11584D01*
Y11384D01*
X14125D01*
Y11444D01*
X14200D01*
X14216Y11447D01*
X14229Y11456D01*
X14344Y11571D01*
X14511D01*
Y11384D01*
X14632D01*
Y11488D01*
X14954Y11809D01*
X15018D01*
Y11784D01*
X15158D01*
Y11809D01*
X15263D01*
X15306Y11767D01*
Y11184D01*
X15288Y11175D01*
X15288Y11175D01*
X15270Y11182D01*
X15252Y11185D01*
X15233Y11182D01*
X15216Y11175D01*
X15201Y11164D01*
X15190Y11149D01*
X15182Y11132D01*
X15180Y11113D01*
X15182Y11095D01*
X15190Y11077D01*
X15201Y11062D01*
X15212Y11054D01*
Y9858D01*
X15149D01*
Y9657D01*
X15208D01*
X15212Y9654D01*
Y7826D01*
X15149D01*
Y7625D01*
X15211D01*
X15212Y7624D01*
Y5768D01*
X15149D01*
Y5568D01*
X15209D01*
Y3762D01*
X15149D01*
Y3561D01*
X15270D01*
Y3665D01*
X15278Y3673D01*
X15286Y3686D01*
X15288Y3693D01*
X15306Y3692D01*
Y3426D01*
X15235Y3355D01*
X15175D01*
Y3542D01*
X15054D01*
Y3482D01*
X14512D01*
X14473Y3521D01*
Y3809D01*
X14470Y3825D01*
X14461Y3838D01*
X14429Y3870D01*
X14450Y3891D01*
X14458Y3904D01*
X14461Y3920D01*
Y4093D01*
X14458Y4108D01*
X14450Y4121D01*
X14394Y4177D01*
X14381Y4186D01*
X14365Y4189D01*
X14083D01*
X14068Y4186D01*
X14055Y4177D01*
X13969Y4091D01*
X13946D01*
Y4110D01*
X13740D01*
Y4091D01*
X13717D01*
X13631Y4177D01*
X13618Y4186D01*
X13602Y4189D01*
X12448D01*
X12432Y4186D01*
X12419Y4177D01*
X12392Y4149D01*
X12364Y4177D01*
X12351Y4186D01*
X12336Y4189D01*
X12054D01*
X12038Y4186D01*
X12025Y4177D01*
X11939Y4091D01*
X11917D01*
Y4110D01*
X11710D01*
Y4091D01*
X11688D01*
X11601Y4177D01*
X11588Y4186D01*
X11573Y4189D01*
X10438D01*
X10423Y4186D01*
X10410Y4177D01*
X10383Y4149D01*
X10355Y4177D01*
X10342Y4186D01*
X10327Y4189D01*
X10045D01*
X10029Y4186D01*
X10016Y4177D01*
X9930Y4091D01*
X9908D01*
Y4110D01*
X9701D01*
Y4091D01*
X9678D01*
X9592Y4177D01*
X9579Y4186D01*
X9564Y4189D01*
X8399D01*
X8383Y4186D01*
X8370Y4177D01*
X8343Y4149D01*
X8315Y4177D01*
X8302Y4186D01*
X8287Y4189D01*
X8005D01*
X7990Y4186D01*
X7977Y4177D01*
X7891Y4091D01*
X7868D01*
Y4110D01*
X7661D01*
Y4091D01*
X7639D01*
X7553Y4177D01*
X7540Y4186D01*
X7524Y4189D01*
X6374D01*
X6359Y4186D01*
X6346Y4177D01*
X6319Y4149D01*
X6291Y4177D01*
X6278Y4186D01*
X6263Y4189D01*
X5981D01*
X5965Y4186D01*
X5952Y4177D01*
X5866Y4091D01*
X5844D01*
Y4110D01*
X5637D01*
Y3991D01*
X5844D01*
Y4010D01*
X5883D01*
X5898Y4013D01*
X5911Y4022D01*
X5997Y4108D01*
X6048D01*
X6048Y4091D01*
X6032Y4088D01*
X6019Y4079D01*
X5965Y4024D01*
X5956Y4011D01*
X5953Y3996D01*
Y3615D01*
X5956Y3600D01*
X5965Y3587D01*
X6015Y3537D01*
X6028Y3528D01*
X6043Y3525D01*
X6092D01*
Y3485D01*
X6238D01*
Y3646D01*
X6092D01*
Y3605D01*
X6060D01*
X6034Y3632D01*
Y3979D01*
X6050Y3996D01*
X6062Y3991D01*
Y3991D01*
X6269D01*
X6278Y3977D01*
Y3944D01*
X6269Y3930D01*
X6062D01*
Y3811D01*
X6269D01*
Y3830D01*
X6269D01*
X6285Y3833D01*
X6298Y3842D01*
X6347Y3891D01*
X6356Y3904D01*
X6359Y3920D01*
Y4076D01*
X6391Y4108D01*
X7508D01*
X7594Y4022D01*
X7607Y4013D01*
X7622Y4010D01*
X7661D01*
Y3991D01*
X7868D01*
Y4010D01*
X7907D01*
X7922Y4013D01*
X7936Y4022D01*
X8022Y4108D01*
X8072D01*
X8072Y4091D01*
X8057Y4088D01*
X8044Y4079D01*
X7989Y4024D01*
X7981Y4011D01*
X7978Y3996D01*
Y3615D01*
X7981Y3600D01*
X7989Y3587D01*
X8039Y3537D01*
X8052Y3528D01*
X8068Y3525D01*
X8117D01*
Y3485D01*
X8262D01*
Y3646D01*
X8117D01*
Y3605D01*
X8084D01*
X8058Y3632D01*
Y3979D01*
X8074Y3996D01*
X8086Y3991D01*
Y3991D01*
X8293D01*
X8303Y3977D01*
Y3944D01*
X8293Y3930D01*
X8086D01*
Y3811D01*
X8293D01*
Y3830D01*
X8294D01*
X8309Y3833D01*
X8322Y3842D01*
X8371Y3891D01*
X8380Y3904D01*
X8383Y3920D01*
Y4076D01*
X8415Y4108D01*
X9547D01*
X9633Y4022D01*
X9646Y4013D01*
X9662Y4010D01*
X9701D01*
Y3991D01*
X9908D01*
Y4010D01*
X9947D01*
X9962Y4013D01*
X9975Y4022D01*
X10061Y4108D01*
X10112D01*
X10112Y4091D01*
X10096Y4088D01*
X10083Y4079D01*
X10029Y4024D01*
X10020Y4011D01*
X10017Y3996D01*
Y3615D01*
X10020Y3600D01*
X10029Y3587D01*
X10079Y3537D01*
X10092Y3528D01*
X10107Y3525D01*
X10156D01*
Y3485D01*
X10302D01*
Y3646D01*
X10156D01*
Y3605D01*
X10124D01*
X10098Y3632D01*
Y3979D01*
X10114Y3996D01*
X10126Y3991D01*
Y3991D01*
X10333D01*
X10342Y3977D01*
Y3944D01*
X10333Y3930D01*
X10126D01*
Y3811D01*
X10333D01*
Y3830D01*
X10333D01*
X10349Y3833D01*
X10362Y3842D01*
X10411Y3891D01*
X10420Y3904D01*
X10423Y3920D01*
Y4076D01*
X10455Y4108D01*
X11556D01*
X11643Y4022D01*
X11656Y4013D01*
X11671Y4010D01*
X11710D01*
Y3991D01*
X11917D01*
Y4010D01*
X11956D01*
X11971Y4013D01*
X11984Y4022D01*
X12070Y4108D01*
X12121D01*
X12121Y4091D01*
X12106Y4088D01*
X12093Y4079D01*
X12038Y4024D01*
X12029Y4011D01*
X12026Y3996D01*
Y3615D01*
X12029Y3600D01*
X12038Y3587D01*
X12088Y3537D01*
X12101Y3528D01*
X12116Y3525D01*
X12166D01*
Y3485D01*
X12311D01*
Y3646D01*
X12166D01*
Y3605D01*
X12133D01*
X12107Y3632D01*
Y3979D01*
X12123Y3996D01*
X12135Y3991D01*
Y3991D01*
X12342D01*
X12352Y3977D01*
Y3944D01*
X12342Y3930D01*
X12135D01*
Y3811D01*
X12342D01*
Y3830D01*
X12342D01*
X12358Y3833D01*
X12371Y3842D01*
X12420Y3891D01*
X12429Y3904D01*
X12432Y3920D01*
Y4076D01*
X12464Y4108D01*
X13586D01*
X13672Y4022D01*
X13685Y4013D01*
X13700Y4010D01*
X13740D01*
Y3991D01*
X13946D01*
Y4010D01*
X13985D01*
X14001Y4013D01*
X14014Y4022D01*
X14100Y4108D01*
X14150D01*
X14150Y4091D01*
X14135Y4088D01*
X14122Y4079D01*
X14068Y4024D01*
X14059Y4011D01*
X14056Y3996D01*
Y3615D01*
X14059Y3600D01*
X14068Y3587D01*
X14117Y3537D01*
X14130Y3528D01*
X14146Y3525D01*
X14195D01*
Y3485D01*
X14341D01*
Y3646D01*
X14195D01*
Y3605D01*
X14162D01*
X14136Y3632D01*
Y3979D01*
X14152Y3996D01*
X14165Y3991D01*
Y3991D01*
X14371D01*
X14381Y3977D01*
Y3944D01*
X14371Y3930D01*
X14165D01*
Y3811D01*
X14371D01*
X14371Y3811D01*
Y3811D01*
X14385Y3801D01*
X14393Y3793D01*
Y3504D01*
X14396Y3489D01*
X14405Y3476D01*
X14467Y3413D01*
X14480Y3404D01*
X14496Y3401D01*
X15054D01*
Y3355D01*
X14510D01*
X14495Y3352D01*
X14482Y3344D01*
X14387Y3249D01*
X13327D01*
Y3274D01*
X13186D01*
Y3249D01*
X13179D01*
X13164Y3246D01*
X13151Y3237D01*
X13110Y3196D01*
X13092Y3204D01*
Y3353D01*
X13125D01*
Y3514D01*
X12979D01*
Y3353D01*
X13012D01*
Y3202D01*
X12898Y3089D01*
X12827D01*
Y3114D01*
X12796D01*
Y3143D01*
X12827D01*
Y3274D01*
X12686D01*
Y3143D01*
X12716D01*
Y3114D01*
X12686D01*
Y2983D01*
X12716D01*
Y2954D01*
X12686D01*
Y2830D01*
X10092D01*
Y2870D01*
X9946D01*
Y2829D01*
X7304D01*
Y2941D01*
X7274D01*
Y2971D01*
X7304D01*
Y2982D01*
X7322Y2989D01*
X7362Y2949D01*
X7375Y2940D01*
X7390Y2937D01*
X7484D01*
Y2905D01*
X7645D01*
Y3050D01*
X7484D01*
Y3018D01*
X7407D01*
X7360Y3064D01*
X7347Y3073D01*
X7332Y3076D01*
X7304D01*
Y3101D01*
X7274D01*
Y3131D01*
X7304D01*
Y3261D01*
X7164D01*
Y3131D01*
X7194D01*
Y3101D01*
X7164D01*
Y2971D01*
X7194D01*
Y2941D01*
X7164D01*
Y2829D01*
X6913D01*
X6837Y2904D01*
X6824Y2913D01*
X6809Y2916D01*
X6804D01*
Y2941D01*
X6664D01*
Y2916D01*
X6659D01*
X6644Y2913D01*
X6631Y2904D01*
X6556Y2830D01*
X5661D01*
X5568Y2922D01*
X5577Y2939D01*
X5584Y2937D01*
X6552D01*
X6568Y2940D01*
X6581Y2949D01*
X6627Y2996D01*
X6664D01*
Y2971D01*
X6804D01*
Y2996D01*
X6921D01*
X6936Y2999D01*
X6949Y3008D01*
X7007Y3066D01*
X7016Y3079D01*
X7019Y3094D01*
Y3353D01*
X7054D01*
Y3514D01*
X6909D01*
Y3353D01*
X6939D01*
Y3111D01*
X6904Y3076D01*
X6804D01*
Y3101D01*
X6664D01*
Y3076D01*
X6611D01*
X6595Y3073D01*
X6582Y3064D01*
X6536Y3018D01*
X5601D01*
X4700Y3919D01*
X4700Y3920D01*
X4720Y3925D01*
X5531Y3114D01*
X5544Y3106D01*
X5559Y3102D01*
X6504D01*
X6519Y3106D01*
X6532Y3114D01*
X6574Y3156D01*
X6664D01*
Y3131D01*
X6804D01*
Y3261D01*
X6664D01*
Y3236D01*
X6557D01*
X6542Y3233D01*
X6529Y3224D01*
X6487Y3183D01*
X5576D01*
X4781Y3977D01*
Y11810D01*
X4869D01*
Y11784D01*
X5010D01*
Y11810D01*
X5711D01*
X5719Y11792D01*
X4952Y11025D01*
X4943Y11012D01*
X4940Y10996D01*
Y5904D01*
X4943Y5888D01*
X4952Y5875D01*
X5675Y5151D01*
X5688Y5143D01*
X5704Y5140D01*
X6641D01*
X6648Y5124D01*
X6648Y5122D01*
X6634Y5111D01*
X6622Y5096D01*
X6615Y5079D01*
X6613Y5060D01*
X6615Y5042D01*
X6622Y5024D01*
X6634Y5010D01*
X6648Y4998D01*
X6666Y4991D01*
X6684Y4989D01*
X6703Y4991D01*
X6720Y4998D01*
X6735Y5010D01*
X6743Y5020D01*
X9452D01*
X9467Y5023D01*
X9480Y5032D01*
X9593Y5145D01*
X9602Y5158D01*
X9605Y5173D01*
Y5534D01*
X9648Y5577D01*
X9731D01*
Y5537D01*
X9877D01*
Y5698D01*
X9837D01*
Y5838D01*
X9908D01*
Y5957D01*
X9701D01*
Y5838D01*
X9757D01*
Y5698D01*
X9731D01*
Y5658D01*
X9632D01*
X9616Y5655D01*
X9603Y5646D01*
X9536Y5579D01*
X9528Y5566D01*
X9525Y5551D01*
Y5190D01*
X9435Y5100D01*
X6743D01*
X6735Y5111D01*
X6721Y5122D01*
X6721Y5124D01*
X6728Y5140D01*
X7434D01*
X7449Y5143D01*
X7462Y5151D01*
X7566Y5255D01*
X7575Y5268D01*
X7578Y5284D01*
Y5531D01*
X7624Y5577D01*
X7692D01*
Y5537D01*
X7837D01*
Y5698D01*
X7805D01*
Y5838D01*
X7868D01*
Y5957D01*
X7661D01*
Y5838D01*
X7725D01*
Y5698D01*
X7692D01*
Y5658D01*
X7607D01*
X7592Y5655D01*
X7579Y5646D01*
X7509Y5576D01*
X7501Y5563D01*
X7498Y5548D01*
Y5300D01*
X7417Y5220D01*
X5720D01*
X5020Y5920D01*
Y6997D01*
X5038Y7005D01*
X5159Y6884D01*
X5172Y6875D01*
X5188Y6872D01*
X11439D01*
X11455Y6875D01*
X11468Y6884D01*
X11603Y7019D01*
X13474D01*
X13489Y7022D01*
X13502Y7031D01*
X13662Y7191D01*
X13671Y7204D01*
X13674Y7219D01*
Y7530D01*
X13717Y7574D01*
X13770D01*
Y7534D01*
X13916D01*
Y7694D01*
X13875D01*
Y7859D01*
X13946D01*
Y7979D01*
X13740D01*
Y7859D01*
X13795D01*
Y7694D01*
X13770D01*
Y7654D01*
X13701D01*
X13685Y7651D01*
X13672Y7642D01*
X13605Y7575D01*
X13597Y7562D01*
X13594Y7547D01*
Y7236D01*
X13457Y7099D01*
X11587D01*
X11586Y7100D01*
X11578Y7116D01*
X11645Y7183D01*
X11654Y7196D01*
X11657Y7212D01*
Y7540D01*
X11690Y7574D01*
X11741D01*
Y7534D01*
X11886D01*
Y7694D01*
X11854D01*
Y7859D01*
X11917D01*
Y7979D01*
X11710D01*
Y7859D01*
X11773D01*
Y7694D01*
X11741D01*
Y7654D01*
X11674D01*
X11659Y7651D01*
X11645Y7642D01*
X11589Y7586D01*
X11580Y7572D01*
X11577Y7557D01*
Y7228D01*
X11412Y7064D01*
X9410D01*
X9408Y7067D01*
X9410Y7089D01*
X9590Y7270D01*
X9599Y7283D01*
X9602Y7298D01*
Y7495D01*
X9680Y7573D01*
X9731D01*
Y7534D01*
X9877D01*
Y7694D01*
X9837D01*
Y7859D01*
X9908D01*
Y7979D01*
X9701D01*
Y7859D01*
X9757D01*
Y7694D01*
X9731D01*
Y7653D01*
X9664D01*
X9648Y7650D01*
X9635Y7641D01*
X9534Y7540D01*
X9525Y7527D01*
X9522Y7511D01*
Y7315D01*
X9365Y7158D01*
X5347D01*
X5157Y7348D01*
Y7388D01*
X5175Y7391D01*
X5177Y7387D01*
X5188Y7372D01*
X5203Y7360D01*
X5220Y7353D01*
X5239Y7351D01*
X5258Y7353D01*
X5275Y7360D01*
X5290Y7372D01*
X5301Y7387D01*
X5304Y7394D01*
X5324D01*
X5327Y7387D01*
X5338Y7372D01*
X5353Y7360D01*
X5370Y7353D01*
X5389Y7351D01*
X5407Y7353D01*
X5425Y7360D01*
X5440Y7372D01*
X5451Y7387D01*
X5454Y7394D01*
X5473D01*
X5477Y7387D01*
X5488Y7372D01*
X5503Y7360D01*
X5520Y7353D01*
X5539Y7351D01*
X5557Y7353D01*
X5575Y7360D01*
X5589Y7372D01*
X5601Y7387D01*
X5608Y7404D01*
X5610Y7423D01*
X5608Y7441D01*
X5601Y7458D01*
X5589Y7473D01*
X5579Y7481D01*
Y9874D01*
X5576Y9889D01*
X5567Y9902D01*
X5493Y9977D01*
Y10888D01*
X6998Y12394D01*
X7586D01*
X7592Y12376D01*
X7590Y12374D01*
X7571Y12350D01*
X7560Y12322D01*
X7556Y12292D01*
X7560Y12262D01*
X7571Y12233D01*
X7590Y12209D01*
X7614Y12191D01*
X7642Y12179D01*
X7672Y12175D01*
X7703Y12179D01*
X7721Y12187D01*
X7807Y12100D01*
Y12015D01*
X7811Y11999D01*
X7819Y11986D01*
X7922Y11883D01*
X7916Y11866D01*
X7902Y11865D01*
X7777Y11989D01*
X7785Y12008D01*
X7789Y12038D01*
X7785Y12068D01*
X7773Y12096D01*
X7755Y12120D01*
X7731Y12139D01*
X7703Y12150D01*
X7672Y12154D01*
X7642Y12150D01*
X7614Y12139D01*
X7590Y12120D01*
X7571Y12096D01*
X7560Y12068D01*
X7556Y12038D01*
X7560Y12008D01*
X7571Y11979D01*
X7590Y11955D01*
X7614Y11937D01*
X7642Y11925D01*
X7672Y11921D01*
X7703Y11925D01*
X7721Y11933D01*
X7860Y11793D01*
X7873Y11785D01*
X7888Y11782D01*
X7916D01*
X7923Y11764D01*
X7819Y11660D01*
X7811Y11647D01*
X7807Y11631D01*
Y11564D01*
X7790Y11561D01*
X7778Y11591D01*
X7758Y11616D01*
X7733Y11635D01*
X7704Y11647D01*
X7682Y11650D01*
X7681Y11650D01*
Y11668D01*
X7682Y11668D01*
X7703Y11671D01*
X7731Y11683D01*
X7755Y11701D01*
X7773Y11725D01*
X7785Y11754D01*
X7789Y11784D01*
X7785Y11814D01*
X7773Y11842D01*
X7755Y11866D01*
X7731Y11885D01*
X7703Y11896D01*
X7672Y11900D01*
X7642Y11896D01*
X7614Y11885D01*
X7590Y11866D01*
X7571Y11842D01*
X7560Y11814D01*
X7556Y11784D01*
X7560Y11754D01*
X7571Y11725D01*
X7590Y11701D01*
X7614Y11683D01*
X7642Y11671D01*
X7663Y11668D01*
X7664Y11668D01*
Y11650D01*
X7663Y11650D01*
X7641Y11647D01*
X7612Y11635D01*
X7586Y11616D01*
X7567Y11591D01*
X7555Y11561D01*
X7552Y11542D01*
X7672D01*
Y11517D01*
X7552D01*
X7555Y11498D01*
X7567Y11469D01*
X7586Y11444D01*
X7612Y11424D01*
X7641Y11412D01*
X7664Y11409D01*
X7663Y11391D01*
X7557D01*
Y11160D01*
X7780D01*
X7787Y11142D01*
X7348Y10704D01*
X5645D01*
X5630Y10701D01*
X5617Y10692D01*
X5533Y10608D01*
X5525Y10595D01*
X5521Y10580D01*
Y10056D01*
X5525Y10041D01*
X5533Y10028D01*
X5611Y9951D01*
X5624Y9942D01*
X5637Y9939D01*
Y9919D01*
X5700D01*
Y9754D01*
X5667D01*
Y9594D01*
X5813D01*
Y9754D01*
X5780D01*
Y9919D01*
X5844D01*
Y10039D01*
X5637D01*
X5637Y10039D01*
Y10039D01*
X5625Y10050D01*
X5602Y10073D01*
Y10563D01*
X5662Y10623D01*
X7365D01*
X7380Y10626D01*
X7393Y10635D01*
X7504Y10746D01*
X7522Y10738D01*
Y10067D01*
X7525Y10052D01*
X7533Y10039D01*
X7621Y9951D01*
X7634Y9942D01*
X7649Y9939D01*
X7661D01*
Y9919D01*
X7725D01*
Y9754D01*
X7692D01*
Y9594D01*
X7837D01*
Y9754D01*
X7805D01*
Y9919D01*
X7868D01*
Y10039D01*
X7661D01*
Y10039D01*
X7651Y10035D01*
X7602Y10084D01*
Y10729D01*
X8028Y11156D01*
X8037Y11169D01*
X8040Y11184D01*
Y11450D01*
X8052Y11462D01*
X8074D01*
X8084Y11444D01*
X8082Y11441D01*
X8078Y11422D01*
X8082Y11403D01*
X8092Y11387D01*
X8108Y11376D01*
X8127Y11373D01*
X8193D01*
Y10489D01*
X8196Y10474D01*
X8204Y10461D01*
X8458Y10207D01*
Y9447D01*
X8447Y9439D01*
X8436Y9424D01*
X8429Y9407D01*
X8426Y9388D01*
X8429Y9370D01*
X8436Y9353D01*
X8447Y9338D01*
X8462Y9326D01*
X8479Y9319D01*
X8498Y9317D01*
X8516Y9319D01*
X8534Y9326D01*
X8549Y9338D01*
X8550Y9339D01*
X8569Y9335D01*
X8570Y9327D01*
X8579Y9314D01*
X8725Y9168D01*
X8718Y9152D01*
X8436D01*
X8383Y9204D01*
Y9930D01*
X8380Y9945D01*
X8371Y9958D01*
X8350Y9979D01*
X8371Y10000D01*
X8380Y10013D01*
X8383Y10029D01*
Y10201D01*
X8380Y10217D01*
X8371Y10230D01*
X8315Y10286D01*
X8302Y10294D01*
X8287Y10297D01*
X8005D01*
X7990Y10294D01*
X7977Y10286D01*
X7891Y10199D01*
X7868D01*
Y10219D01*
X7661D01*
Y10099D01*
X7868D01*
Y10119D01*
X7907D01*
X7922Y10122D01*
X7936Y10131D01*
X8022Y10217D01*
X8072D01*
X8072Y10199D01*
X8057Y10196D01*
X8044Y10188D01*
X7989Y10133D01*
X7981Y10120D01*
X7978Y10105D01*
Y9724D01*
X7981Y9708D01*
X7989Y9695D01*
X8039Y9646D01*
X8052Y9637D01*
X8068Y9634D01*
X8117D01*
Y9594D01*
X8262D01*
Y9754D01*
X8117D01*
Y9714D01*
X8084D01*
X8058Y9740D01*
Y10088D01*
X8074Y10104D01*
X8086Y10099D01*
Y10099D01*
X8293D01*
X8303Y10086D01*
Y10053D01*
X8293Y10039D01*
X8086D01*
Y9919D01*
X8293D01*
X8303Y9906D01*
Y9204D01*
X8250Y9152D01*
X6411D01*
X6359Y9204D01*
Y9930D01*
X6356Y9945D01*
X6347Y9958D01*
X6326Y9979D01*
X6347Y10000D01*
X6356Y10013D01*
X6359Y10029D01*
Y10201D01*
X6356Y10217D01*
X6347Y10230D01*
X6291Y10286D01*
X6278Y10294D01*
X6263Y10297D01*
X5981D01*
X5965Y10294D01*
X5952Y10286D01*
X5866Y10199D01*
X5844D01*
Y10219D01*
X5637D01*
Y10099D01*
X5844D01*
Y10119D01*
X5883D01*
X5898Y10122D01*
X5911Y10131D01*
X5997Y10217D01*
X6048D01*
X6048Y10199D01*
X6032Y10196D01*
X6019Y10188D01*
X5965Y10133D01*
X5956Y10120D01*
X5953Y10105D01*
Y9724D01*
X5956Y9708D01*
X5965Y9695D01*
X6015Y9646D01*
X6028Y9637D01*
X6043Y9634D01*
X6092D01*
Y9594D01*
X6238D01*
Y9754D01*
X6092D01*
Y9714D01*
X6060D01*
X6034Y9740D01*
Y10088D01*
X6050Y10104D01*
X6062Y10099D01*
Y10099D01*
X6269D01*
X6278Y10086D01*
Y10053D01*
X6269Y10039D01*
X6062D01*
Y9919D01*
X6269D01*
X6278Y9906D01*
Y9188D01*
X6281Y9172D01*
X6290Y9159D01*
X6366Y9083D01*
X6379Y9075D01*
X6395Y9071D01*
X8267D01*
X8282Y9075D01*
X8295Y9083D01*
X8343Y9131D01*
X8391Y9083D01*
X8404Y9075D01*
X8419Y9071D01*
X12285D01*
X12300Y9075D01*
X12313Y9083D01*
X12392Y9162D01*
X12470Y9083D01*
X12483Y9075D01*
X12498Y9071D01*
X14362D01*
X14370Y9061D01*
X14385Y9049D01*
X14403Y9042D01*
X14421Y9040D01*
X14440Y9042D01*
X14457Y9049D01*
X14472Y9061D01*
X14483Y9076D01*
X14490Y9093D01*
X14493Y9112D01*
X14490Y9130D01*
X14483Y9147D01*
X14472Y9162D01*
X14461Y9170D01*
Y9930D01*
X14458Y9945D01*
X14450Y9958D01*
X14429Y9979D01*
X14450Y10000D01*
X14458Y10013D01*
X14461Y10029D01*
Y10201D01*
X14458Y10217D01*
X14450Y10230D01*
X14394Y10286D01*
X14381Y10294D01*
X14365Y10297D01*
X14083D01*
X14068Y10294D01*
X14055Y10286D01*
X13969Y10199D01*
X13946D01*
Y10219D01*
X13740D01*
Y10099D01*
X13946D01*
Y10119D01*
X13985D01*
X14001Y10122D01*
X14014Y10131D01*
X14100Y10217D01*
X14150D01*
X14150Y10199D01*
X14135Y10196D01*
X14122Y10188D01*
X14068Y10133D01*
X14059Y10120D01*
X14056Y10105D01*
Y9724D01*
X14059Y9708D01*
X14068Y9695D01*
X14117Y9646D01*
X14130Y9637D01*
X14146Y9634D01*
X14195D01*
Y9594D01*
X14341D01*
Y9754D01*
X14195D01*
Y9714D01*
X14162D01*
X14136Y9740D01*
Y10088D01*
X14152Y10104D01*
X14165Y10099D01*
Y10099D01*
X14371D01*
X14381Y10086D01*
Y10053D01*
X14371Y10039D01*
X14165D01*
Y9919D01*
X14371D01*
X14381Y9906D01*
Y9170D01*
X14370Y9162D01*
X14362Y9152D01*
X12515D01*
X12432Y9235D01*
Y9930D01*
X12429Y9945D01*
X12420Y9958D01*
X12399Y9979D01*
X12420Y10000D01*
X12429Y10013D01*
X12432Y10029D01*
Y10201D01*
X12429Y10217D01*
X12420Y10230D01*
X12364Y10286D01*
X12351Y10294D01*
X12336Y10297D01*
X12054D01*
X12038Y10294D01*
X12025Y10286D01*
X11939Y10199D01*
X11917D01*
Y10219D01*
X11710D01*
Y10199D01*
X11688D01*
X11601Y10286D01*
X11588Y10294D01*
X11573Y10297D01*
X10438D01*
X10423Y10294D01*
X10410Y10286D01*
X10383Y10258D01*
X10355Y10286D01*
X10342Y10294D01*
X10327Y10297D01*
X10045D01*
X10029Y10294D01*
X10016Y10286D01*
X9930Y10199D01*
X9908D01*
Y10219D01*
X9701D01*
Y10099D01*
X9908D01*
Y10119D01*
X9947D01*
X9962Y10122D01*
X9975Y10131D01*
X10061Y10217D01*
X10112D01*
X10112Y10199D01*
X10096Y10196D01*
X10083Y10188D01*
X10029Y10133D01*
X10020Y10120D01*
X10017Y10105D01*
Y9724D01*
X10020Y9708D01*
X10029Y9695D01*
X10079Y9646D01*
X10092Y9637D01*
X10107Y9634D01*
X10156D01*
Y9594D01*
X10302D01*
Y9754D01*
X10156D01*
Y9714D01*
X10124D01*
X10098Y9740D01*
Y10088D01*
X10114Y10104D01*
X10126Y10099D01*
Y10099D01*
X10333D01*
X10342Y10086D01*
Y10053D01*
X10333Y10039D01*
X10126D01*
Y9919D01*
X10333D01*
Y9939D01*
X10333D01*
X10349Y9942D01*
X10362Y9951D01*
X10411Y10000D01*
X10420Y10013D01*
X10423Y10029D01*
Y10185D01*
X10455Y10217D01*
X11556D01*
X11643Y10131D01*
X11656Y10122D01*
X11671Y10119D01*
X11710D01*
Y10099D01*
X11917D01*
Y10119D01*
X11956D01*
X11971Y10122D01*
X11984Y10131D01*
X12070Y10217D01*
X12121D01*
X12121Y10199D01*
X12106Y10196D01*
X12093Y10188D01*
X12038Y10133D01*
X12029Y10120D01*
X12026Y10105D01*
Y9724D01*
X12029Y9708D01*
X12038Y9695D01*
X12088Y9646D01*
X12101Y9637D01*
X12116Y9634D01*
X12166D01*
Y9594D01*
X12311D01*
Y9754D01*
X12166D01*
Y9714D01*
X12133D01*
X12107Y9740D01*
Y10088D01*
X12123Y10104D01*
X12135Y10099D01*
Y10099D01*
X12342D01*
X12352Y10086D01*
Y10053D01*
X12342Y10039D01*
X12135D01*
Y9919D01*
X12342D01*
X12352Y9906D01*
Y9235D01*
X12268Y9152D01*
X11488D01*
X11481Y9168D01*
X11592Y9279D01*
X11601Y9292D01*
X11604Y9307D01*
Y9580D01*
X11657Y9634D01*
X11741D01*
Y9594D01*
X11886D01*
Y9754D01*
X11846D01*
Y9919D01*
X11917D01*
Y10039D01*
X11710D01*
Y9919D01*
X11766D01*
Y9754D01*
X11741D01*
Y9714D01*
X11641D01*
X11625Y9711D01*
X11612Y9702D01*
X11535Y9625D01*
X11527Y9612D01*
X11523Y9597D01*
Y9324D01*
X11415Y9215D01*
X11098D01*
X11089Y9233D01*
X11095Y9241D01*
X11102Y9258D01*
X11105Y9277D01*
X11102Y9295D01*
X11095Y9313D01*
X11083Y9327D01*
X11069Y9339D01*
X11051Y9346D01*
X11033Y9348D01*
X11014Y9346D01*
X10997Y9339D01*
X10982Y9327D01*
X10974Y9317D01*
X9175D01*
X9169Y9335D01*
X9173Y9338D01*
X9182Y9348D01*
X9514D01*
X9529Y9351D01*
X9542Y9360D01*
X9593Y9411D01*
X9602Y9424D01*
X9605Y9439D01*
Y9606D01*
X9633Y9634D01*
X9731D01*
Y9594D01*
X9877D01*
Y9754D01*
X9837D01*
Y9919D01*
X9908D01*
Y10039D01*
X9701D01*
Y9919D01*
X9757D01*
Y9754D01*
X9731D01*
Y9714D01*
X9616D01*
X9601Y9711D01*
X9588Y9702D01*
X9536Y9651D01*
X9528Y9638D01*
X9525Y9622D01*
Y9456D01*
X9497Y9429D01*
X9182D01*
X9173Y9439D01*
X9159Y9451D01*
X9141Y9458D01*
X9123Y9460D01*
X9104Y9458D01*
X9087Y9451D01*
X9072Y9439D01*
X9061Y9424D01*
X9056Y9413D01*
X9037D01*
X9032Y9424D01*
X9021Y9439D01*
X9010Y9447D01*
Y10300D01*
X9007Y10316D01*
X8999Y10329D01*
X8763Y10565D01*
Y11087D01*
X8781Y11097D01*
X8782Y11096D01*
X8790Y11095D01*
Y11252D01*
X8815D01*
Y11095D01*
X8823Y11096D01*
X8825Y11097D01*
X8843Y11087D01*
Y11074D01*
X8846Y11058D01*
X8854Y11045D01*
X8901Y10998D01*
X8914Y10990D01*
X8930Y10987D01*
X9002D01*
X9017Y10971D01*
X9011Y10955D01*
X8998D01*
Y10809D01*
X9038D01*
Y10726D01*
X8998D01*
Y10581D01*
X9158D01*
Y10726D01*
X9118D01*
Y10809D01*
X9158D01*
Y10955D01*
X9118D01*
Y10967D01*
X9115Y10983D01*
X9106Y10996D01*
X9047Y11055D01*
X9034Y11064D01*
X9019Y11067D01*
X8946D01*
X8934Y11079D01*
X8935Y11086D01*
X8936Y11088D01*
X8955Y11099D01*
X8963Y11097D01*
X8981Y11101D01*
X8990Y11107D01*
X9008Y11112D01*
X9024Y11101D01*
X9043Y11097D01*
X9061Y11101D01*
X9070Y11107D01*
X9083Y11110D01*
X9095Y11107D01*
X9104Y11101D01*
X9123Y11097D01*
X9141Y11101D01*
X9157Y11112D01*
X9175Y11107D01*
X9184Y11101D01*
X9203Y11097D01*
X9221Y11101D01*
X9237Y11112D01*
X9248Y11128D01*
X9252Y11146D01*
Y11357D01*
X9252Y11358D01*
X9267Y11373D01*
X9267Y11373D01*
X9478D01*
X9497Y11376D01*
X9513Y11387D01*
X9524Y11403D01*
X9527Y11422D01*
X9524Y11441D01*
X9518Y11449D01*
X9514Y11462D01*
X9518Y11475D01*
X9524Y11483D01*
X9525Y11493D01*
X9539Y11495D01*
X9544Y11495D01*
X9555Y11482D01*
X9569Y11470D01*
X9587Y11463D01*
X9605Y11460D01*
X9624Y11463D01*
X9641Y11470D01*
X9656Y11482D01*
X9667Y11496D01*
X9675Y11514D01*
X9677Y11532D01*
X9675Y11551D01*
X9667Y11568D01*
X9663Y11574D01*
X9673Y11590D01*
X9674Y11590D01*
X9692Y11592D01*
X9710Y11600D01*
X9718Y11606D01*
X9735Y11597D01*
Y10717D01*
X9738Y10702D01*
X9747Y10689D01*
X10095Y10341D01*
X10108Y10332D01*
X10123Y10329D01*
X14582D01*
X14663Y10248D01*
Y4486D01*
X14666Y4471D01*
X14675Y4458D01*
X14947Y4186D01*
Y4089D01*
X15092D01*
Y4250D01*
X14996D01*
X14743Y4503D01*
Y6373D01*
X14760Y6380D01*
X14947Y6192D01*
Y6096D01*
X15092D01*
Y6257D01*
X14996D01*
X14809Y6443D01*
Y8362D01*
X14827Y8370D01*
X14947Y8250D01*
Y8153D01*
X15092D01*
Y8314D01*
X14996D01*
X14878Y8432D01*
Y10321D01*
X14896Y10328D01*
X14947Y10277D01*
Y10180D01*
X15092D01*
Y10341D01*
X14996D01*
X14747Y10590D01*
X14734Y10599D01*
X14718Y10602D01*
X10221D01*
X10003Y10820D01*
Y11865D01*
X10021Y11873D01*
X10059Y11835D01*
X10051Y11816D01*
X10048Y11786D01*
X10051Y11756D01*
X10063Y11728D01*
X10082Y11704D01*
X10106Y11685D01*
X10134Y11674D01*
X10156Y11671D01*
Y11653D01*
X10133Y11650D01*
X10103Y11638D01*
X10078Y11618D01*
X10059Y11593D01*
X10047Y11564D01*
X10044Y11545D01*
X10164D01*
X10284D01*
X10282Y11564D01*
X10269Y11593D01*
X10250Y11618D01*
X10225Y11638D01*
X10196Y11650D01*
X10172Y11653D01*
Y11671D01*
X10194Y11674D01*
X10222Y11685D01*
X10247Y11704D01*
X10265Y11728D01*
X10277Y11756D01*
X10281Y11786D01*
X10277Y11816D01*
X10265Y11845D01*
X10247Y11869D01*
X10222Y11887D01*
X10194Y11899D01*
X10164Y11903D01*
X10134Y11899D01*
X10116Y11891D01*
X9988Y12019D01*
Y12486D01*
X10138Y12635D01*
X11170D01*
X11178Y12625D01*
D02*
G37*
G36*
X15779Y13117D02*
X15801Y13108D01*
X15821Y13093D01*
X15836Y13073D01*
X15845Y13051D01*
X15848Y13027D01*
X15848Y13027D01*
Y12817D01*
Y3054D01*
Y2777D01*
X15848Y2776D01*
X15845Y2753D01*
X15836Y2730D01*
X15821Y2711D01*
X15801Y2696D01*
X15779Y2687D01*
X15755Y2683D01*
X15755Y2684D01*
X15612D01*
X15612Y2684D01*
X15612Y2684D01*
X15174Y2683D01*
X15173Y2686D01*
X15171Y2701D01*
X15181Y2708D01*
X15313Y2840D01*
X15322Y2853D01*
X15325Y2868D01*
Y2879D01*
X15343Y2884D01*
X15360Y2851D01*
X15391Y2813D01*
X15429Y2782D01*
X15473Y2759D01*
X15520Y2745D01*
X15569Y2740D01*
X15618Y2745D01*
X15665Y2759D01*
X15708Y2782D01*
X15746Y2813D01*
X15777Y2851D01*
X15800Y2895D01*
X15815Y2942D01*
X15819Y2990D01*
X15815Y3039D01*
X15800Y3086D01*
X15777Y3130D01*
X15746Y3168D01*
X15708Y3199D01*
X15665Y3222D01*
X15618Y3236D01*
X15569Y3241D01*
X15520Y3236D01*
X15473Y3222D01*
X15429Y3199D01*
X15391Y3168D01*
X15360Y3130D01*
X15343Y3097D01*
X15325Y3102D01*
Y3136D01*
X15501Y3312D01*
X15510Y3325D01*
X15513Y3341D01*
Y10901D01*
X15575D01*
Y10986D01*
Y11072D01*
X15527D01*
X15523Y11078D01*
X15530Y11094D01*
X15532Y11096D01*
X15661D01*
Y11256D01*
X15628D01*
Y11784D01*
X15658D01*
Y11915D01*
X15628D01*
Y11944D01*
X15658D01*
Y12075D01*
X15628D01*
Y12104D01*
X15658D01*
Y12235D01*
X15518D01*
Y12121D01*
X15505Y12116D01*
X15500Y12115D01*
X15418Y12198D01*
X15405Y12207D01*
X15389Y12210D01*
X15158D01*
Y12235D01*
X15018D01*
Y12234D01*
X15000Y12227D01*
X14424Y12803D01*
X14411Y12811D01*
X14396Y12814D01*
X11874D01*
X11683Y13006D01*
X11670Y13015D01*
X11655Y13018D01*
X6849D01*
X6834Y13015D01*
X6821Y13006D01*
X5817Y12002D01*
X5804Y12014D01*
Y12063D01*
X5691D01*
Y11950D01*
X5740D01*
X5752Y11937D01*
X5705Y11890D01*
X5010D01*
Y11915D01*
X4869D01*
Y11890D01*
X4763D01*
X4748Y11887D01*
X4735Y11878D01*
X4713Y11856D01*
X4708Y11848D01*
X4690Y11854D01*
Y11910D01*
X4749Y11970D01*
X4869D01*
Y11944D01*
X5010D01*
Y11970D01*
X5068D01*
X5076Y11959D01*
X5090Y11948D01*
X5108Y11940D01*
X5126Y11938D01*
X5145Y11940D01*
X5162Y11948D01*
X5177Y11959D01*
X5188Y11974D01*
X5196Y11991D01*
X5198Y12010D01*
X5196Y12028D01*
X5188Y12046D01*
X5177Y12060D01*
X5162Y12072D01*
X5145Y12079D01*
X5126Y12082D01*
X5108Y12079D01*
X5090Y12072D01*
X5076Y12060D01*
X5068Y12050D01*
X5010D01*
Y12075D01*
X4869D01*
Y12050D01*
X4733D01*
X4717Y12047D01*
X4704Y12038D01*
X4621Y11955D01*
X4613Y11942D01*
X4595Y11945D01*
Y12013D01*
X4711Y12130D01*
X4869D01*
Y12104D01*
X5010D01*
Y12235D01*
X4869D01*
Y12210D01*
X4695D01*
X4679Y12207D01*
X4666Y12198D01*
X4528Y12060D01*
X4523Y12060D01*
X4510Y12065D01*
Y12075D01*
X4480D01*
Y12104D01*
X4510D01*
Y12235D01*
X4369D01*
Y12104D01*
X4399D01*
Y12075D01*
X4369D01*
Y11944D01*
X4399D01*
Y11915D01*
X4369D01*
Y11784D01*
X4399D01*
Y11255D01*
X4367D01*
Y11095D01*
X4496Y11095D01*
X4505Y11077D01*
X4500Y11071D01*
X4452D01*
Y10985D01*
Y10900D01*
X4515D01*
Y3879D01*
X4518Y3864D01*
X4526Y3851D01*
X5102Y3275D01*
X5095Y3258D01*
X4873D01*
X4860Y3255D01*
X4849Y3248D01*
X4735Y3133D01*
X4728Y3122D01*
X4725Y3110D01*
Y2873D01*
X4728Y2860D01*
X4735Y2850D01*
X4855Y2730D01*
X4865Y2723D01*
X4878Y2720D01*
X5102D01*
X5115Y2723D01*
X5126Y2730D01*
X5245Y2850D01*
X5252Y2860D01*
X5255Y2873D01*
Y3097D01*
X5273Y3105D01*
X5616Y2761D01*
X5629Y2752D01*
X5645Y2749D01*
X6573D01*
X6588Y2752D01*
X6601Y2761D01*
X6654Y2815D01*
X6664Y2811D01*
Y2811D01*
X6804D01*
Y2811D01*
X6814Y2815D01*
X6868Y2761D01*
X6881Y2752D01*
X6896Y2749D01*
X9946D01*
Y2710D01*
X10092D01*
Y2749D01*
X12986D01*
X13001Y2752D01*
X13014Y2761D01*
X13129Y2875D01*
X13137Y2888D01*
X13140Y2904D01*
Y3113D01*
X13175Y3148D01*
X13186Y3143D01*
Y3143D01*
X13327D01*
Y3168D01*
X14403D01*
X14419Y3172D01*
X14432Y3180D01*
X14527Y3275D01*
X14570D01*
X14577Y3259D01*
X14407Y3089D01*
X13327D01*
Y3114D01*
X13186D01*
Y2983D01*
X13327D01*
Y3008D01*
X14424D01*
X14439Y3012D01*
X14452Y3020D01*
X14646Y3214D01*
X14863D01*
X14870Y3198D01*
X14779Y3107D01*
Y2876D01*
X14862Y2793D01*
X14855Y2776D01*
X13822D01*
X13804Y2794D01*
X13811Y2811D01*
X13830D01*
Y2876D01*
X13756D01*
X13740Y2868D01*
X13733Y2873D01*
Y2961D01*
X13573D01*
Y2929D01*
X13327D01*
Y2954D01*
X13186D01*
Y2823D01*
X13327D01*
Y2848D01*
X13573D01*
Y2816D01*
X13669D01*
X13777Y2708D01*
X13787Y2701D01*
X13787Y2690D01*
X13784Y2683D01*
X4223Y2681D01*
X4223Y2681D01*
X4205Y2681D01*
X4189Y2684D01*
X4184Y2685D01*
X4167Y2696D01*
X4155Y2714D01*
X4151Y2732D01*
X4152Y2735D01*
Y13034D01*
X4152Y13034D01*
X4154Y13056D01*
X4163Y13077D01*
X4177Y13095D01*
X4195Y13109D01*
X4215Y13117D01*
X4237Y13120D01*
X4238Y13120D01*
X15755D01*
X15755Y13120D01*
X15779Y13117D01*
D02*
G37*
G36*
X11241Y11095D02*
X11249Y11096D01*
X11250Y11097D01*
X11268Y11088D01*
Y11071D01*
X11271Y11056D01*
X11280Y11043D01*
X11423Y10899D01*
X11437Y10891D01*
X11452Y10888D01*
X12128D01*
X12143Y10891D01*
X12156Y10899D01*
X12227Y10971D01*
X12321D01*
Y11011D01*
X12674D01*
Y10971D01*
X12820D01*
Y11011D01*
X12886D01*
X12901Y11014D01*
X12914Y11023D01*
X12963Y11071D01*
X12971Y11084D01*
X12974Y11099D01*
Y11182D01*
X12994Y11201D01*
X13086D01*
Y11161D01*
X13232D01*
Y11201D01*
X13340D01*
X13355Y11204D01*
X13368Y11213D01*
X13380Y11224D01*
X13401D01*
Y11164D01*
X13401Y11164D01*
X13399Y11147D01*
X13392Y11132D01*
X13390Y11113D01*
X13392Y11095D01*
X13400Y11077D01*
X13411Y11062D01*
X13425Y11051D01*
X13426Y11050D01*
X13422Y11034D01*
X13381D01*
Y10937D01*
X13295Y10851D01*
X11367D01*
X11188Y11030D01*
Y11087D01*
X11206Y11097D01*
X11207Y11096D01*
X11215Y11095D01*
Y11252D01*
X11241D01*
Y11095D01*
D02*
G37*
%LPC*%
G36*
X12210Y12715D02*
X12019D01*
Y12524D01*
X12042D01*
Y12365D01*
X12188D01*
Y12524D01*
X12210D01*
Y12715D01*
D02*
G37*
G36*
X13761Y12001D02*
X13658D01*
X13607Y11950D01*
Y11847D01*
X13658Y11796D01*
X13761D01*
X13813Y11847D01*
Y11950D01*
X13761Y12001D01*
D02*
G37*
G36*
X12759Y12715D02*
X12568D01*
Y12524D01*
X12591D01*
Y12367D01*
X12736D01*
Y12524D01*
X12759D01*
Y12715D01*
D02*
G37*
G36*
X12483Y12712D02*
X12293D01*
Y12521D01*
X12315D01*
Y12365D01*
X12461D01*
Y12521D01*
X12483D01*
Y12712D01*
D02*
G37*
G36*
X13033Y12715D02*
X12842D01*
Y12524D01*
X12865D01*
Y12367D01*
X13011D01*
Y12524D01*
X13033D01*
Y12715D01*
D02*
G37*
G36*
X8268Y5415D02*
X8202D01*
Y5342D01*
X8268D01*
Y5415D01*
D02*
G37*
G36*
X10217D02*
X10151D01*
Y5342D01*
X10217D01*
Y5415D01*
D02*
G37*
G36*
X8177D02*
X8112D01*
Y5342D01*
X8177D01*
Y5415D01*
D02*
G37*
G36*
X13916Y5415D02*
X13850D01*
Y5342D01*
X13916D01*
Y5415D01*
D02*
G37*
G36*
X6153Y5415D02*
X6087D01*
Y5342D01*
X6153D01*
Y5415D01*
D02*
G37*
G36*
X6243D02*
X6178D01*
Y5342D01*
X6243D01*
Y5415D01*
D02*
G37*
G36*
X10307D02*
X10242D01*
Y5342D01*
X10307D01*
Y5415D01*
D02*
G37*
G36*
X5728Y5513D02*
X5662D01*
Y5440D01*
X5728D01*
Y5513D01*
D02*
G37*
G36*
X7752D02*
X7687D01*
Y5440D01*
X7752D01*
Y5513D01*
D02*
G37*
G36*
X9792D02*
X9726D01*
Y5440D01*
X9792D01*
Y5513D01*
D02*
G37*
G36*
X14346Y5415D02*
X14281D01*
Y5342D01*
X14346D01*
Y5415D01*
D02*
G37*
G36*
X12226D02*
X12161D01*
Y5342D01*
X12226D01*
Y5415D01*
D02*
G37*
G36*
X12316D02*
X12251D01*
Y5342D01*
X12316D01*
Y5415D01*
D02*
G37*
G36*
X14255D02*
X14190D01*
Y5342D01*
X14255D01*
Y5415D01*
D02*
G37*
G36*
X13825Y5415D02*
X13760D01*
Y5342D01*
X13825D01*
Y5415D01*
D02*
G37*
G36*
X7059Y3709D02*
X6994D01*
Y3636D01*
X7059D01*
Y3709D01*
D02*
G37*
G36*
X6969D02*
X6904D01*
Y3636D01*
X6969D01*
Y3709D01*
D02*
G37*
G36*
X13130D02*
X13065D01*
Y3636D01*
X13130D01*
Y3709D01*
D02*
G37*
G36*
X13039D02*
X12974D01*
Y3636D01*
X13039D01*
Y3709D01*
D02*
G37*
G36*
Y3611D02*
X12974D01*
Y3538D01*
X13039D01*
Y3611D01*
D02*
G37*
G36*
X7059D02*
X6994D01*
Y3538D01*
X7059D01*
Y3611D01*
D02*
G37*
G36*
X15092Y4060D02*
X14947D01*
Y3899D01*
X14979D01*
Y3762D01*
X14959D01*
Y3561D01*
X15080D01*
Y3762D01*
X15060D01*
Y3899D01*
X15092D01*
Y4060D01*
D02*
G37*
G36*
X13130Y3611D02*
X13065D01*
Y3538D01*
X13130D01*
Y3611D01*
D02*
G37*
G36*
X15175Y5548D02*
X15054D01*
Y5348D01*
X15074D01*
Y5180D01*
X15064Y5172D01*
X15052Y5157D01*
X15045Y5140D01*
X15043Y5121D01*
X15045Y5103D01*
X15052Y5085D01*
X15064Y5071D01*
X15079Y5059D01*
X15096Y5052D01*
X15115Y5050D01*
X15133Y5052D01*
X15150Y5059D01*
X15165Y5071D01*
X15177Y5085D01*
X15184Y5103D01*
X15186Y5121D01*
X15184Y5140D01*
X15177Y5157D01*
X15165Y5172D01*
X15155Y5180D01*
Y5348D01*
X15175D01*
Y5548D01*
D02*
G37*
G36*
X9882Y5415D02*
X9817D01*
Y5342D01*
X9882D01*
Y5415D01*
D02*
G37*
G36*
X9792D02*
X9726D01*
Y5342D01*
X9792D01*
Y5415D01*
D02*
G37*
G36*
X11891D02*
X11826D01*
Y5342D01*
X11891D01*
Y5415D01*
D02*
G37*
G36*
X11801D02*
X11736D01*
Y5342D01*
X11801D01*
Y5415D01*
D02*
G37*
G36*
X5818D02*
X5753D01*
Y5342D01*
X5818D01*
Y5415D01*
D02*
G37*
G36*
X5728D02*
X5662D01*
Y5342D01*
X5728D01*
Y5415D01*
D02*
G37*
G36*
X7843D02*
X7777D01*
Y5342D01*
X7843D01*
Y5415D01*
D02*
G37*
G36*
X7752D02*
X7687D01*
Y5342D01*
X7752D01*
Y5415D01*
D02*
G37*
G36*
X5728Y7411D02*
X5662D01*
Y7339D01*
X5728D01*
Y7411D01*
D02*
G37*
G36*
X15175Y7606D02*
X15054D01*
Y7405D01*
X15074D01*
Y7212D01*
X15064Y7204D01*
X15052Y7189D01*
X15045Y7172D01*
X15043Y7153D01*
X15045Y7135D01*
X15052Y7117D01*
X15064Y7103D01*
X15079Y7091D01*
X15096Y7084D01*
X15115Y7082D01*
X15133Y7084D01*
X15150Y7091D01*
X15165Y7103D01*
X15177Y7117D01*
X15184Y7135D01*
X15186Y7153D01*
X15184Y7172D01*
X15177Y7189D01*
X15165Y7204D01*
X15155Y7212D01*
Y7405D01*
X15175D01*
Y7606D01*
D02*
G37*
G36*
X7752Y7411D02*
X7687D01*
Y7339D01*
X7752D01*
Y7411D01*
D02*
G37*
G36*
X5818D02*
X5753D01*
Y7339D01*
X5818D01*
Y7411D01*
D02*
G37*
G36*
X5844Y5957D02*
X5637D01*
Y5838D01*
X5700D01*
Y5698D01*
X5667D01*
Y5658D01*
X5617D01*
X5610Y5667D01*
X5595Y5679D01*
X5578Y5686D01*
X5559Y5688D01*
X5541Y5686D01*
X5523Y5679D01*
X5508Y5667D01*
X5497Y5652D01*
X5490Y5635D01*
X5487Y5617D01*
X5490Y5598D01*
X5497Y5581D01*
X5508Y5566D01*
X5523Y5554D01*
X5541Y5547D01*
X5559Y5545D01*
X5578Y5547D01*
X5595Y5554D01*
X5610Y5566D01*
X5619Y5577D01*
X5667D01*
Y5537D01*
X5813D01*
Y5698D01*
X5780D01*
Y5838D01*
X5844D01*
Y5957D01*
D02*
G37*
G36*
X15092Y6067D02*
X14947D01*
Y5906D01*
X14979D01*
Y5768D01*
X14959D01*
Y5568D01*
X15080D01*
Y5768D01*
X15060D01*
Y5906D01*
X15092D01*
Y6067D01*
D02*
G37*
G36*
X9923Y6560D02*
X9904Y6557D01*
X9887Y6550D01*
X9872Y6539D01*
X9861Y6524D01*
X9856Y6513D01*
X9837D01*
X9833Y6524D01*
X9821Y6539D01*
X9806Y6550D01*
X9789Y6557D01*
X9770Y6560D01*
X9752Y6557D01*
X9735Y6550D01*
X9720Y6539D01*
X9708Y6524D01*
X9701Y6506D01*
X9699Y6488D01*
X9701Y6469D01*
X9708Y6452D01*
X9720Y6437D01*
X9735Y6426D01*
X9752Y6418D01*
X9770Y6416D01*
X9784Y6418D01*
X9945Y6256D01*
X9958Y6248D01*
X9974Y6244D01*
X11468D01*
X11534Y6179D01*
Y5973D01*
X11537Y5957D01*
X11545Y5944D01*
X11621Y5869D01*
X11634Y5860D01*
X11649Y5857D01*
X11710D01*
Y5838D01*
X11773D01*
Y5698D01*
X11741D01*
Y5537D01*
X11886D01*
Y5698D01*
X11854D01*
Y5838D01*
X11917D01*
Y5957D01*
X11710D01*
Y5938D01*
X11666D01*
X11614Y5989D01*
Y6196D01*
X11611Y6211D01*
X11602Y6224D01*
X11513Y6313D01*
X11513Y6313D01*
X11519Y6331D01*
X13510D01*
X13563Y6278D01*
Y5973D01*
X13566Y5957D01*
X13575Y5944D01*
X13650Y5869D01*
X13663Y5860D01*
X13678Y5857D01*
X13740D01*
Y5838D01*
X13795D01*
Y5698D01*
X13765D01*
Y5537D01*
X13911D01*
Y5698D01*
X13875D01*
Y5838D01*
X13946D01*
Y5957D01*
X13740D01*
Y5938D01*
X13695D01*
X13643Y5989D01*
Y6295D01*
X13640Y6310D01*
X13632Y6323D01*
X13555Y6399D01*
X13542Y6408D01*
X13527Y6411D01*
X10056D01*
X9993Y6475D01*
X9995Y6488D01*
X9992Y6506D01*
X9985Y6524D01*
X9974Y6539D01*
X9959Y6550D01*
X9941Y6557D01*
X9923Y6560D01*
D02*
G37*
G36*
X14365Y6216D02*
X14083D01*
X14068Y6212D01*
X14055Y6204D01*
X13969Y6118D01*
X13946D01*
Y6137D01*
X13740D01*
Y6018D01*
X13946D01*
Y6037D01*
X13985D01*
X14001Y6040D01*
X14014Y6049D01*
X14100Y6135D01*
X14150D01*
X14150Y6118D01*
X14135Y6114D01*
X14122Y6106D01*
X14068Y6051D01*
X14059Y6038D01*
X14056Y6023D01*
Y5642D01*
X14059Y5627D01*
X14068Y5614D01*
X14117Y5564D01*
X14130Y5555D01*
X14146Y5552D01*
X14195D01*
Y5537D01*
X14341D01*
Y5698D01*
X14195D01*
Y5632D01*
X14162D01*
X14136Y5659D01*
Y6006D01*
X14152Y6023D01*
X14165Y6018D01*
Y6018D01*
X14371D01*
X14381Y6004D01*
Y5971D01*
X14371Y5957D01*
X14165D01*
Y5838D01*
X14371D01*
X14381Y5824D01*
Y5180D01*
X14370Y5172D01*
X14362Y5161D01*
X12540D01*
X12432Y5270D01*
Y5848D01*
X12429Y5863D01*
X12420Y5876D01*
X12399Y5897D01*
X12420Y5918D01*
X12429Y5931D01*
X12432Y5947D01*
Y6119D01*
X12429Y6135D01*
X12420Y6148D01*
X12364Y6204D01*
X12351Y6212D01*
X12336Y6216D01*
X12054D01*
X12038Y6212D01*
X12025Y6204D01*
X11939Y6118D01*
X11917D01*
Y6137D01*
X11710D01*
Y6018D01*
X11917D01*
Y6037D01*
X11956D01*
X11971Y6040D01*
X11984Y6049D01*
X12070Y6135D01*
X12121D01*
X12121Y6118D01*
X12106Y6114D01*
X12093Y6106D01*
X12038Y6051D01*
X12029Y6038D01*
X12026Y6023D01*
Y5642D01*
X12029Y5627D01*
X12038Y5614D01*
X12088Y5564D01*
X12101Y5555D01*
X12116Y5552D01*
X12166D01*
Y5537D01*
X12311D01*
Y5698D01*
X12166D01*
Y5632D01*
X12133D01*
X12107Y5659D01*
Y6006D01*
X12123Y6023D01*
X12135Y6018D01*
Y6018D01*
X12342D01*
X12352Y6004D01*
Y5971D01*
X12342Y5957D01*
X12135D01*
Y5838D01*
X12342D01*
X12352Y5824D01*
Y5270D01*
X12243Y5161D01*
X10592D01*
X10423Y5331D01*
Y5848D01*
X10420Y5863D01*
X10411Y5876D01*
X10390Y5897D01*
X10411Y5918D01*
X10420Y5931D01*
X10423Y5947D01*
Y6119D01*
X10420Y6135D01*
X10411Y6148D01*
X10355Y6204D01*
X10342Y6212D01*
X10327Y6216D01*
X10045D01*
X10029Y6212D01*
X10016Y6204D01*
X9930Y6118D01*
X9908D01*
Y6137D01*
X9701D01*
Y6118D01*
X9678D01*
X9592Y6204D01*
X9579Y6212D01*
X9564Y6216D01*
X8399D01*
X8383Y6212D01*
X8370Y6204D01*
X8343Y6176D01*
X8315Y6204D01*
X8302Y6212D01*
X8287Y6216D01*
X8005D01*
X7990Y6212D01*
X7977Y6204D01*
X7891Y6118D01*
X7868D01*
Y6137D01*
X7661D01*
Y6118D01*
X7639D01*
X7553Y6204D01*
X7540Y6212D01*
X7524Y6216D01*
X6374D01*
X6359Y6212D01*
X6346Y6204D01*
X6319Y6176D01*
X6291Y6204D01*
X6278Y6212D01*
X6263Y6216D01*
X5981D01*
X5965Y6212D01*
X5952Y6204D01*
X5866Y6118D01*
X5844D01*
Y6137D01*
X5637D01*
Y6018D01*
X5844D01*
Y6037D01*
X5883D01*
X5898Y6040D01*
X5911Y6049D01*
X5997Y6135D01*
X6048D01*
X6048Y6118D01*
X6032Y6114D01*
X6019Y6106D01*
X5965Y6051D01*
X5956Y6038D01*
X5953Y6023D01*
Y5642D01*
X5956Y5627D01*
X5965Y5614D01*
X6015Y5564D01*
X6028Y5555D01*
X6043Y5552D01*
X6092D01*
Y5537D01*
X6238D01*
Y5698D01*
X6092D01*
Y5632D01*
X6060D01*
X6034Y5659D01*
Y6006D01*
X6050Y6023D01*
X6062Y6018D01*
Y6018D01*
X6269D01*
X6278Y6004D01*
Y5971D01*
X6269Y5957D01*
X6062D01*
Y5838D01*
X6269D01*
Y5857D01*
X6269D01*
X6285Y5860D01*
X6298Y5869D01*
X6347Y5918D01*
X6356Y5931D01*
X6359Y5947D01*
Y6103D01*
X6391Y6135D01*
X7508D01*
X7594Y6049D01*
X7607Y6040D01*
X7622Y6037D01*
X7661D01*
Y6018D01*
X7868D01*
Y6037D01*
X7907D01*
X7922Y6040D01*
X7936Y6049D01*
X8022Y6135D01*
X8072D01*
X8072Y6118D01*
X8057Y6114D01*
X8044Y6106D01*
X7989Y6051D01*
X7981Y6038D01*
X7978Y6023D01*
Y5642D01*
X7981Y5627D01*
X7989Y5614D01*
X8039Y5564D01*
X8052Y5555D01*
X8068Y5552D01*
X8117D01*
Y5537D01*
X8262D01*
Y5698D01*
X8117D01*
Y5632D01*
X8084D01*
X8058Y5659D01*
Y6006D01*
X8074Y6023D01*
X8086Y6018D01*
Y6018D01*
X8293D01*
X8303Y6004D01*
Y5971D01*
X8293Y5957D01*
X8086D01*
Y5838D01*
X8293D01*
Y5857D01*
X8294D01*
X8309Y5860D01*
X8322Y5869D01*
X8371Y5918D01*
X8380Y5931D01*
X8383Y5947D01*
Y6103D01*
X8415Y6135D01*
X9547D01*
X9633Y6049D01*
X9646Y6040D01*
X9662Y6037D01*
X9701D01*
Y6018D01*
X9908D01*
Y6037D01*
X9947D01*
X9962Y6040D01*
X9975Y6049D01*
X10061Y6135D01*
X10112D01*
X10112Y6118D01*
X10096Y6114D01*
X10083Y6106D01*
X10029Y6051D01*
X10020Y6038D01*
X10017Y6023D01*
Y5642D01*
X10020Y5627D01*
X10029Y5614D01*
X10079Y5564D01*
X10092Y5555D01*
X10107Y5552D01*
X10156D01*
Y5537D01*
X10302D01*
Y5698D01*
X10156D01*
Y5632D01*
X10124D01*
X10098Y5659D01*
Y6006D01*
X10114Y6023D01*
X10126Y6018D01*
Y6018D01*
X10333D01*
X10342Y6004D01*
Y5971D01*
X10333Y5957D01*
X10126D01*
Y5838D01*
X10333D01*
X10342Y5824D01*
Y5314D01*
X10345Y5299D01*
X10354Y5286D01*
X10547Y5093D01*
X10560Y5084D01*
X10576Y5081D01*
X12260D01*
X12275Y5084D01*
X12288Y5093D01*
X12392Y5197D01*
X12495Y5093D01*
X12508Y5084D01*
X12524Y5081D01*
X14362D01*
X14370Y5071D01*
X14385Y5059D01*
X14403Y5052D01*
X14421Y5050D01*
X14440Y5052D01*
X14457Y5059D01*
X14472Y5071D01*
X14483Y5085D01*
X14490Y5103D01*
X14493Y5121D01*
X14490Y5140D01*
X14483Y5157D01*
X14472Y5172D01*
X14461Y5180D01*
Y5848D01*
X14458Y5863D01*
X14450Y5876D01*
X14429Y5897D01*
X14450Y5918D01*
X14458Y5931D01*
X14461Y5947D01*
Y6119D01*
X14458Y6135D01*
X14450Y6148D01*
X14394Y6204D01*
X14381Y6212D01*
X14365Y6216D01*
D02*
G37*
G36*
X13830Y7411D02*
X13765D01*
Y7339D01*
X13830D01*
Y7411D01*
D02*
G37*
G36*
X11891D02*
X11826D01*
Y7339D01*
X11891D01*
Y7411D01*
D02*
G37*
G36*
X6153Y7411D02*
X6087D01*
Y7339D01*
X6153D01*
Y7411D01*
D02*
G37*
G36*
X13921Y7411D02*
X13856D01*
Y7339D01*
X13921D01*
Y7411D01*
D02*
G37*
G36*
X9792D02*
X9726D01*
Y7339D01*
X9792D01*
Y7411D01*
D02*
G37*
G36*
X7843D02*
X7777D01*
Y7339D01*
X7843D01*
Y7411D01*
D02*
G37*
G36*
X11801D02*
X11736D01*
Y7339D01*
X11801D01*
Y7411D01*
D02*
G37*
G36*
X9882D02*
X9817D01*
Y7339D01*
X9882D01*
Y7411D01*
D02*
G37*
G36*
X14346Y5513D02*
X14281D01*
Y5440D01*
X14346D01*
Y5513D01*
D02*
G37*
G36*
X5818Y5513D02*
X5753D01*
Y5440D01*
X5818D01*
Y5513D01*
D02*
G37*
G36*
X9882D02*
X9817D01*
Y5440D01*
X9882D01*
Y5513D01*
D02*
G37*
G36*
X6153Y5513D02*
X6087D01*
Y5440D01*
X6153D01*
Y5513D01*
D02*
G37*
G36*
X7843Y5513D02*
X7777D01*
Y5440D01*
X7843D01*
Y5513D01*
D02*
G37*
G36*
X13825D02*
X13760D01*
Y5440D01*
X13825D01*
Y5513D01*
D02*
G37*
G36*
X11801D02*
X11736D01*
Y5440D01*
X11801D01*
Y5513D01*
D02*
G37*
G36*
X13916D02*
X13850D01*
Y5440D01*
X13916D01*
Y5513D01*
D02*
G37*
G36*
X11891D02*
X11826D01*
Y5440D01*
X11891D01*
Y5513D01*
D02*
G37*
G36*
X12226Y5513D02*
X12161D01*
Y5440D01*
X12226D01*
Y5513D01*
D02*
G37*
G36*
X10307D02*
X10242D01*
Y5440D01*
X10307D01*
Y5513D01*
D02*
G37*
G36*
X14255D02*
X14190D01*
Y5440D01*
X14255D01*
Y5513D01*
D02*
G37*
G36*
X12316D02*
X12251D01*
Y5440D01*
X12316D01*
Y5513D01*
D02*
G37*
G36*
X8177D02*
X8112D01*
Y5440D01*
X8177D01*
Y5513D01*
D02*
G37*
G36*
X6243D02*
X6178D01*
Y5440D01*
X6243D01*
Y5513D01*
D02*
G37*
G36*
X10217D02*
X10151D01*
Y5440D01*
X10217D01*
Y5513D01*
D02*
G37*
G36*
X8268D02*
X8202D01*
Y5440D01*
X8268D01*
Y5513D01*
D02*
G37*
G36*
X6969Y3611D02*
X6904D01*
Y3538D01*
X6969D01*
Y3611D01*
D02*
G37*
G36*
X10307Y3363D02*
X10242D01*
Y3290D01*
X10307D01*
Y3363D01*
D02*
G37*
G36*
X10217D02*
X10151D01*
Y3290D01*
X10217D01*
Y3363D01*
D02*
G37*
G36*
X11891D02*
X11826D01*
Y3290D01*
X11891D01*
Y3363D01*
D02*
G37*
G36*
X11801D02*
X11736D01*
Y3290D01*
X11801D01*
Y3363D01*
D02*
G37*
G36*
X8268D02*
X8202D01*
Y3290D01*
X8268D01*
Y3363D01*
D02*
G37*
G36*
X8177D02*
X8112D01*
Y3290D01*
X8177D01*
Y3363D01*
D02*
G37*
G36*
X9882D02*
X9817D01*
Y3290D01*
X9882D01*
Y3363D01*
D02*
G37*
G36*
X9792D02*
X9726D01*
Y3290D01*
X9792D01*
Y3363D01*
D02*
G37*
G36*
X5811Y3363D02*
X5745D01*
Y3290D01*
X5811D01*
Y3363D01*
D02*
G37*
G36*
X5720D02*
X5655D01*
Y3290D01*
X5720D01*
Y3363D01*
D02*
G37*
G36*
X6243D02*
X6178D01*
Y3290D01*
X6243D01*
Y3363D01*
D02*
G37*
G36*
X6153D02*
X6087D01*
Y3290D01*
X6153D01*
Y3363D01*
D02*
G37*
G36*
X13921Y3363D02*
X13856D01*
Y3290D01*
X13921D01*
Y3363D01*
D02*
G37*
G36*
X13830D02*
X13765D01*
Y3290D01*
X13830D01*
Y3363D01*
D02*
G37*
G36*
X14346D02*
X14281D01*
Y3290D01*
X14346D01*
Y3363D01*
D02*
G37*
G36*
X14255D02*
X14190D01*
Y3290D01*
X14255D01*
Y3363D01*
D02*
G37*
G36*
X10097Y2967D02*
X10032D01*
Y2895D01*
X10097D01*
Y2967D01*
D02*
G37*
G36*
X10007D02*
X9941D01*
Y2895D01*
X10007D01*
Y2967D01*
D02*
G37*
G36*
X7840Y2965D02*
X7767D01*
Y2900D01*
X7840D01*
Y2965D01*
D02*
G37*
G36*
X7742D02*
X7669D01*
Y2900D01*
X7742D01*
Y2965D01*
D02*
G37*
G36*
X7840Y3055D02*
X7767D01*
Y2990D01*
X7840D01*
Y3055D01*
D02*
G37*
G36*
X7742D02*
X7669D01*
Y2990D01*
X7742D01*
Y3055D01*
D02*
G37*
G36*
X10097Y3065D02*
X10032D01*
Y2993D01*
X10097D01*
Y3065D01*
D02*
G37*
G36*
X10007D02*
X9941D01*
Y2993D01*
X10007D01*
Y3065D01*
D02*
G37*
G36*
X7752Y3363D02*
X7687D01*
Y3290D01*
X7752D01*
Y3363D01*
D02*
G37*
G36*
X12226Y3461D02*
X12161D01*
Y3388D01*
X12226D01*
Y3461D01*
D02*
G37*
G36*
X6243D02*
X6178D01*
Y3388D01*
X6243D01*
Y3461D01*
D02*
G37*
G36*
X5811D02*
X5745D01*
Y3388D01*
X5811D01*
Y3461D01*
D02*
G37*
G36*
X12316D02*
X12251D01*
Y3388D01*
X12316D01*
Y3461D01*
D02*
G37*
G36*
X5720D02*
X5655D01*
Y3388D01*
X5720D01*
Y3461D01*
D02*
G37*
G36*
X9882Y3461D02*
X9817D01*
Y3388D01*
X9882D01*
Y3461D01*
D02*
G37*
G36*
X6153Y3461D02*
X6087D01*
Y3388D01*
X6153D01*
Y3461D01*
D02*
G37*
G36*
X7752D02*
X7687D01*
Y3388D01*
X7752D01*
Y3461D01*
D02*
G37*
G36*
X13643Y3942D02*
X13624Y3940D01*
X13607Y3933D01*
X13592Y3921D01*
X13581Y3906D01*
X13574Y3889D01*
X13571Y3870D01*
X13574Y3852D01*
X13581Y3835D01*
X13592Y3820D01*
X13607Y3808D01*
X13624Y3801D01*
X13643Y3799D01*
X13661Y3801D01*
X13679Y3808D01*
X13694Y3820D01*
X13702Y3830D01*
X13740D01*
Y3811D01*
X13795D01*
Y3646D01*
X13770D01*
Y3485D01*
X13916D01*
Y3646D01*
X13875D01*
Y3811D01*
X13946D01*
Y3930D01*
X13740D01*
Y3911D01*
X13702D01*
X13694Y3921D01*
X13679Y3933D01*
X13661Y3940D01*
X13643Y3942D01*
D02*
G37*
G36*
X11598D02*
X11580Y3940D01*
X11562Y3933D01*
X11547Y3921D01*
X11536Y3906D01*
X11529Y3889D01*
X11526Y3870D01*
X11529Y3852D01*
X11536Y3835D01*
X11547Y3820D01*
X11562Y3808D01*
X11580Y3801D01*
X11598Y3799D01*
X11617Y3801D01*
X11634Y3808D01*
X11649Y3820D01*
X11657Y3830D01*
X11710D01*
Y3811D01*
X11766D01*
Y3646D01*
X11741D01*
Y3485D01*
X11886D01*
Y3646D01*
X11846D01*
Y3811D01*
X11917D01*
Y3930D01*
X11710D01*
Y3911D01*
X11657D01*
X11649Y3921D01*
X11634Y3933D01*
X11617Y3940D01*
X11598Y3942D01*
D02*
G37*
G36*
X7554D02*
X7536Y3940D01*
X7519Y3933D01*
X7504Y3921D01*
X7492Y3906D01*
X7485Y3889D01*
X7483Y3870D01*
X7485Y3852D01*
X7492Y3835D01*
X7504Y3820D01*
X7519Y3808D01*
X7536Y3801D01*
X7554Y3799D01*
X7573Y3801D01*
X7590Y3808D01*
X7605Y3820D01*
X7613Y3830D01*
X7661D01*
Y3811D01*
X7725D01*
Y3646D01*
X7692D01*
Y3485D01*
X7837D01*
Y3646D01*
X7805D01*
Y3811D01*
X7868D01*
Y3930D01*
X7661D01*
Y3911D01*
X7613D01*
X7605Y3921D01*
X7590Y3933D01*
X7573Y3940D01*
X7554Y3942D01*
D02*
G37*
G36*
X5533D02*
X5514Y3940D01*
X5497Y3933D01*
X5482Y3921D01*
X5470Y3906D01*
X5463Y3889D01*
X5461Y3870D01*
X5463Y3852D01*
X5470Y3835D01*
X5482Y3820D01*
X5497Y3808D01*
X5514Y3801D01*
X5533Y3799D01*
X5551Y3801D01*
X5568Y3808D01*
X5583Y3820D01*
X5591Y3830D01*
X5637D01*
Y3811D01*
X5693D01*
Y3646D01*
X5660D01*
Y3485D01*
X5805D01*
Y3646D01*
X5773D01*
Y3811D01*
X5844D01*
Y3930D01*
X5637D01*
Y3911D01*
X5591D01*
X5583Y3921D01*
X5568Y3933D01*
X5551Y3940D01*
X5533Y3942D01*
D02*
G37*
G36*
X14040Y3451D02*
X14033Y3451D01*
X14014Y3443D01*
X13998Y3431D01*
X13986Y3415D01*
X13979Y3396D01*
X13978Y3389D01*
X14040D01*
Y3451D01*
D02*
G37*
G36*
X7843Y3461D02*
X7777D01*
Y3388D01*
X7843D01*
Y3461D01*
D02*
G37*
G36*
X9604Y3942D02*
X9586Y3940D01*
X9568Y3933D01*
X9553Y3921D01*
X9542Y3906D01*
X9535Y3889D01*
X9532Y3870D01*
X9535Y3852D01*
X9542Y3835D01*
X9553Y3820D01*
X9568Y3808D01*
X9586Y3801D01*
X9604Y3799D01*
X9623Y3801D01*
X9640Y3808D01*
X9655Y3820D01*
X9663Y3830D01*
X9701D01*
Y3811D01*
X9757D01*
Y3646D01*
X9731D01*
Y3485D01*
X9877D01*
Y3646D01*
X9837D01*
Y3811D01*
X9908D01*
Y3930D01*
X9701D01*
Y3911D01*
X9663D01*
X9655Y3921D01*
X9640Y3933D01*
X9623Y3940D01*
X9604Y3942D01*
D02*
G37*
G36*
X14066Y3451D02*
Y3389D01*
X14128D01*
X14127Y3396D01*
X14119Y3415D01*
X14107Y3431D01*
X14091Y3443D01*
X14073Y3451D01*
X14066Y3451D01*
D02*
G37*
G36*
X9792Y3461D02*
X9726D01*
Y3388D01*
X9792D01*
Y3461D01*
D02*
G37*
G36*
X14128Y3364D02*
X14066D01*
Y3301D01*
X14073Y3302D01*
X14091Y3310D01*
X14107Y3322D01*
X14119Y3338D01*
X14127Y3356D01*
X14128Y3364D01*
D02*
G37*
G36*
X13830Y3461D02*
X13765D01*
Y3388D01*
X13830D01*
Y3461D01*
D02*
G37*
G36*
X11801D02*
X11736D01*
Y3388D01*
X11801D01*
Y3461D01*
D02*
G37*
G36*
X12226Y3363D02*
X12161D01*
Y3290D01*
X12226D01*
Y3363D01*
D02*
G37*
G36*
X7843D02*
X7777D01*
Y3290D01*
X7843D01*
Y3363D01*
D02*
G37*
G36*
X14040Y3364D02*
X13978D01*
X13979Y3356D01*
X13986Y3338D01*
X13998Y3322D01*
X14014Y3310D01*
X14033Y3302D01*
X14040Y3301D01*
Y3364D01*
D02*
G37*
G36*
X12316Y3363D02*
X12251D01*
Y3290D01*
X12316D01*
Y3363D01*
D02*
G37*
G36*
X14346Y3461D02*
X14281D01*
Y3388D01*
X14346D01*
Y3461D01*
D02*
G37*
G36*
X14255D02*
X14190D01*
Y3388D01*
X14255D01*
Y3461D01*
D02*
G37*
G36*
X13921D02*
X13856D01*
Y3388D01*
X13921D01*
Y3461D01*
D02*
G37*
G36*
X11891D02*
X11826D01*
Y3388D01*
X11891D01*
Y3461D01*
D02*
G37*
G36*
X8268D02*
X8202D01*
Y3388D01*
X8268D01*
Y3461D01*
D02*
G37*
G36*
X8177D02*
X8112D01*
Y3388D01*
X8177D01*
Y3461D01*
D02*
G37*
G36*
X10307D02*
X10242D01*
Y3388D01*
X10307D01*
Y3461D01*
D02*
G37*
G36*
X10217D02*
X10151D01*
Y3388D01*
X10217D01*
Y3461D01*
D02*
G37*
G36*
X6243Y7411D02*
X6178D01*
Y7339D01*
X6243D01*
Y7411D01*
D02*
G37*
G36*
X8875Y10960D02*
X8803D01*
Y10895D01*
X8875D01*
Y10960D01*
D02*
G37*
G36*
X14727Y11364D02*
X14606D01*
Y11164D01*
X14626D01*
Y11034D01*
X14586D01*
Y10888D01*
X14746D01*
Y11034D01*
X14707D01*
Y11164D01*
X14727D01*
Y11364D01*
D02*
G37*
G36*
X8973Y10960D02*
X8901D01*
Y10895D01*
X8973D01*
Y10960D01*
D02*
G37*
G36*
Y10869D02*
X8901D01*
Y10804D01*
X8973D01*
Y10869D01*
D02*
G37*
G36*
X8875D02*
X8803D01*
Y10804D01*
X8875D01*
Y10869D01*
D02*
G37*
G36*
X14220Y11364D02*
X14100D01*
Y11164D01*
X14120D01*
Y11034D01*
X14080D01*
Y10888D01*
X14240D01*
Y11034D01*
X14200D01*
Y11164D01*
X14220D01*
Y11364D01*
D02*
G37*
G36*
X13712D02*
X13591D01*
Y11164D01*
X13612D01*
Y11034D01*
X13571D01*
Y10888D01*
X13732D01*
Y11034D01*
X13692D01*
Y11164D01*
X13712D01*
Y11364D01*
D02*
G37*
G36*
X6250Y11160D02*
X6142D01*
Y11052D01*
X6250D01*
Y11160D01*
D02*
G37*
G36*
X8268Y9569D02*
X8202D01*
Y9497D01*
X8268D01*
Y9569D01*
D02*
G37*
G36*
X5818D02*
X5753D01*
Y9497D01*
X5818D01*
Y9569D01*
D02*
G37*
G36*
X15092Y10151D02*
X14947D01*
Y9990D01*
X14979D01*
Y9858D01*
X14959D01*
Y9657D01*
X15080D01*
Y9858D01*
X15060D01*
Y9990D01*
X15092D01*
Y10151D01*
D02*
G37*
G36*
X9882Y9569D02*
X9817D01*
Y9497D01*
X9882D01*
Y9569D01*
D02*
G37*
G36*
X13921D02*
X13856D01*
Y9497D01*
X13921D01*
Y9569D01*
D02*
G37*
G36*
X12316D02*
X12251D01*
Y9497D01*
X12316D01*
Y9569D01*
D02*
G37*
G36*
X7843D02*
X7777D01*
Y9497D01*
X7843D01*
Y9569D01*
D02*
G37*
G36*
X6243D02*
X6178D01*
Y9497D01*
X6243D01*
Y9569D01*
D02*
G37*
G36*
X8973Y10641D02*
X8901D01*
Y10575D01*
X8973D01*
Y10641D01*
D02*
G37*
G36*
X8875D02*
X8803D01*
Y10575D01*
X8875D01*
Y10641D01*
D02*
G37*
G36*
X8973Y10731D02*
X8901D01*
Y10666D01*
X8973D01*
Y10731D01*
D02*
G37*
G36*
X8875D02*
X8803D01*
Y10666D01*
X8875D01*
Y10731D01*
D02*
G37*
G36*
X13946Y10039D02*
X13740D01*
Y9919D01*
X13803D01*
Y9754D01*
X13770D01*
Y9716D01*
X13677D01*
X13669Y9726D01*
X13654Y9738D01*
X13637Y9745D01*
X13618Y9747D01*
X13600Y9745D01*
X13583Y9738D01*
X13568Y9726D01*
X13556Y9711D01*
X13549Y9694D01*
X13547Y9675D01*
X13549Y9657D01*
X13556Y9640D01*
X13568Y9625D01*
X13583Y9613D01*
X13600Y9606D01*
X13618Y9604D01*
X13637Y9606D01*
X13654Y9613D01*
X13669Y9625D01*
X13677Y9635D01*
X13770D01*
Y9594D01*
X13916D01*
Y9754D01*
X13883D01*
Y9919D01*
X13946D01*
Y10039D01*
D02*
G37*
G36*
X6250Y11293D02*
X6142D01*
Y11185D01*
X6250D01*
Y11293D01*
D02*
G37*
G36*
X10558Y12462D02*
X10539Y12460D01*
X10522Y12453D01*
X10507Y12441D01*
X10496Y12427D01*
X10489Y12409D01*
X10486Y12391D01*
X10489Y12372D01*
X10496Y12355D01*
X10507Y12340D01*
X10522Y12329D01*
X10539Y12321D01*
X10558Y12319D01*
X10576Y12321D01*
X10594Y12329D01*
X10609Y12340D01*
X10620Y12355D01*
X10627Y12372D01*
X10630Y12391D01*
X10627Y12409D01*
X10620Y12427D01*
X10609Y12441D01*
X10594Y12453D01*
X10576Y12460D01*
X10558Y12462D01*
D02*
G37*
G36*
X6771Y11296D02*
X6739Y11291D01*
X6709Y11279D01*
X6684Y11260D01*
X6664Y11234D01*
X6652Y11204D01*
X6650Y11189D01*
X6632D01*
X6630Y11205D01*
X6618Y11233D01*
X6600Y11258D01*
X6576Y11276D01*
X6547Y11288D01*
X6517Y11292D01*
X6487Y11288D01*
X6459Y11276D01*
X6435Y11258D01*
X6416Y11233D01*
X6405Y11205D01*
X6402Y11189D01*
X6401Y11178D01*
X6383Y11180D01*
Y11293D01*
X6275D01*
Y11173D01*
Y11052D01*
X6383D01*
Y11171D01*
X6401Y11172D01*
X6402Y11161D01*
X6405Y11145D01*
X6416Y11117D01*
X6435Y11093D01*
X6459Y11074D01*
X6487Y11063D01*
X6517Y11059D01*
X6547Y11063D01*
X6576Y11074D01*
X6600Y11093D01*
X6618Y11117D01*
X6630Y11145D01*
X6632Y11158D01*
X6650D01*
X6652Y11141D01*
X6664Y11111D01*
X6684Y11086D01*
X6709Y11066D01*
X6739Y11054D01*
X6771Y11050D01*
X6802Y11054D01*
X6832Y11066D01*
X6858Y11086D01*
X6877Y11111D01*
X6889Y11141D01*
X6892Y11163D01*
X6910D01*
X6913Y11145D01*
X6924Y11117D01*
X6943Y11093D01*
X6967Y11074D01*
X6995Y11063D01*
X7025Y11059D01*
X7055Y11063D01*
X7084Y11074D01*
X7108Y11093D01*
X7126Y11117D01*
X7138Y11145D01*
X7142Y11175D01*
X7138Y11205D01*
X7126Y11233D01*
X7108Y11258D01*
X7084Y11276D01*
X7055Y11288D01*
X7025Y11292D01*
X6995Y11288D01*
X6967Y11276D01*
X6943Y11258D01*
X6924Y11233D01*
X6913Y11205D01*
X6910Y11185D01*
X6892D01*
X6889Y11204D01*
X6877Y11234D01*
X6858Y11260D01*
X6832Y11279D01*
X6802Y11291D01*
X6771Y11296D01*
D02*
G37*
G36*
X14346Y9569D02*
X14281D01*
Y9497D01*
X14346D01*
Y9569D01*
D02*
G37*
G36*
X6243Y7509D02*
X6178D01*
Y7437D01*
X6243D01*
Y7509D01*
D02*
G37*
G36*
X6153D02*
X6087D01*
Y7437D01*
X6153D01*
Y7509D01*
D02*
G37*
G36*
X8268D02*
X8202D01*
Y7437D01*
X8268D01*
Y7509D01*
D02*
G37*
G36*
X8177D02*
X8112D01*
Y7437D01*
X8177D01*
Y7509D01*
D02*
G37*
G36*
X9882Y7509D02*
X9817D01*
Y7437D01*
X9882D01*
Y7509D01*
D02*
G37*
G36*
X11891D02*
X11826D01*
Y7437D01*
X11891D01*
Y7509D01*
D02*
G37*
G36*
X7843D02*
X7777D01*
Y7437D01*
X7843D01*
Y7509D01*
D02*
G37*
G36*
X5818D02*
X5753D01*
Y7437D01*
X5818D01*
Y7509D01*
D02*
G37*
G36*
X14346Y7509D02*
X14281D01*
Y7437D01*
X14346D01*
Y7509D01*
D02*
G37*
G36*
X14255D02*
X14190D01*
Y7437D01*
X14255D01*
Y7509D01*
D02*
G37*
G36*
X14365Y8237D02*
X14083D01*
X14068Y8234D01*
X14055Y8226D01*
X13969Y8139D01*
X13946D01*
Y8159D01*
X13740D01*
Y8139D01*
X13717D01*
X13631Y8226D01*
X13618Y8234D01*
X13602Y8237D01*
X12448D01*
X12432Y8234D01*
X12419Y8226D01*
X12392Y8198D01*
X12364Y8226D01*
X12351Y8234D01*
X12336Y8237D01*
X12054D01*
X12038Y8234D01*
X12025Y8226D01*
X11939Y8139D01*
X11917D01*
Y8159D01*
X11710D01*
Y8139D01*
X11688D01*
X11601Y8226D01*
X11588Y8234D01*
X11573Y8237D01*
X10438D01*
X10423Y8234D01*
X10410Y8226D01*
X10383Y8198D01*
X10355Y8226D01*
X10342Y8234D01*
X10327Y8237D01*
X10045D01*
X10029Y8234D01*
X10016Y8226D01*
X9930Y8139D01*
X9908D01*
Y8159D01*
X9701D01*
Y8139D01*
X9678D01*
X9592Y8226D01*
X9579Y8234D01*
X9564Y8237D01*
X8399D01*
X8383Y8234D01*
X8370Y8226D01*
X8343Y8198D01*
X8315Y8226D01*
X8302Y8234D01*
X8287Y8237D01*
X8005D01*
X7990Y8234D01*
X7977Y8226D01*
X7891Y8139D01*
X7868D01*
Y8159D01*
X7661D01*
Y8139D01*
X7639D01*
X7553Y8226D01*
X7540Y8234D01*
X7524Y8237D01*
X6374D01*
X6359Y8234D01*
X6346Y8226D01*
X6319Y8198D01*
X6291Y8226D01*
X6278Y8234D01*
X6263Y8237D01*
X5981D01*
X5965Y8234D01*
X5952Y8226D01*
X5866Y8139D01*
X5844D01*
Y8159D01*
X5637D01*
Y8039D01*
X5844D01*
Y8059D01*
X5883D01*
X5898Y8062D01*
X5911Y8071D01*
X5997Y8157D01*
X6048D01*
X6048Y8139D01*
X6032Y8136D01*
X6019Y8128D01*
X5965Y8073D01*
X5956Y8060D01*
X5953Y8045D01*
Y7664D01*
X5956Y7648D01*
X5965Y7635D01*
X6015Y7586D01*
X6028Y7577D01*
X6043Y7574D01*
X6092D01*
Y7534D01*
X6238D01*
Y7694D01*
X6092D01*
Y7654D01*
X6060D01*
X6034Y7680D01*
Y8028D01*
X6050Y8044D01*
X6062Y8039D01*
Y8039D01*
X6269D01*
X6278Y8026D01*
Y7993D01*
X6269Y7979D01*
X6062D01*
Y7859D01*
X6269D01*
Y7879D01*
X6269D01*
X6285Y7882D01*
X6298Y7891D01*
X6347Y7940D01*
X6356Y7953D01*
X6359Y7969D01*
Y8125D01*
X6391Y8157D01*
X7508D01*
X7594Y8071D01*
X7607Y8062D01*
X7622Y8059D01*
X7661D01*
Y8039D01*
X7868D01*
Y8059D01*
X7907D01*
X7922Y8062D01*
X7936Y8071D01*
X8022Y8157D01*
X8072D01*
X8072Y8139D01*
X8057Y8136D01*
X8044Y8128D01*
X7989Y8073D01*
X7981Y8060D01*
X7978Y8045D01*
Y7664D01*
X7981Y7648D01*
X7989Y7635D01*
X8039Y7586D01*
X8052Y7577D01*
X8068Y7574D01*
X8117D01*
Y7534D01*
X8262D01*
Y7694D01*
X8117D01*
Y7654D01*
X8084D01*
X8058Y7680D01*
Y8028D01*
X8074Y8044D01*
X8086Y8039D01*
Y8039D01*
X8293D01*
X8303Y8026D01*
Y7993D01*
X8293Y7979D01*
X8086D01*
Y7859D01*
X8293D01*
Y7879D01*
X8294D01*
X8309Y7882D01*
X8322Y7891D01*
X8371Y7940D01*
X8380Y7953D01*
X8383Y7969D01*
Y8125D01*
X8415Y8157D01*
X9547D01*
X9633Y8071D01*
X9646Y8062D01*
X9662Y8059D01*
X9701D01*
Y8039D01*
X9908D01*
Y8059D01*
X9947D01*
X9962Y8062D01*
X9975Y8071D01*
X10061Y8157D01*
X10112D01*
X10112Y8139D01*
X10096Y8136D01*
X10083Y8128D01*
X10029Y8073D01*
X10020Y8060D01*
X10017Y8045D01*
Y7664D01*
X10020Y7648D01*
X10029Y7635D01*
X10079Y7586D01*
X10092Y7577D01*
X10107Y7574D01*
X10156D01*
Y7534D01*
X10302D01*
Y7694D01*
X10156D01*
Y7654D01*
X10124D01*
X10098Y7680D01*
Y8028D01*
X10114Y8044D01*
X10126Y8039D01*
Y8039D01*
X10333D01*
X10342Y8026D01*
Y7993D01*
X10333Y7979D01*
X10126D01*
Y7859D01*
X10333D01*
Y7879D01*
X10333D01*
X10349Y7882D01*
X10362Y7891D01*
X10411Y7940D01*
X10420Y7953D01*
X10423Y7969D01*
Y8125D01*
X10455Y8157D01*
X11556D01*
X11643Y8071D01*
X11656Y8062D01*
X11671Y8059D01*
X11710D01*
Y8039D01*
X11917D01*
Y8059D01*
X11956D01*
X11971Y8062D01*
X11984Y8071D01*
X12070Y8157D01*
X12121D01*
X12121Y8139D01*
X12106Y8136D01*
X12093Y8128D01*
X12038Y8073D01*
X12029Y8060D01*
X12026Y8045D01*
Y7664D01*
X12029Y7648D01*
X12038Y7635D01*
X12088Y7586D01*
X12101Y7577D01*
X12116Y7574D01*
X12166D01*
Y7534D01*
X12311D01*
Y7694D01*
X12166D01*
Y7654D01*
X12133D01*
X12107Y7680D01*
Y8028D01*
X12123Y8044D01*
X12135Y8039D01*
Y8039D01*
X12342D01*
X12352Y8026D01*
Y7993D01*
X12342Y7979D01*
X12135D01*
Y7859D01*
X12342D01*
Y7879D01*
X12342D01*
X12358Y7882D01*
X12371Y7891D01*
X12420Y7940D01*
X12429Y7953D01*
X12432Y7969D01*
Y8125D01*
X12464Y8157D01*
X13586D01*
X13672Y8071D01*
X13685Y8062D01*
X13700Y8059D01*
X13740D01*
Y8039D01*
X13946D01*
Y8059D01*
X13985D01*
X14001Y8062D01*
X14014Y8071D01*
X14100Y8157D01*
X14150D01*
X14150Y8139D01*
X14135Y8136D01*
X14122Y8128D01*
X14068Y8073D01*
X14059Y8060D01*
X14056Y8045D01*
Y7664D01*
X14059Y7648D01*
X14068Y7635D01*
X14117Y7586D01*
X14130Y7577D01*
X14146Y7574D01*
X14195D01*
Y7534D01*
X14341D01*
Y7694D01*
X14195D01*
Y7654D01*
X14162D01*
X14136Y7680D01*
Y8028D01*
X14152Y8044D01*
X14165Y8039D01*
Y8039D01*
X14371D01*
X14381Y8026D01*
Y7993D01*
X14371Y7979D01*
X14165D01*
Y7859D01*
X14371D01*
X14381Y7846D01*
Y7212D01*
X14370Y7204D01*
X14359Y7189D01*
X14352Y7172D01*
X14349Y7153D01*
X14352Y7135D01*
X14359Y7117D01*
X14370Y7103D01*
X14385Y7091D01*
X14403Y7084D01*
X14421Y7082D01*
X14440Y7084D01*
X14457Y7091D01*
X14472Y7103D01*
X14483Y7117D01*
X14490Y7135D01*
X14493Y7153D01*
X14490Y7172D01*
X14483Y7189D01*
X14472Y7204D01*
X14461Y7212D01*
Y7870D01*
X14458Y7885D01*
X14450Y7898D01*
X14429Y7919D01*
X14450Y7940D01*
X14458Y7953D01*
X14461Y7969D01*
Y8141D01*
X14458Y8157D01*
X14450Y8170D01*
X14394Y8226D01*
X14381Y8234D01*
X14365Y8237D01*
D02*
G37*
G36*
X15092Y8124D02*
X14947D01*
Y7963D01*
X14979D01*
Y7826D01*
X14959D01*
Y7625D01*
X15080D01*
Y7826D01*
X15060D01*
Y7963D01*
X15092D01*
Y8124D01*
D02*
G37*
G36*
X10307Y7509D02*
X10242D01*
Y7437D01*
X10307D01*
Y7509D01*
D02*
G37*
G36*
X10217D02*
X10151D01*
Y7437D01*
X10217D01*
Y7509D01*
D02*
G37*
G36*
X12316D02*
X12251D01*
Y7437D01*
X12316D01*
Y7509D01*
D02*
G37*
G36*
X12226D02*
X12161D01*
Y7437D01*
X12226D01*
Y7509D01*
D02*
G37*
G36*
X12316Y7411D02*
X12251D01*
Y7339D01*
X12316D01*
Y7411D01*
D02*
G37*
G36*
X12226D02*
X12161D01*
Y7339D01*
X12226D01*
Y7411D01*
D02*
G37*
G36*
X14346D02*
X14281D01*
Y7339D01*
X14346D01*
Y7411D01*
D02*
G37*
G36*
X14255D02*
X14190D01*
Y7339D01*
X14255D01*
Y7411D01*
D02*
G37*
G36*
X8268D02*
X8202D01*
Y7339D01*
X8268D01*
Y7411D01*
D02*
G37*
G36*
X8177D02*
X8112D01*
Y7339D01*
X8177D01*
Y7411D01*
D02*
G37*
G36*
X10307D02*
X10242D01*
Y7339D01*
X10307D01*
Y7411D01*
D02*
G37*
G36*
X10217D02*
X10151D01*
Y7339D01*
X10217D01*
Y7411D01*
D02*
G37*
G36*
X13830Y7509D02*
X13765D01*
Y7437D01*
X13830D01*
Y7509D01*
D02*
G37*
G36*
X9792D02*
X9726D01*
Y7437D01*
X9792D01*
Y7509D01*
D02*
G37*
G36*
X13921D02*
X13856D01*
Y7437D01*
X13921D01*
Y7509D01*
D02*
G37*
G36*
X11801D02*
X11736D01*
Y7437D01*
X11801D01*
Y7509D01*
D02*
G37*
G36*
X7868Y7979D02*
X7661D01*
Y7859D01*
X7725D01*
Y7694D01*
X7692D01*
Y7534D01*
X7837D01*
Y7574D01*
X7899D01*
X7942Y7530D01*
Y7484D01*
X7932Y7476D01*
X7920Y7461D01*
X7913Y7444D01*
X7910Y7425D01*
X7913Y7406D01*
X7920Y7389D01*
X7932Y7374D01*
X7946Y7363D01*
X7964Y7356D01*
X7982Y7353D01*
X8001Y7356D01*
X8018Y7363D01*
X8033Y7374D01*
X8044Y7389D01*
X8052Y7406D01*
X8054Y7425D01*
X8052Y7444D01*
X8044Y7461D01*
X8033Y7476D01*
X8022Y7484D01*
Y7547D01*
X8019Y7562D01*
X8011Y7575D01*
X7944Y7642D01*
X7931Y7651D01*
X7915Y7654D01*
X7837D01*
Y7694D01*
X7805D01*
Y7859D01*
X7868D01*
Y7979D01*
D02*
G37*
G36*
X5844D02*
X5637D01*
Y7859D01*
X5700D01*
Y7694D01*
X5667D01*
Y7534D01*
X5813D01*
Y7574D01*
X5856D01*
X5900Y7530D01*
Y7484D01*
X5889Y7476D01*
X5878Y7461D01*
X5871Y7444D01*
X5868Y7425D01*
X5871Y7406D01*
X5878Y7389D01*
X5889Y7374D01*
X5904Y7363D01*
X5922Y7356D01*
X5940Y7353D01*
X5959Y7356D01*
X5976Y7363D01*
X5991Y7374D01*
X6002Y7389D01*
X6009Y7406D01*
X6012Y7425D01*
X6009Y7444D01*
X6002Y7461D01*
X5991Y7476D01*
X5980Y7484D01*
Y7547D01*
X5977Y7562D01*
X5968Y7575D01*
X5901Y7642D01*
X5888Y7651D01*
X5873Y7654D01*
X5813D01*
Y7694D01*
X5780D01*
Y7859D01*
X5844D01*
Y7979D01*
D02*
G37*
G36*
X7752Y7509D02*
X7687D01*
Y7437D01*
X7752D01*
Y7509D01*
D02*
G37*
G36*
X5728D02*
X5662D01*
Y7437D01*
X5728D01*
Y7509D01*
D02*
G37*
G36*
X15175Y9638D02*
X15054D01*
Y9437D01*
X15074D01*
Y9168D01*
X15064Y9160D01*
X15052Y9145D01*
X15045Y9128D01*
X15043Y9109D01*
X15045Y9090D01*
X15052Y9073D01*
X15064Y9058D01*
X15079Y9047D01*
X15096Y9040D01*
X15115Y9037D01*
X15133Y9040D01*
X15150Y9047D01*
X15165Y9058D01*
X15177Y9073D01*
X15184Y9090D01*
X15186Y9109D01*
X15184Y9128D01*
X15177Y9145D01*
X15165Y9160D01*
X15155Y9168D01*
Y9437D01*
X15175D01*
Y9638D01*
D02*
G37*
G36*
X7752Y9569D02*
X7687D01*
Y9497D01*
X7752D01*
Y9569D01*
D02*
G37*
G36*
X6153D02*
X6087D01*
Y9497D01*
X6153D01*
Y9569D01*
D02*
G37*
G36*
X8177D02*
X8112D01*
Y9497D01*
X8177D01*
Y9569D01*
D02*
G37*
G36*
X5728D02*
X5662D01*
Y9497D01*
X5728D01*
Y9569D01*
D02*
G37*
G36*
X13921Y9471D02*
X13856D01*
Y9399D01*
X13921D01*
Y9471D01*
D02*
G37*
G36*
X13830D02*
X13765D01*
Y9399D01*
X13830D01*
Y9471D01*
D02*
G37*
G36*
X14346D02*
X14281D01*
Y9399D01*
X14346D01*
Y9471D01*
D02*
G37*
G36*
X14255D02*
X14190D01*
Y9399D01*
X14255D01*
Y9471D01*
D02*
G37*
G36*
X13830Y9569D02*
X13765D01*
Y9497D01*
X13830D01*
Y9569D01*
D02*
G37*
G36*
X12226D02*
X12161D01*
Y9497D01*
X12226D01*
Y9569D01*
D02*
G37*
G36*
X11891D02*
X11826D01*
Y9497D01*
X11891D01*
Y9569D01*
D02*
G37*
G36*
X10307D02*
X10242D01*
Y9497D01*
X10307D01*
Y9569D01*
D02*
G37*
G36*
X14255D02*
X14190D01*
Y9497D01*
X14255D01*
Y9569D01*
D02*
G37*
G36*
X9792D02*
X9726D01*
Y9497D01*
X9792D01*
Y9569D01*
D02*
G37*
G36*
X11801D02*
X11736D01*
Y9497D01*
X11801D01*
Y9569D01*
D02*
G37*
G36*
X10217D02*
X10151D01*
Y9497D01*
X10217D01*
Y9569D01*
D02*
G37*
G36*
X7843Y9471D02*
X7777D01*
Y9399D01*
X7843D01*
Y9471D01*
D02*
G37*
G36*
X7752D02*
X7687D01*
Y9399D01*
X7752D01*
Y9471D01*
D02*
G37*
G36*
X8268D02*
X8202D01*
Y9399D01*
X8268D01*
Y9471D01*
D02*
G37*
G36*
X8177D02*
X8112D01*
Y9399D01*
X8177D01*
Y9471D01*
D02*
G37*
G36*
X5818D02*
X5753D01*
Y9399D01*
X5818D01*
Y9471D01*
D02*
G37*
G36*
X5728D02*
X5662D01*
Y9399D01*
X5728D01*
Y9471D01*
D02*
G37*
G36*
X6243D02*
X6178D01*
Y9399D01*
X6243D01*
Y9471D01*
D02*
G37*
G36*
X6153D02*
X6087D01*
Y9399D01*
X6153D01*
Y9471D01*
D02*
G37*
G36*
X11891D02*
X11826D01*
Y9399D01*
X11891D01*
Y9471D01*
D02*
G37*
G36*
X11801D02*
X11736D01*
Y9399D01*
X11801D01*
Y9471D01*
D02*
G37*
G36*
X12316D02*
X12251D01*
Y9399D01*
X12316D01*
Y9471D01*
D02*
G37*
G36*
X12226D02*
X12161D01*
Y9399D01*
X12226D01*
Y9471D01*
D02*
G37*
G36*
X9882D02*
X9817D01*
Y9399D01*
X9882D01*
Y9471D01*
D02*
G37*
G36*
X9792D02*
X9726D01*
Y9399D01*
X9792D01*
Y9471D01*
D02*
G37*
G36*
X10307D02*
X10242D01*
Y9399D01*
X10307D01*
Y9471D01*
D02*
G37*
G36*
X10217D02*
X10151D01*
Y9399D01*
X10217D01*
Y9471D01*
D02*
G37*
G36*
X13928Y2876D02*
X13856D01*
Y2811D01*
X13928D01*
Y2876D01*
D02*
G37*
G36*
X4432Y3243D02*
X4383Y3238D01*
X4335Y3224D01*
X4292Y3200D01*
X4253Y3169D01*
X4222Y3131D01*
X4199Y3087D01*
X4184Y3040D01*
X4179Y2990D01*
X4184Y2941D01*
X4199Y2894D01*
X4222Y2850D01*
X4253Y2812D01*
X4292Y2781D01*
X4335Y2757D01*
X4383Y2743D01*
X4432Y2738D01*
X4481Y2743D01*
X4528Y2757D01*
X4572Y2781D01*
X4610Y2812D01*
X4642Y2850D01*
X4665Y2894D01*
X4680Y2941D01*
X4684Y2990D01*
X4680Y3040D01*
X4665Y3087D01*
X4642Y3131D01*
X4610Y3169D01*
X4572Y3200D01*
X4528Y3224D01*
X4481Y3238D01*
X4432Y3243D01*
D02*
G37*
G36*
X14131Y2876D02*
X14068D01*
Y2813D01*
X14075Y2814D01*
X14094Y2822D01*
X14110Y2834D01*
X14122Y2850D01*
X14130Y2869D01*
X14131Y2876D01*
D02*
G37*
G36*
X14043D02*
X13980D01*
X13981Y2869D01*
X13989Y2850D01*
X14001Y2834D01*
X14017Y2822D01*
X14035Y2814D01*
X14043Y2813D01*
Y2876D01*
D02*
G37*
G36*
X14068Y2964D02*
Y2901D01*
X14131D01*
X14130Y2908D01*
X14122Y2927D01*
X14110Y2943D01*
X14094Y2955D01*
X14075Y2963D01*
X14068Y2964D01*
D02*
G37*
G36*
X14043D02*
X14035Y2963D01*
X14017Y2955D01*
X14001Y2943D01*
X13989Y2927D01*
X13981Y2908D01*
X13980Y2901D01*
X14043D01*
Y2964D01*
D02*
G37*
G36*
X13928Y2967D02*
X13856D01*
Y2901D01*
X13928D01*
Y2967D01*
D02*
G37*
G36*
X13830D02*
X13757D01*
Y2901D01*
X13830D01*
Y2967D01*
D02*
G37*
G36*
X4427Y10972D02*
X4362D01*
Y10900D01*
X4427D01*
Y10972D01*
D02*
G37*
G36*
X15666Y11072D02*
X15601D01*
Y10999D01*
X15666D01*
Y11072D01*
D02*
G37*
G36*
Y10973D02*
X15601D01*
Y10901D01*
X15666D01*
Y10973D01*
D02*
G37*
G36*
X4427Y11071D02*
X4362D01*
Y10998D01*
X4427D01*
Y11071D01*
D02*
G37*
G36*
X15728Y9966D02*
X15608D01*
X15548Y9906D01*
Y9786D01*
X15608Y9725D01*
X15728D01*
X15789Y9786D01*
Y9906D01*
X15728Y9966D01*
D02*
G37*
G36*
Y10677D02*
X15608D01*
X15548Y10617D01*
Y10497D01*
X15608Y10437D01*
X15728D01*
X15789Y10497D01*
Y10617D01*
X15728Y10677D01*
D02*
G37*
G36*
Y10322D02*
X15608D01*
X15548Y10261D01*
Y10141D01*
X15608Y10081D01*
X15728D01*
X15789Y10141D01*
Y10261D01*
X15728Y10322D01*
D02*
G37*
G36*
X12764Y12957D02*
X12676D01*
Y12869D01*
X12764D01*
Y12957D01*
D02*
G37*
G36*
X12651D02*
X12563D01*
Y12869D01*
X12651D01*
Y12957D01*
D02*
G37*
G36*
X13038D02*
X12950D01*
Y12869D01*
X13038D01*
Y12957D01*
D02*
G37*
G36*
X12925D02*
X12837D01*
Y12869D01*
X12925D01*
Y12957D01*
D02*
G37*
G36*
X12489Y12954D02*
X12401D01*
Y12866D01*
X12489D01*
Y12954D01*
D02*
G37*
G36*
X12375D02*
X12288D01*
Y12866D01*
X12375D01*
Y12954D01*
D02*
G37*
G36*
X12215Y12957D02*
X12128D01*
Y12869D01*
X12215D01*
Y12957D01*
D02*
G37*
G36*
X12102D02*
X12014D01*
Y12869D01*
X12102D01*
Y12957D01*
D02*
G37*
G36*
X12215Y13070D02*
X12128D01*
Y12982D01*
X12215D01*
Y13070D01*
D02*
G37*
G36*
X12651D02*
X12563D01*
Y12982D01*
X12651D01*
Y13070D01*
D02*
G37*
G36*
X12764D02*
X12676D01*
Y12982D01*
X12764D01*
Y13070D01*
D02*
G37*
G36*
X13038D02*
X12950D01*
Y12982D01*
X13038D01*
Y13070D01*
D02*
G37*
G36*
X12489Y13067D02*
X12401D01*
Y12980D01*
X12489D01*
Y13067D01*
D02*
G37*
G36*
X12375D02*
X12288D01*
Y12980D01*
X12375D01*
Y13067D01*
D02*
G37*
G36*
X12925Y13070D02*
X12837D01*
Y12982D01*
X12925D01*
Y13070D01*
D02*
G37*
G36*
X12102D02*
X12014D01*
Y12982D01*
X12102D01*
Y13070D01*
D02*
G37*
G36*
X5739Y12552D02*
X5618D01*
X5558Y12492D01*
Y12371D01*
X5618Y12311D01*
X5739D01*
X5799Y12371D01*
Y12492D01*
X5739Y12552D01*
D02*
G37*
G36*
X5741Y12201D02*
X5691D01*
Y12088D01*
X5804D01*
Y12138D01*
X5741Y12201D01*
D02*
G37*
G36*
X5666D02*
X5616D01*
X5553Y12138D01*
Y12088D01*
X5666D01*
Y12201D01*
D02*
G37*
G36*
Y12063D02*
X5553D01*
Y12013D01*
X5616Y11950D01*
X5666D01*
Y12063D01*
D02*
G37*
G36*
X15569Y13064D02*
X15520Y13059D01*
X15473Y13045D01*
X15429Y13022D01*
X15391Y12990D01*
X15360Y12952D01*
X15337Y12909D01*
X15323Y12862D01*
X15318Y12813D01*
X15323Y12764D01*
X15337Y12717D01*
X15360Y12674D01*
X15391Y12636D01*
X15429Y12605D01*
X15473Y12581D01*
X15520Y12567D01*
X15569Y12562D01*
X15618Y12567D01*
X15665Y12581D01*
X15708Y12605D01*
X15746Y12636D01*
X15777Y12674D01*
X15800Y12717D01*
X15815Y12764D01*
X15819Y12813D01*
X15815Y12862D01*
X15800Y12909D01*
X15777Y12952D01*
X15746Y12990D01*
X15708Y13022D01*
X15665Y13045D01*
X15618Y13059D01*
X15569Y13064D01*
D02*
G37*
G36*
X15124Y13078D02*
X14891D01*
X14878Y13076D01*
X14867Y13068D01*
X14753Y12954D01*
X14745Y12943D01*
X14743Y12930D01*
Y12694D01*
X14745Y12681D01*
X14753Y12670D01*
X14872Y12551D01*
X14883Y12544D01*
X14896Y12541D01*
X15119D01*
X15132Y12544D01*
X15143Y12551D01*
X15262Y12670D01*
X15270Y12681D01*
X15272Y12694D01*
Y12930D01*
X15270Y12943D01*
X15262Y12954D01*
X15148Y13068D01*
X15137Y13076D01*
X15124Y13078D01*
D02*
G37*
G36*
X5739Y12907D02*
X5618D01*
X5558Y12847D01*
Y12727D01*
X5618Y12667D01*
X5739D01*
X5799Y12727D01*
Y12847D01*
X5739Y12907D01*
D02*
G37*
G36*
X4439Y13063D02*
X4391Y13058D01*
X4344Y13044D01*
X4301Y13021D01*
X4263Y12990D01*
X4232Y12952D01*
X4209Y12909D01*
X4195Y12862D01*
X4190Y12813D01*
X4195Y12764D01*
X4209Y12718D01*
X4232Y12674D01*
X4263Y12637D01*
X4301Y12605D01*
X4344Y12582D01*
X4391Y12568D01*
X4439Y12563D01*
X4488Y12568D01*
X4535Y12582D01*
X4578Y12605D01*
X4616Y12637D01*
X4647Y12674D01*
X4670Y12718D01*
X4684Y12764D01*
X4689Y12813D01*
X4684Y12862D01*
X4670Y12909D01*
X4647Y12952D01*
X4616Y12990D01*
X4578Y13021D01*
X4535Y13044D01*
X4488Y13058D01*
X4439Y13063D01*
D02*
G37*
G36*
X5115Y13078D02*
X4881D01*
X4868Y13076D01*
X4857Y13068D01*
X4743Y12954D01*
X4735Y12943D01*
X4733Y12930D01*
Y12694D01*
X4735Y12681D01*
X4743Y12670D01*
X4862Y12551D01*
X4873Y12544D01*
X4886Y12541D01*
X5109D01*
X5122Y12544D01*
X5133Y12551D01*
X5253Y12670D01*
X5260Y12681D01*
X5263Y12694D01*
Y12930D01*
X5260Y12943D01*
X5253Y12954D01*
X5138Y13068D01*
X5127Y13076D01*
X5115Y13078D01*
D02*
G37*
G36*
X13237Y11137D02*
X13171D01*
Y11064D01*
X13237D01*
Y11137D01*
D02*
G37*
G36*
X13146D02*
X13081D01*
Y11064D01*
X13146D01*
Y11137D01*
D02*
G37*
G36*
Y11038D02*
X13081D01*
Y10966D01*
X13146D01*
Y11038D01*
D02*
G37*
G36*
X13237D02*
X13171D01*
Y10966D01*
X13237D01*
Y11038D01*
D02*
G37*
%LPD*%
D10*
X13843Y3375D02*
D03*
Y3565D02*
D03*
X11813Y3375D02*
D03*
Y3565D02*
D03*
X9804Y3375D02*
D03*
Y3565D02*
D03*
X7765Y3375D02*
D03*
Y3565D02*
D03*
X5733Y3375D02*
D03*
Y3565D02*
D03*
X13838Y5428D02*
D03*
Y5618D02*
D03*
X11813Y5428D02*
D03*
Y5618D02*
D03*
X9804Y5428D02*
D03*
Y5618D02*
D03*
X7765Y5428D02*
D03*
Y5618D02*
D03*
X13843Y7424D02*
D03*
Y7614D02*
D03*
X11813Y7424D02*
D03*
Y7614D02*
D03*
X9804Y7424D02*
D03*
Y7614D02*
D03*
X7765Y7424D02*
D03*
Y7614D02*
D03*
X14268Y3565D02*
D03*
Y3375D02*
D03*
X12238Y3565D02*
D03*
Y3375D02*
D03*
X10229Y3565D02*
D03*
Y3375D02*
D03*
X8190Y3565D02*
D03*
Y3375D02*
D03*
X6165Y3565D02*
D03*
Y3375D02*
D03*
X14268Y5618D02*
D03*
Y5428D02*
D03*
X12238Y5618D02*
D03*
Y5428D02*
D03*
X10229Y5618D02*
D03*
Y5428D02*
D03*
X8190Y5618D02*
D03*
Y5428D02*
D03*
X6165Y5618D02*
D03*
Y5428D02*
D03*
X14268Y7614D02*
D03*
Y7424D02*
D03*
X12238Y7614D02*
D03*
Y7424D02*
D03*
X10229Y7614D02*
D03*
Y7424D02*
D03*
X8190Y7614D02*
D03*
Y7424D02*
D03*
X6165Y7614D02*
D03*
Y7424D02*
D03*
X14268Y9484D02*
D03*
Y9674D02*
D03*
X12238Y9484D02*
D03*
Y9674D02*
D03*
X10229Y9484D02*
D03*
Y9674D02*
D03*
X8190Y9484D02*
D03*
Y9674D02*
D03*
X6165Y9484D02*
D03*
Y9674D02*
D03*
X10019Y2790D02*
D03*
Y2980D02*
D03*
X6981Y3434D02*
D03*
Y3624D02*
D03*
X13052Y3434D02*
D03*
Y3624D02*
D03*
X4439Y11175D02*
D03*
Y10985D02*
D03*
X15588Y11176D02*
D03*
Y10986D02*
D03*
X15020Y3980D02*
D03*
Y4170D02*
D03*
Y5986D02*
D03*
Y6176D02*
D03*
X15020Y8044D02*
D03*
Y8234D02*
D03*
Y10071D02*
D03*
Y10261D02*
D03*
X5740Y5618D02*
D03*
Y5428D02*
D03*
Y7614D02*
D03*
Y7424D02*
D03*
X13843Y9674D02*
D03*
Y9484D02*
D03*
X11813Y9674D02*
D03*
Y9484D02*
D03*
X9804Y9674D02*
D03*
Y9484D02*
D03*
X7765Y9674D02*
D03*
Y9484D02*
D03*
X5740Y9674D02*
D03*
Y9484D02*
D03*
X13159Y11051D02*
D03*
Y11241D02*
D03*
X12747Y11051D02*
D03*
Y11241D02*
D03*
X12248Y11051D02*
D03*
Y11241D02*
D03*
X12938Y12258D02*
D03*
Y12448D02*
D03*
X12663Y12258D02*
D03*
Y12448D02*
D03*
X12388Y12255D02*
D03*
Y12445D02*
D03*
X12115Y12255D02*
D03*
Y12445D02*
D03*
D11*
X13652Y10961D02*
D03*
X13462D02*
D03*
X13653Y2889D02*
D03*
X13843D02*
D03*
X14160Y10961D02*
D03*
X13970D02*
D03*
X14666D02*
D03*
X14476D02*
D03*
X7564Y2978D02*
D03*
X7754D02*
D03*
X9078Y10882D02*
D03*
X8888D02*
D03*
X8888Y10653D02*
D03*
X9078D02*
D03*
X12406Y11842D02*
D03*
X12596D02*
D03*
D12*
X13462Y11264D02*
D03*
X13652D02*
D03*
X13557Y11484D02*
D03*
X13970Y11264D02*
D03*
X14160D02*
D03*
X14065Y11484D02*
D03*
X14476Y11264D02*
D03*
X14666D02*
D03*
X14571Y11484D02*
D03*
X15115Y3442D02*
D03*
X15020Y3662D02*
D03*
X15210D02*
D03*
X15115Y5448D02*
D03*
X15020Y5668D02*
D03*
X15210D02*
D03*
X15115Y7506D02*
D03*
X15020Y7726D02*
D03*
X15210D02*
D03*
X15115Y9538D02*
D03*
X15020Y9758D02*
D03*
X15210D02*
D03*
D13*
X15588Y12009D02*
D03*
Y12169D02*
D03*
Y11849D02*
D03*
X15088D02*
D03*
Y12009D02*
D03*
Y12169D02*
D03*
X4439Y12010D02*
D03*
Y11850D02*
D03*
Y12170D02*
D03*
X4939D02*
D03*
Y12010D02*
D03*
Y11850D02*
D03*
X7234Y3036D02*
D03*
Y3196D02*
D03*
Y2876D02*
D03*
X6734D02*
D03*
Y3036D02*
D03*
Y3196D02*
D03*
X12756Y3049D02*
D03*
Y2889D02*
D03*
Y3209D02*
D03*
X13256D02*
D03*
Y3049D02*
D03*
Y2889D02*
D03*
D14*
X9373Y12222D02*
D03*
Y12142D02*
D03*
X9373Y12062D02*
D03*
Y11982D02*
D03*
X9373Y11902D02*
D03*
Y11822D02*
D03*
Y11742D02*
D03*
Y11662D02*
D03*
X9373Y11582D02*
D03*
Y11502D02*
D03*
Y11422D02*
D03*
X8233Y11422D02*
D03*
X8233Y11502D02*
D03*
Y11582D02*
D03*
X8233Y11662D02*
D03*
X8233Y11742D02*
D03*
Y11822D02*
D03*
Y11902D02*
D03*
Y11982D02*
D03*
X8233Y12062D02*
D03*
Y12142D02*
D03*
Y12222D02*
D03*
X11798Y12222D02*
D03*
Y12142D02*
D03*
X11798Y12062D02*
D03*
Y11982D02*
D03*
X11798Y11902D02*
D03*
Y11822D02*
D03*
Y11742D02*
D03*
Y11662D02*
D03*
X11798Y11582D02*
D03*
Y11502D02*
D03*
Y11422D02*
D03*
X10658Y11422D02*
D03*
X10658Y11502D02*
D03*
Y11582D02*
D03*
X10658Y11662D02*
D03*
X10658Y11742D02*
D03*
Y11822D02*
D03*
Y11902D02*
D03*
Y11982D02*
D03*
X10658Y12062D02*
D03*
Y12142D02*
D03*
Y12222D02*
D03*
D15*
X9203Y11252D02*
D03*
X9123Y11252D02*
D03*
X9043D02*
D03*
X8963Y11252D02*
D03*
X8883D02*
D03*
X8803D02*
D03*
X8723D02*
D03*
X8643Y11252D02*
D03*
X8563Y11252D02*
D03*
X8483Y11252D02*
D03*
X8403Y11252D02*
D03*
Y12392D02*
D03*
X8483D02*
D03*
X8563D02*
D03*
X8643Y12392D02*
D03*
X8723Y12392D02*
D03*
X8803D02*
D03*
X8883D02*
D03*
X8963D02*
D03*
X9043Y12392D02*
D03*
X9123D02*
D03*
X9203D02*
D03*
X11628Y11252D02*
D03*
X11548Y11252D02*
D03*
X11468D02*
D03*
X11388Y11252D02*
D03*
X11308D02*
D03*
X11228D02*
D03*
X11148D02*
D03*
X11068Y11252D02*
D03*
X10988Y11252D02*
D03*
X10908Y11252D02*
D03*
X10828Y11252D02*
D03*
Y12392D02*
D03*
X10908D02*
D03*
X10988D02*
D03*
X11068Y12392D02*
D03*
X11148Y12392D02*
D03*
X11228D02*
D03*
X11308D02*
D03*
X11388D02*
D03*
X11468Y12392D02*
D03*
X11548D02*
D03*
X11628D02*
D03*
D16*
X12748Y11553D02*
D03*
X12248D02*
D03*
D17*
X12938Y12619D02*
D03*
Y12969D02*
D03*
X12663Y12619D02*
D03*
Y12969D02*
D03*
X12388Y12617D02*
D03*
Y12967D02*
D03*
X12115Y12619D02*
D03*
Y12969D02*
D03*
D18*
X5740Y9979D02*
D03*
Y10159D02*
D03*
X6165Y9979D02*
D03*
Y10159D02*
D03*
X8190D02*
D03*
Y9979D02*
D03*
X7765Y10159D02*
D03*
Y9979D02*
D03*
X9804D02*
D03*
Y10159D02*
D03*
X10229Y9979D02*
D03*
Y10159D02*
D03*
X12238D02*
D03*
Y9979D02*
D03*
X11813Y10159D02*
D03*
Y9979D02*
D03*
X13843D02*
D03*
Y10159D02*
D03*
X14268Y9979D02*
D03*
Y10159D02*
D03*
X6165Y8099D02*
D03*
Y7919D02*
D03*
X5740Y8099D02*
D03*
Y7919D02*
D03*
X7765D02*
D03*
Y8099D02*
D03*
X8190Y7919D02*
D03*
Y8099D02*
D03*
X10229D02*
D03*
Y7919D02*
D03*
X9804Y8099D02*
D03*
Y7919D02*
D03*
X11813D02*
D03*
Y8099D02*
D03*
X12238Y7919D02*
D03*
Y8099D02*
D03*
X14268D02*
D03*
Y7919D02*
D03*
X13843Y8099D02*
D03*
Y7919D02*
D03*
X5740Y5897D02*
D03*
Y6077D02*
D03*
X6165Y5897D02*
D03*
Y6077D02*
D03*
X8190D02*
D03*
Y5897D02*
D03*
X7765Y6077D02*
D03*
Y5897D02*
D03*
X9804D02*
D03*
Y6077D02*
D03*
X10229Y5897D02*
D03*
Y6077D02*
D03*
X12238D02*
D03*
Y5897D02*
D03*
X11813Y6077D02*
D03*
Y5897D02*
D03*
X13843D02*
D03*
Y6077D02*
D03*
X14268Y5897D02*
D03*
Y6077D02*
D03*
X6165Y4050D02*
D03*
Y3870D02*
D03*
X5740Y4050D02*
D03*
Y3870D02*
D03*
X7765D02*
D03*
Y4050D02*
D03*
X8190Y3870D02*
D03*
Y4050D02*
D03*
X10229D02*
D03*
Y3870D02*
D03*
X9804Y4050D02*
D03*
Y3870D02*
D03*
X11813D02*
D03*
Y4050D02*
D03*
X12238Y3870D02*
D03*
Y4050D02*
D03*
X14268D02*
D03*
Y3870D02*
D03*
X13843Y4050D02*
D03*
Y3870D02*
D03*
D19*
X13256Y3209D02*
X14403D01*
X14510Y3315D01*
X13626Y12076D02*
X13916D01*
X13464Y11913D02*
X13626Y12076D01*
X13245Y11913D02*
X13464D01*
X13100Y2904D02*
Y3130D01*
X12986Y2790D02*
X13100Y2904D01*
X10020Y2790D02*
X12986D01*
X12756Y3049D02*
X12915D01*
X13052Y3186D01*
X13100Y3130D02*
X13179Y3209D01*
X13052Y3186D02*
Y3434D01*
X4650Y3912D02*
X5584Y2978D01*
X6979Y3094D02*
Y3434D01*
X6921Y3036D02*
X6979Y3094D01*
X6734Y3036D02*
X6921D01*
X4650Y3912D02*
Y11927D01*
X5559Y3143D02*
X6504D01*
X4741Y3960D02*
X5559Y3143D01*
X4741Y3960D02*
Y11828D01*
X4763Y11850D01*
X4650Y11927D02*
X4733Y12010D01*
X4939D01*
X4763Y11850D02*
X4939D01*
X4980Y5904D02*
Y10996D01*
Y5904D02*
X5704Y5180D01*
X4980Y10996D02*
X6819Y12835D01*
X8434D01*
X5049Y7051D02*
Y10945D01*
Y7051D02*
X5188Y6912D01*
X4555Y3879D02*
Y12030D01*
Y3879D02*
X5645Y2790D01*
X4555Y12030D02*
X4695Y12170D01*
X5117Y7331D02*
Y10902D01*
X5239Y7423D02*
Y10910D01*
X11798Y12222D02*
Y12613D01*
X12935Y11283D02*
X12977Y11241D01*
X13699Y11626D02*
X14241D01*
X13557Y11484D02*
X13699Y11626D01*
X14327Y11611D02*
X14576D01*
X14200Y11484D02*
X14327Y11611D01*
X14065Y11484D02*
X14200D01*
X14287Y11672D02*
X14497D01*
X14241Y11626D02*
X14287Y11672D01*
X14937Y11849D02*
X15088D01*
X14571Y11484D02*
X14937Y11849D01*
X15088D02*
X15280D01*
X13462Y11629D02*
X13525Y11692D01*
X14204D01*
X15153Y2736D02*
X15285Y2868D01*
X13805Y2736D02*
X15153D01*
X13653Y2889D02*
X13805Y2736D01*
X15285Y2868D02*
Y3153D01*
X8723Y12100D02*
Y12392D01*
X8640Y12017D02*
X8723Y12100D01*
X8640Y11741D02*
Y12017D01*
Y11741D02*
X8803Y11578D01*
Y11252D02*
Y11578D01*
X8883Y11252D02*
Y11622D01*
X8729Y11776D02*
X8883Y11622D01*
X8729Y11776D02*
Y11982D01*
X8803Y12055D01*
Y12392D01*
X14975Y12009D02*
X15051D01*
X14975D02*
X14975Y12010D01*
X14994Y12169D02*
X15088D01*
X14872Y12047D02*
X14994Y12169D01*
X14872Y12047D02*
Y12047D01*
X15088Y12169D02*
X15389D01*
X8884Y11888D02*
X9046D01*
X9220Y12062D01*
X9373D01*
X9130Y12142D02*
X9373D01*
X9008Y12020D02*
X9130Y12142D01*
X11617Y7212D02*
Y7557D01*
X11429Y7024D02*
X11617Y7212D01*
X5239Y7024D02*
X11429D01*
X13462Y11264D02*
Y11629D01*
X12248Y11241D02*
Y11603D01*
X12159Y11241D02*
X12248D01*
X12251Y11051D02*
X12747D01*
X12128Y10928D02*
X12251Y11051D01*
X11452Y10928D02*
X12128D01*
X4939Y11850D02*
X4939Y11850D01*
X15088Y12010D02*
X15088Y12009D01*
X15214Y9709D02*
Y9800D01*
X15210Y7726D02*
Y7766D01*
X15214Y9800D02*
X15252Y9838D01*
X15214Y9709D02*
X15252Y9670D01*
Y7809D02*
Y9670D01*
X15210Y7766D02*
X15252Y7809D01*
X15210Y7683D02*
X15252Y7641D01*
Y5746D02*
Y7641D01*
X15210Y5704D02*
X15252Y5746D01*
X15210Y5668D02*
Y5704D01*
X15211Y3663D02*
X15249Y3701D01*
X15210Y3662D02*
X15211Y3663D01*
Y5627D02*
Y5667D01*
Y3662D02*
Y3663D01*
Y5627D02*
X15249Y5589D01*
X15210Y5628D02*
X15211Y5627D01*
X15249Y3701D02*
Y5589D01*
X15210Y5628D02*
Y5668D01*
Y7683D02*
Y7726D01*
X15115Y7153D02*
Y7506D01*
X15210Y3662D02*
X15211D01*
X15210Y5668D02*
X15211Y5667D01*
X11586Y7059D02*
X13474D01*
X12069Y10991D02*
X12135Y11057D01*
X11485Y10991D02*
X12069D01*
X11388Y11088D02*
X11485Y10991D01*
X11308Y11071D02*
X11452Y10928D01*
X12135Y11057D02*
Y11217D01*
X12159Y11241D01*
X11995Y11055D02*
X12069Y11128D01*
X11510Y11055D02*
X11995D01*
X11388Y11088D02*
Y11252D01*
X11468Y11097D02*
X11510Y11055D01*
X11468Y11097D02*
Y11252D01*
X12934Y11099D02*
Y11198D01*
X12886Y11051D02*
X12934Y11099D01*
X12747Y11051D02*
X12886D01*
X12934Y11198D02*
X12977Y11241D01*
X13159D01*
X11266Y10684D02*
X14199D01*
X10988Y10962D02*
X11266Y10684D01*
X10988Y10962D02*
Y11252D01*
X11305Y10747D02*
X13757D01*
X11068Y10984D02*
X11305Y10747D01*
X11068Y10984D02*
Y11252D01*
X11350Y10811D02*
X13312D01*
X11148Y11013D02*
X11350Y10811D01*
X11148Y11013D02*
Y11252D01*
X13312Y10811D02*
X13462Y10961D01*
X13757Y10747D02*
X13970Y10961D01*
X14199Y10684D02*
X14476Y10961D01*
X14718Y10562D02*
X15020Y10261D01*
X10205Y10562D02*
X14718D01*
X9963Y10804D02*
X10205Y10562D01*
X14683Y10498D02*
X14838Y10344D01*
X10179Y10498D02*
X14683D01*
X14838Y8416D02*
Y10344D01*
X14645Y10435D02*
X14769Y10310D01*
X10149Y10435D02*
X14645D01*
X14769Y6427D02*
Y10310D01*
X14599Y10369D02*
X14703Y10265D01*
X10123Y10369D02*
X14599D01*
X9775Y10717D02*
X10123Y10369D01*
X14703Y4486D02*
Y10265D01*
X7784Y12434D02*
X7942Y12276D01*
Y12076D02*
Y12276D01*
Y12076D02*
X8036Y11982D01*
X7672Y12292D02*
X7848Y12116D01*
X9948Y12503D02*
X10121Y12675D01*
X9948Y12002D02*
Y12503D01*
Y12002D02*
X10164Y11786D01*
X9963Y10804D02*
Y11888D01*
X9373Y11982D02*
X9687D01*
X9775Y10717D02*
Y11801D01*
X9675Y11902D02*
X9775Y11801D01*
X9373Y11902D02*
X9675D01*
X9186Y12703D02*
X9684D01*
X10332Y12294D02*
X10456Y12170D01*
Y11936D02*
Y12170D01*
Y11936D02*
X10490Y11902D01*
X9209Y12632D02*
X9641D01*
X14424Y3049D02*
X14629Y3254D01*
X8563Y12392D02*
Y12595D01*
X8483Y12392D02*
Y12574D01*
X8643Y12392D02*
Y12627D01*
X8434Y12835D02*
X8643Y12627D01*
X9373Y12222D02*
X9374Y12221D01*
X9598D01*
X9203Y12392D02*
X9204Y12391D01*
X9694D01*
X9556Y11582D02*
X9605Y11532D01*
X9123Y12546D02*
X9209Y12632D01*
X9123Y12392D02*
Y12546D01*
X9043Y12560D02*
X9186Y12703D01*
X9158Y12774D02*
X11449D01*
X8963Y12579D02*
X9158Y12774D01*
X8963Y12392D02*
Y12579D01*
X8883Y12392D02*
Y12603D01*
X13256Y3049D02*
X14424D01*
X11449Y12774D02*
X11628Y12595D01*
X9563Y11742D02*
X9610Y11789D01*
X9373Y11742D02*
X9563D01*
X9373Y11582D02*
X9556D01*
X5389Y7423D02*
Y10951D01*
X9562Y7298D02*
Y7511D01*
X5389Y10951D02*
X6933Y12495D01*
X5639Y9979D02*
X5740D01*
X13474Y7059D02*
X13634Y7219D01*
X9562Y7511D02*
X9664Y7613D01*
X11617Y7557D02*
X11674Y7614D01*
X11813D01*
Y7919D02*
X11813Y7919D01*
X11813Y7614D02*
Y7919D01*
X10333Y7919D02*
X10383Y7969D01*
Y8141D01*
X10229Y7919D02*
X10333D01*
X10383Y8141D02*
X10438Y8197D01*
X11573D01*
X11671Y8099D02*
X11813D01*
X11573Y8197D02*
X11671Y8099D01*
X8343Y8141D02*
X8399Y8197D01*
X9564D01*
X8072Y8099D02*
X8190D01*
X8018Y8045D02*
X8072Y8099D01*
X9662D02*
X9804D01*
X9564Y8197D02*
X9662Y8099D01*
X8775Y9277D02*
X11033D01*
X11432Y9175D02*
X11564Y9307D01*
X8775Y9175D02*
X11432D01*
X8607Y9343D02*
X8775Y9175D01*
X10383Y10201D02*
X10438Y10257D01*
X11573D01*
X11671Y10159D02*
X11813D01*
X11573Y10257D02*
X11671Y10159D01*
X13843Y9674D02*
X13843Y9674D01*
Y9979D01*
X13618Y9675D02*
X13841D01*
X13843Y9674D01*
X9514Y9388D02*
X9565Y9439D01*
X9123Y9388D02*
X9514D01*
X8970D02*
Y10300D01*
X15115Y9109D02*
Y9538D01*
X12498Y9112D02*
X14421D01*
Y9930D01*
X14372Y9979D02*
X14421Y9930D01*
X12392Y9218D02*
X12498Y9112D01*
X12392Y9218D02*
Y9930D01*
X12285Y9112D02*
X12392Y9218D01*
X10107Y9674D02*
X10229D01*
X10057Y9724D02*
X10107Y9674D01*
X8419Y9112D02*
X12285D01*
X8343Y9188D02*
X8419Y9112D01*
X6395D02*
X8267D01*
X6319Y9188D02*
X6395Y9112D01*
X6319Y9188D02*
Y9930D01*
X8343Y9188D02*
Y9930D01*
X8267Y9112D02*
X8343Y9188D01*
X8294Y9979D02*
X8343Y9930D01*
X6269Y9979D02*
X6319Y9930D01*
X8701Y9350D02*
X8775Y9277D01*
X8607Y9343D02*
Y10351D01*
X8701Y9350D02*
Y10364D01*
X9565Y9439D02*
Y9622D01*
X8498Y9388D02*
Y10224D01*
X8818Y9388D02*
Y10349D01*
X8233Y10489D02*
X8498Y10224D01*
X8233Y10489D02*
Y11422D01*
X8483Y10476D02*
X8607Y10351D01*
X8483Y10476D02*
Y11252D01*
X8563Y10502D02*
X8701Y10364D01*
X8563Y10502D02*
Y11252D01*
X8643Y10524D02*
X8818Y10349D01*
X8643Y10524D02*
Y11252D01*
X8723Y10548D02*
X8970Y10300D01*
X8723Y10548D02*
Y11252D01*
X8018Y10105D02*
X8072Y10159D01*
X8018Y9724D02*
Y10105D01*
Y9724D02*
X8068Y9674D01*
X12342Y9979D02*
X12392Y9930D01*
Y4093D02*
X12448Y4148D01*
X13602D01*
X10383Y4093D02*
X10438Y4148D01*
X11573D01*
X8343Y4093D02*
X8399Y4148D01*
X9564D01*
X6319Y4093D02*
X6374Y4148D01*
X7524D01*
X7622Y4050D02*
X7765D01*
X7524Y4148D02*
X7622Y4050D01*
X13700D02*
X13843D01*
X13602Y4148D02*
X13700Y4050D01*
X11671D02*
X11813D01*
X11573Y4148D02*
X11671Y4050D01*
X9662D02*
X9804D01*
X9564Y4148D02*
X9662Y4050D01*
X14496Y3442D02*
X15115D01*
X14433Y3504D02*
X14496Y3442D01*
X14433Y3504D02*
Y3809D01*
X14372Y3870D02*
X14433Y3809D01*
X12524Y5121D02*
X14421D01*
X12392Y5253D02*
X12524Y5121D01*
X12392Y5253D02*
Y5848D01*
X10383Y5314D02*
Y5848D01*
X12260Y5121D02*
X12392Y5253D01*
X10576Y5121D02*
X12260D01*
X10383Y5314D02*
X10576Y5121D01*
X14372Y7919D02*
X14421Y7870D01*
Y7153D02*
Y7870D01*
Y5121D02*
Y5848D01*
X14372Y5897D02*
X14421Y5848D01*
X12342Y5897D02*
X12392Y5848D01*
X10333Y5897D02*
X10383Y5848D01*
X15115Y5121D02*
Y5448D01*
X8343Y6119D02*
X8399Y6175D01*
X9564D01*
X9662Y6077D02*
X9804D01*
X9564Y6175D02*
X9662Y6077D01*
X6319Y6119D02*
X6374Y6175D01*
X7524D01*
X7622Y6077D02*
X7765D01*
X7524Y6175D02*
X7622Y6077D01*
X12392Y8141D02*
X12448Y8197D01*
X13602D01*
X13700Y8099D02*
X13843D01*
X13602Y8197D02*
X13700Y8099D01*
X6319Y8141D02*
X6374Y8197D01*
X7524D01*
X7622Y8099D02*
X7765D01*
X7524Y8197D02*
X7622Y8099D01*
X6263Y10257D02*
X6319Y10201D01*
X5981Y10257D02*
X6263D01*
X11628Y12392D02*
Y12595D01*
X8030Y12127D02*
Y12348D01*
X6981Y12434D02*
X7784D01*
X4939Y12010D02*
X5126D01*
X13256Y2889D02*
X13653D01*
X8036Y11502D02*
X8233D01*
X7848Y11631D02*
X7958Y11742D01*
X7848Y11339D02*
Y11631D01*
X7784Y11276D02*
X7848Y11339D01*
X8036Y11982D02*
X8233D01*
X8803Y12675D02*
X8803Y12675D01*
Y12392D02*
Y12675D01*
X5704Y5180D02*
X7434D01*
X6684Y5060D02*
X9452D01*
X13835Y3870D02*
X13843D01*
X13643D02*
X13835D01*
X11806D02*
X11813D01*
X11598D02*
X11806D01*
X9797D02*
X9804D01*
X9604D02*
X9797D01*
X5733D02*
X5740D01*
X5533D02*
X5733D01*
X7554D02*
X7765D01*
X7390Y2978D02*
X7564D01*
X7234Y2876D02*
Y3036D01*
X5584Y2978D02*
X6552D01*
X10019Y2790D02*
X10020Y2790D01*
X4695Y12170D02*
X4939D01*
X4439Y12010D02*
Y12170D01*
Y11850D02*
Y12010D01*
Y11175D02*
Y11850D01*
X5740Y5618D02*
Y5897D01*
X5560Y5618D02*
X5740D01*
X5559Y5617D02*
X5560Y5618D01*
X6043Y9674D02*
X6165D01*
X5993Y9724D02*
X6043Y9674D01*
X5993Y9724D02*
Y10105D01*
X6048Y10159D01*
X6165D01*
Y9979D02*
X6269D01*
X6319Y10029D01*
Y10201D01*
X5883Y10159D02*
X5981Y10257D01*
X5740Y10159D02*
X5883D01*
X5740Y9674D02*
Y9979D01*
Y7614D02*
X5873D01*
X6043Y7614D02*
X6165D01*
X5993Y7664D02*
X6043Y7614D01*
X5993Y7664D02*
Y8045D01*
X6048Y8099D01*
X6165D01*
Y7919D02*
X6269D01*
X6319Y7969D01*
Y8141D01*
X6263Y8197D02*
X6319Y8141D01*
X5981Y8197D02*
X6263D01*
X5883Y8099D02*
X5981Y8197D01*
X5740Y8099D02*
X5883D01*
X5740Y7614D02*
Y7919D01*
X5993Y5642D02*
X6043Y5592D01*
X5993Y5642D02*
Y6023D01*
X6048Y6077D01*
X6165D01*
Y5897D02*
X6269D01*
X6319Y5947D01*
Y6119D01*
X6263Y6175D02*
X6319Y6119D01*
X5981Y6175D02*
X6263D01*
X5883Y6077D02*
X5981Y6175D01*
X5740Y6077D02*
X5883D01*
X7649Y9979D02*
X7765D01*
X8068Y9674D02*
X8190D01*
X8072Y10159D02*
X8190D01*
Y9979D02*
X8294D01*
X8005Y10257D02*
X8287D01*
X7907Y10159D02*
X8005Y10257D01*
X7765Y10159D02*
X7907D01*
X7765Y9674D02*
Y9979D01*
Y7614D02*
X7915D01*
X8068Y3565D02*
X8190D01*
X8018Y3615D02*
X8068Y3565D01*
X8018Y3615D02*
Y3996D01*
X8072Y4050D01*
X8190D01*
Y3870D02*
X8294D01*
X8343Y3920D01*
Y4093D01*
X8287Y4148D02*
X8343Y4093D01*
X8005Y4148D02*
X8287D01*
X7907Y4050D02*
X8005Y4148D01*
X7765Y4050D02*
X7907D01*
X7765Y3565D02*
Y3870D01*
X8018Y5642D02*
X8068Y5592D01*
X8018Y5642D02*
Y6023D01*
X8072Y6077D01*
X8190D01*
Y5897D02*
X8294D01*
X8343Y5947D01*
Y6119D01*
X8287Y6175D02*
X8343Y6119D01*
X8005Y6175D02*
X8287D01*
X7907Y6077D02*
X8005Y6175D01*
X7765Y6077D02*
X7907D01*
X7765Y7614D02*
Y7919D01*
Y8099D02*
X7907D01*
X8005Y8197D01*
X8287D01*
X8343Y8141D01*
Y7969D02*
Y8141D01*
X8294Y7919D02*
X8343Y7969D01*
X8190Y7919D02*
X8294D01*
X8018Y7664D02*
Y8045D01*
Y7664D02*
X8068Y7614D01*
X8190D01*
X7607Y5618D02*
X7765D01*
X9804Y4050D02*
X9947D01*
X10045Y4148D01*
X10327D01*
X10383Y4093D01*
Y3920D02*
Y4093D01*
X10333Y3870D02*
X10383Y3920D01*
X10229Y3870D02*
X10333D01*
X10112Y4050D02*
X10229D01*
X10057Y3996D02*
X10112Y4050D01*
X10057Y3615D02*
X10107Y3565D01*
X10229D01*
X9804Y6077D02*
X9947D01*
X10045Y6175D01*
X10327D01*
X10383Y6119D01*
Y5947D02*
Y6119D01*
X10333Y5897D02*
X10383Y5947D01*
X10229Y5897D02*
X10333D01*
X10112Y6077D02*
X10229D01*
X10057Y6023D02*
X10112Y6077D01*
X10057Y5642D02*
Y6023D01*
Y5642D02*
X10107Y5592D01*
X10229D01*
X9804Y8099D02*
X9947D01*
X10045Y8197D01*
X10327D01*
X10383Y8141D01*
X10112Y8099D02*
X10229D01*
X10057Y8045D02*
X10112Y8099D01*
X10057Y7664D02*
Y8045D01*
Y7664D02*
X10107Y7614D01*
X10229D01*
X9804Y10159D02*
X9947D01*
X10045Y10257D01*
X10333Y9979D02*
X10383Y10029D01*
X10229Y9979D02*
X10333D01*
X10112Y10159D02*
X10229D01*
X10057Y10105D02*
X10112Y10159D01*
X10057Y9724D02*
Y10105D01*
X12121Y4050D02*
X12238D01*
X12067Y3996D02*
X12121Y4050D01*
X12067Y3615D02*
Y3996D01*
X11813Y6077D02*
X11956D01*
X12054Y6175D01*
X12336D01*
X12392Y6119D01*
Y5947D02*
Y6119D01*
X12342Y5897D02*
X12392Y5947D01*
X12238Y5897D02*
X12342D01*
X12121Y6077D02*
X12238D01*
X12067Y6023D02*
X12121Y6077D01*
X12116Y5592D02*
X12238D01*
X11813Y8099D02*
X11956D01*
X12054Y8197D01*
X12336D01*
X12392Y8141D01*
Y7969D02*
Y8141D01*
X12342Y7919D02*
X12392Y7969D01*
X12238Y7919D02*
X12342D01*
X12121Y8099D02*
X12238D01*
X12067Y8045D02*
X12121Y8099D01*
X12067Y7664D02*
Y8045D01*
Y7664D02*
X12116Y7614D01*
X12238D01*
X11813Y10159D02*
X11956D01*
X12054Y10257D01*
X12336D01*
X12392Y10201D01*
Y10029D02*
Y10201D01*
X12342Y9979D02*
X12392Y10029D01*
X12238Y9979D02*
X12342D01*
X12121Y10159D02*
X12238D01*
X12067Y10105D02*
X12121Y10159D01*
X12067Y9724D02*
Y10105D01*
Y9724D02*
X12116Y9674D01*
X12238D01*
X14372Y9979D02*
X14421Y10029D01*
X14268Y9979D02*
X14372D01*
X14150Y10159D02*
X14268D01*
X14096Y10105D02*
X14150Y10159D01*
X14096Y9724D02*
Y10105D01*
Y9724D02*
X14146Y9674D01*
X14268D01*
X13843Y8099D02*
X13985D01*
X14083Y8197D01*
X14365D01*
X14421Y8141D01*
Y7969D02*
Y8141D01*
X14372Y7919D02*
X14421Y7969D01*
X14268Y7919D02*
X14372D01*
X14150Y8099D02*
X14268D01*
X14096Y8045D02*
X14150Y8099D01*
X14096Y7664D02*
Y8045D01*
Y7664D02*
X14146Y7614D01*
X14268D01*
X13843Y6077D02*
X13985D01*
X14083Y6175D01*
X14365D01*
X14421Y6119D01*
Y5947D02*
Y6119D01*
X14372Y5897D02*
X14421Y5947D01*
X14268Y5897D02*
X14372D01*
X14150Y6077D02*
X14268D01*
X14096Y6023D02*
X14150Y6077D01*
X14096Y5642D02*
Y6023D01*
Y5642D02*
X14146Y5592D01*
X14268D01*
X13843Y4050D02*
X13985D01*
X14083Y4148D01*
X14365D01*
X14421Y4093D01*
Y3920D02*
Y4093D01*
X14372Y3870D02*
X14421Y3920D01*
X14268Y3870D02*
X14372D01*
X14150Y4050D02*
X14268D01*
X14096Y3996D02*
X14150Y4050D01*
X14096Y3615D02*
Y3996D01*
Y3615D02*
X14146Y3565D01*
X14268D01*
X6043D02*
X6165D01*
X5993Y3615D02*
X6043Y3565D01*
X5993Y3615D02*
Y3996D01*
X6048Y4050D01*
X6165D01*
Y3870D02*
X6269D01*
X6319Y3920D01*
Y4093D01*
X6263Y4148D02*
X6319Y4093D01*
X5981Y4148D02*
X6263D01*
X5883Y4050D02*
X5981Y4148D01*
X5740Y4050D02*
X5883D01*
X15020Y7726D02*
Y8044D01*
X9078Y10653D02*
Y10882D01*
X10319Y11278D02*
X10367Y11326D01*
X10164Y11278D02*
X10319D01*
X10367Y11326D02*
Y11687D01*
X10422Y11742D01*
X15020Y10071D02*
X15020Y10071D01*
X15020Y9758D02*
Y10071D01*
Y8044D02*
X15020Y8044D01*
X15020Y5668D02*
Y5986D01*
Y3662D02*
Y3980D01*
X15588Y12009D02*
Y12169D01*
Y11849D02*
Y12009D01*
Y11176D02*
Y11849D01*
X14160Y11264D02*
X14160Y11264D01*
X14160Y10986D02*
Y11264D01*
X13652D02*
X13652Y11264D01*
X13652Y10986D02*
Y11264D01*
X14666Y11264D02*
X14666Y11264D01*
X13179Y3209D02*
X13256D01*
X6809Y2876D02*
X6896Y2789D01*
X6734Y2876D02*
X6809D01*
X10510Y11212D02*
Y11407D01*
X7332Y3036D02*
X7390Y2978D01*
X8095Y12062D02*
X8233D01*
X8030Y12127D02*
X8095Y12062D01*
X9078Y10653D02*
X9081Y10656D01*
X7672Y12038D02*
X7888Y11822D01*
X8233D01*
X8883Y11074D02*
Y11252D01*
X7672Y11784D02*
X7698D01*
X9078Y10882D02*
X9078Y10882D01*
X8883Y11074D02*
X8930Y11027D01*
X9019D01*
X9078Y10967D01*
Y10882D02*
Y10967D01*
X8634Y12400D02*
X8643Y12392D01*
X10164Y12294D02*
X10332D01*
X10164Y12040D02*
X10304D01*
X10367Y11977D01*
X8403Y12392D02*
Y12542D01*
X7672Y11276D02*
X7784D01*
X7958Y11742D02*
X8233D01*
X7976Y11582D02*
X8233D01*
X13634Y7547D02*
X13701Y7614D01*
X6557Y3196D02*
X6734D01*
X6611Y3036D02*
X6734D01*
X6552Y2978D02*
X6611Y3036D01*
X6659Y2876D02*
X6734D01*
X6504Y3143D02*
X6557Y3196D01*
X7234Y3036D02*
X7332D01*
X7234D02*
Y3196D01*
X7562Y10067D02*
X7649Y9979D01*
X11641Y9674D02*
X11798D01*
X11564Y9597D02*
X11641Y9674D01*
X11564Y9307D02*
Y9597D01*
X7915Y7614D02*
X7982Y7547D01*
Y7425D02*
Y7547D01*
X5940Y7425D02*
Y7547D01*
X5873Y7614D02*
X5940Y7547D01*
X9565Y5551D02*
X9632Y5618D01*
X7538Y5548D02*
X7607Y5618D01*
X7538Y5284D02*
Y5548D01*
X7434Y5180D02*
X7538Y5284D01*
X9565Y9622D02*
X9616Y9674D01*
X9664Y7613D02*
X9803D01*
X13634Y7219D02*
Y7547D01*
X9565Y5173D02*
Y5551D01*
X9452Y5060D02*
X9565Y5173D01*
X11485Y6285D02*
X11574Y6196D01*
X10490Y11902D02*
X10658D01*
X10418Y11822D02*
X10658D01*
X10367Y11873D02*
X10418Y11822D01*
X10367Y11873D02*
Y11977D01*
X10422Y11742D02*
X10658D01*
X10510Y11407D02*
X10525Y11422D01*
X10658D01*
X14421Y10029D02*
Y10201D01*
X10383Y10029D02*
Y10201D01*
X13843Y10159D02*
X13985D01*
X14083Y10257D01*
X14365D01*
X14421Y10201D01*
X10045Y10257D02*
X10327D01*
X10383Y10201D01*
X14703Y4486D02*
X15020Y4170D01*
X14838Y8416D02*
X15020Y8234D01*
X14769Y6427D02*
X15020Y6176D01*
X8287Y10257D02*
X8343Y10201D01*
Y10029D02*
Y10201D01*
X8294Y9979D02*
X8343Y10029D01*
X12756Y3049D02*
Y3209D01*
Y2889D02*
Y3049D01*
X12336Y4148D02*
X12392Y4093D01*
X12054Y4148D02*
X12336D01*
X12238Y3870D02*
X12342D01*
X12392Y3920D01*
Y4093D01*
X12067Y3615D02*
X12116Y3565D01*
X12238D01*
X11956Y4050D02*
X12054Y4148D01*
X11813Y4050D02*
X11956D01*
X12067Y5642D02*
Y6023D01*
Y5642D02*
X12116Y5592D01*
X10057Y3615D02*
Y3996D01*
X13363Y11264D02*
X13462D01*
X13340Y11241D02*
X13363Y11264D01*
X13159Y11241D02*
X13340D01*
X9043Y12392D02*
Y12560D01*
X11228Y12392D02*
Y12675D01*
X11228Y12392D02*
X11228Y12392D01*
X10121Y12675D02*
X11228D01*
X13462Y11113D02*
Y11264D01*
X13970Y11113D02*
Y11264D01*
X14476Y11113D02*
Y11264D01*
X14666Y10986D02*
Y11264D01*
X15088Y12009D02*
X15323D01*
X10714Y11252D02*
X10828D01*
X10673Y11211D02*
X10714Y11252D01*
X6933Y12495D02*
X7883D01*
X8030Y12348D01*
X7961Y11902D02*
X8233D01*
X7848Y12015D02*
Y12116D01*
Y12015D02*
X7961Y11902D01*
X9836Y10748D02*
X10149Y10435D01*
X9836Y10748D02*
Y11832D01*
X9687Y11982D02*
X9836Y11832D01*
X9897Y10780D02*
X10179Y10498D01*
X9897Y10780D02*
Y11865D01*
X9373Y11662D02*
X9674D01*
X5049Y10945D02*
X6875Y12772D01*
X8386D01*
X8563Y12595D01*
X8353Y12703D02*
X8483Y12574D01*
X5117Y10902D02*
X6918Y12703D01*
X8353D01*
X5239Y10910D02*
X6969Y12640D01*
X8305D01*
X8403Y12542D01*
X14497Y11672D02*
X14872Y12047D01*
X14204Y11692D02*
X14410Y11898D01*
X14576Y11611D02*
X14975Y12009D01*
X14629Y3254D02*
X15277D01*
X15280Y11849D02*
X15346Y11784D01*
X15389Y12169D02*
X15473Y12086D01*
X15323Y12009D02*
X15412Y11921D01*
X6896Y2789D02*
X10018D01*
X10019Y2790D01*
X5645Y2790D02*
X6573D01*
X6659Y2876D01*
X5188Y6912D02*
X11439D01*
X11586Y7059D01*
X5117Y7331D02*
X5330Y7118D01*
X9382D01*
X9562Y7298D01*
X9811Y11951D02*
X9897Y11865D01*
X9811Y11951D02*
Y12462D01*
X9641Y12632D02*
X9811Y12462D01*
X9882Y11969D02*
X9963Y11888D01*
X9882Y11969D02*
Y12505D01*
X9684Y12703D02*
X9882Y12505D01*
X15277Y3254D02*
X15412Y3389D01*
X14510Y3315D02*
X15252D01*
X15346Y3409D01*
X8000Y11466D02*
X8036Y11502D01*
X7924Y11530D02*
X7976Y11582D01*
X7562Y10067D02*
Y10746D01*
X8000Y11184D01*
Y11466D01*
X5645Y10664D02*
X7365D01*
X7924Y11222D01*
Y11530D01*
X5539Y7423D02*
Y9874D01*
X5562Y10056D02*
X5639Y9979D01*
X5562Y10056D02*
Y10580D01*
X5645Y10664D01*
X5452Y9960D02*
X5539Y9874D01*
X5452Y9960D02*
Y10905D01*
X6981Y12434D01*
X9923Y6488D02*
X10040Y6371D01*
X13527D01*
X9770Y6488D02*
X9974Y6285D01*
X11485D01*
X11813Y5618D02*
Y5897D01*
X11813Y5897D01*
X11649D02*
X11813D01*
X11574Y5973D02*
Y6196D01*
Y5973D02*
X11649Y5897D01*
X13603Y5973D02*
X13678Y5897D01*
X13603Y5973D02*
Y6295D01*
X13527Y6371D02*
X13603Y6295D01*
X15285Y3153D02*
X15473Y3341D01*
X11798Y12062D02*
X13096D01*
X12596Y11842D02*
X12882D01*
X12935Y11789D01*
Y11283D02*
Y11789D01*
X11798Y11662D02*
X11973D01*
X12087Y11842D02*
X12406D01*
X12069Y11128D02*
Y11687D01*
X12107Y11725D01*
X12707D01*
X12747Y11685D01*
Y11241D02*
Y11685D01*
X11973Y11662D02*
X12003Y11692D01*
Y11758D01*
X12087Y11842D01*
X14396Y12774D02*
X15001Y12169D01*
X8883Y12603D02*
X9120Y12840D01*
X11571D01*
X11798Y12613D01*
X12938Y12448D02*
Y12619D01*
X12663Y12448D02*
Y12619D01*
X12388Y12445D02*
Y12617D01*
X12115Y12445D02*
Y12619D01*
X11148Y11714D02*
Y12392D01*
X11228Y11252D02*
Y11634D01*
X11148Y11714D02*
X11228Y11634D01*
X11401Y11591D02*
X11480Y11512D01*
X11551D01*
X11228Y11761D02*
Y12392D01*
X11308Y11798D02*
Y12392D01*
X11228Y11761D02*
X11308Y11681D01*
Y11071D02*
Y11681D01*
X11308Y11798D02*
X11401Y11705D01*
Y11591D02*
Y11705D01*
X11388Y11852D02*
Y12392D01*
Y11852D02*
X11551Y11690D01*
X11468Y11976D02*
X11551Y11893D01*
X11548Y12124D02*
Y12392D01*
X11468Y11976D02*
Y12392D01*
X11548Y12124D02*
X11576Y12096D01*
X12116Y12256D02*
X12237D01*
X12115Y12255D02*
X12116Y12256D01*
X12389D02*
X12510D01*
X12664Y12259D02*
X12785D01*
X12939Y12252D02*
X13060D01*
X13966Y12294D02*
X14160Y12101D01*
Y11898D02*
Y12101D01*
X11798Y12142D02*
X13103D01*
X13169Y12208D01*
Y12315D01*
X13278Y12424D01*
X13960Y11898D02*
Y12032D01*
X13916Y12076D02*
X13960Y12032D01*
X11858Y12774D02*
X14396D01*
X11655Y12977D02*
X11858Y12774D01*
X13278Y12424D02*
X13519D01*
X13649Y12294D01*
X13966D01*
X13096Y12062D02*
X13245Y11913D01*
X4939Y11850D02*
X5722D01*
X6849Y12977D01*
X11655D01*
X15252Y9838D02*
Y11113D01*
X15346Y3409D02*
Y11784D01*
X15412Y3389D02*
Y11921D01*
X15473Y3341D02*
Y12086D01*
X5733Y3565D02*
Y3870D01*
X11806Y3565D02*
Y3870D01*
X13835Y7614D02*
Y7919D01*
X13701Y7614D02*
X13835D01*
X13843D01*
X13853D01*
X8068Y5592D02*
X8190D01*
X13835Y3565D02*
Y3870D01*
Y5592D02*
Y5897D01*
X13678D02*
X13835D01*
X13843D01*
X9632Y5618D02*
X9797D01*
X9804D01*
X9797Y5592D02*
Y5618D01*
Y5897D01*
Y7614D02*
Y7919D01*
X11806Y9674D02*
Y9979D01*
X6043Y5592D02*
X6165D01*
X9797Y9674D02*
Y9979D01*
X9616Y9674D02*
X9797D01*
X9804D01*
X7765Y5592D02*
Y5618D01*
Y5897D01*
X9797Y3565D02*
Y3870D01*
D20*
X15668Y10201D02*
D03*
Y9846D02*
D03*
Y10557D02*
D03*
X5678Y12431D02*
D03*
Y12076D02*
D03*
Y12787D02*
D03*
D21*
X7025Y11175D02*
D03*
X6517D02*
D03*
X10164Y11532D02*
D03*
Y11786D02*
D03*
Y12040D02*
D03*
Y12294D02*
D03*
X7672Y11530D02*
D03*
Y11784D02*
D03*
Y12038D02*
D03*
Y12292D02*
D03*
D22*
X6263Y11173D02*
D03*
D23*
X6771D02*
D03*
D24*
X14410Y11898D02*
D03*
X13710D02*
D03*
X14160D02*
D03*
X13960D02*
D03*
D25*
X13403Y12169D02*
D03*
X14717D02*
D03*
D26*
X10164Y11278D02*
D03*
X7672Y11276D02*
D03*
D27*
X4999Y12812D02*
D03*
X4992Y2991D02*
D03*
X15009Y2991D02*
D03*
Y12812D02*
D03*
D28*
X4439Y12813D02*
D03*
X4432Y2990D02*
D03*
X15569Y2990D02*
D03*
Y12813D02*
D03*
D29*
X14053Y3376D02*
D03*
X10558Y12391D02*
D03*
X11904D02*
D03*
X14975Y12010D02*
D03*
X9008Y12020D02*
D03*
X15115Y7153D02*
D03*
X8884Y11888D02*
D03*
X9598Y12221D02*
D03*
X9694Y12391D02*
D03*
X9605Y11532D02*
D03*
X14055Y2889D02*
D03*
X9610Y11789D02*
D03*
X5389Y7423D02*
D03*
X5239Y7024D02*
D03*
Y7423D02*
D03*
X5539D02*
D03*
X9770Y6488D02*
D03*
X9923D02*
D03*
X11033Y9277D02*
D03*
X13618Y9675D02*
D03*
X8970Y9388D02*
D03*
X15115Y9109D02*
D03*
X14421Y9112D02*
D03*
X8498Y9388D02*
D03*
X8818D02*
D03*
X9123D02*
D03*
X14421Y7153D02*
D03*
Y5121D02*
D03*
X15115D02*
D03*
X5126Y12010D02*
D03*
X8803Y12675D02*
D03*
X10510Y11212D02*
D03*
X13643Y3870D02*
D03*
X11598D02*
D03*
X9604D02*
D03*
X7554D02*
D03*
X5533D02*
D03*
X6684Y5060D02*
D03*
X10673Y11211D02*
D03*
X7982Y7425D02*
D03*
X5940D02*
D03*
X5559Y5617D02*
D03*
X11228Y12675D02*
D03*
X13462Y11113D02*
D03*
X13970D02*
D03*
X14476D02*
D03*
X9674Y11662D02*
D03*
X11551Y11512D02*
D03*
Y11690D02*
D03*
Y11893D02*
D03*
X11576Y12096D02*
D03*
X12237Y12256D02*
D03*
X12510D02*
D03*
X12785Y12259D02*
D03*
X13060Y12252D02*
D03*
X15252Y11113D02*
D03*
M02*
