G04 Layer_Color=2752767*
%FSLAX42Y42*%
%MOMM*%
G71*
G01*
G75*
%ADD33C,0.05*%
D33*
X15668Y10201D02*
X15685D01*
X15677D01*
Y10252D01*
X15668Y10244D01*
Y9846D02*
X15685D01*
X15677D01*
Y9896D01*
X15668Y9888D01*
Y10557D02*
X15685D01*
X15677D01*
Y10608D01*
X15668Y10599D01*
X7025Y11175D02*
X7042D01*
X7034D01*
Y11226D01*
X7025Y11217D01*
X6263Y11173D02*
X6280D01*
X6271D01*
Y11223D01*
X6263Y11215D01*
X6771Y11173D02*
X6788D01*
X6779D01*
Y11223D01*
X6771Y11215D01*
X6517Y11175D02*
X6534D01*
X6526D01*
Y11226D01*
X6517Y11217D01*
X14410Y11941D02*
X14418Y11949D01*
X14435D01*
X14444Y11941D01*
Y11907D01*
X14435Y11898D01*
X14418D01*
X14410Y11907D01*
Y11941D01*
X14461Y11898D02*
Y11907D01*
X14469D01*
Y11898D01*
X14461D01*
X14503Y11941D02*
X14511Y11949D01*
X14528D01*
X14537Y11941D01*
Y11932D01*
X14528Y11924D01*
X14537Y11915D01*
Y11907D01*
X14528Y11898D01*
X14511D01*
X14503Y11907D01*
Y11915D01*
X14511Y11924D01*
X14503Y11932D01*
Y11941D01*
X14511Y11924D02*
X14528D01*
X13710Y11941D02*
X13718Y11949D01*
X13735D01*
X13744Y11941D01*
Y11907D01*
X13735Y11898D01*
X13718D01*
X13710Y11907D01*
Y11941D01*
X13761Y11898D02*
Y11907D01*
X13769D01*
Y11898D01*
X13761D01*
X13803Y11941D02*
X13811Y11949D01*
X13828D01*
X13837Y11941D01*
Y11932D01*
X13828Y11924D01*
X13837Y11915D01*
Y11907D01*
X13828Y11898D01*
X13811D01*
X13803Y11907D01*
Y11915D01*
X13811Y11924D01*
X13803Y11932D01*
Y11941D01*
X13811Y11924D02*
X13828D01*
X14160Y11941D02*
X14168Y11949D01*
X14185D01*
X14194Y11941D01*
Y11907D01*
X14185Y11898D01*
X14168D01*
X14160Y11907D01*
Y11941D01*
X14211Y11898D02*
Y11907D01*
X14219D01*
Y11898D01*
X14211D01*
X14253Y11941D02*
X14261Y11949D01*
X14278D01*
X14287Y11941D01*
Y11932D01*
X14278Y11924D01*
X14287Y11915D01*
Y11907D01*
X14278Y11898D01*
X14261D01*
X14253Y11907D01*
Y11915D01*
X14261Y11924D01*
X14253Y11932D01*
Y11941D01*
X14261Y11924D02*
X14278D01*
X13960Y11941D02*
X13968Y11949D01*
X13985D01*
X13994Y11941D01*
Y11907D01*
X13985Y11898D01*
X13968D01*
X13960Y11907D01*
Y11941D01*
X14011Y11898D02*
Y11907D01*
X14019D01*
Y11898D01*
X14011D01*
X14053Y11941D02*
X14061Y11949D01*
X14078D01*
X14087Y11941D01*
Y11932D01*
X14078Y11924D01*
X14087Y11915D01*
Y11907D01*
X14078Y11898D01*
X14061D01*
X14053Y11907D01*
Y11915D01*
X14061Y11924D01*
X14053Y11932D01*
Y11941D01*
X14061Y11924D02*
X14078D01*
X13437Y12169D02*
X13403D01*
X13437Y12203D01*
Y12212D01*
X13428Y12220D01*
X13411D01*
X13403Y12212D01*
X14751Y12169D02*
X14717D01*
X14751Y12203D01*
Y12212D01*
X14742Y12220D01*
X14725D01*
X14717Y12212D01*
X10164Y11278D02*
X10181D01*
X10173D01*
Y11329D01*
X10164Y11321D01*
Y11532D02*
X10181D01*
X10173D01*
Y11583D01*
X10164Y11575D01*
Y11786D02*
X10181D01*
X10173D01*
Y11837D01*
X10164Y11829D01*
Y12040D02*
X10181D01*
X10173D01*
Y12091D01*
X10164Y12083D01*
Y12294D02*
X10181D01*
X10173D01*
Y12345D01*
X10164Y12337D01*
X7672Y11276D02*
X7689D01*
X7681D01*
Y11326D01*
X7672Y11318D01*
Y11530D02*
X7689D01*
X7681D01*
Y11580D01*
X7672Y11572D01*
Y11784D02*
X7689D01*
X7681D01*
Y11834D01*
X7672Y11826D01*
Y12038D02*
X7689D01*
X7681D01*
Y12088D01*
X7672Y12080D01*
Y12292D02*
X7689D01*
X7681D01*
Y12342D01*
X7672Y12334D01*
X5678Y12431D02*
X5695D01*
X5687D01*
Y12482D01*
X5678Y12474D01*
Y12076D02*
X5695D01*
X5687D01*
Y12127D01*
X5678Y12118D01*
Y12787D02*
X5695D01*
X5687D01*
Y12838D01*
X5678Y12829D01*
X5025Y12812D02*
Y12863D01*
X4999Y12837D01*
X5033D01*
X4439Y12855D02*
X4448Y12864D01*
X4465D01*
X4473Y12855D01*
Y12847D01*
X4465Y12838D01*
X4456D01*
X4465D01*
X4473Y12830D01*
Y12821D01*
X4465Y12813D01*
X4448D01*
X4439Y12821D01*
X4432Y3033D02*
X4440Y3041D01*
X4457D01*
X4466Y3033D01*
Y3024D01*
X4457Y3016D01*
X4449D01*
X4457D01*
X4466Y3007D01*
Y2999D01*
X4457Y2990D01*
X4440D01*
X4432Y2999D01*
X5017Y2991D02*
Y3042D01*
X4992Y3017D01*
X5025D01*
X15034Y2991D02*
Y3042D01*
X15009Y3017D01*
X15043D01*
X15569Y3033D02*
X15577Y3041D01*
X15594D01*
X15603Y3033D01*
Y3024D01*
X15594Y3016D01*
X15586D01*
X15594D01*
X15603Y3007D01*
Y2999D01*
X15594Y2990D01*
X15577D01*
X15569Y2999D01*
Y12855D02*
X15577Y12864D01*
X15594D01*
X15603Y12855D01*
Y12847D01*
X15594Y12838D01*
X15586D01*
X15594D01*
X15603Y12830D01*
Y12821D01*
X15594Y12813D01*
X15577D01*
X15569Y12821D01*
X15034Y12812D02*
Y12863D01*
X15009Y12837D01*
X15043D01*
X14053Y3419D02*
X14061Y3427D01*
X14078D01*
X14087Y3419D01*
Y3385D01*
X14078Y3376D01*
X14061D01*
X14053Y3385D01*
Y3419D01*
X14104Y3376D02*
Y3385D01*
X14112D01*
Y3376D01*
X14104D01*
X14180Y3427D02*
X14146D01*
Y3402D01*
X14163Y3410D01*
X14171D01*
X14180Y3402D01*
Y3385D01*
X14171Y3376D01*
X14154D01*
X14146Y3385D01*
X10558Y12433D02*
X10566Y12442D01*
X10583D01*
X10592Y12433D01*
Y12399D01*
X10583Y12391D01*
X10566D01*
X10558Y12399D01*
Y12433D01*
X10609Y12391D02*
Y12399D01*
X10617D01*
Y12391D01*
X10609D01*
X10685Y12442D02*
X10651D01*
Y12416D01*
X10668Y12425D01*
X10676D01*
X10685Y12416D01*
Y12399D01*
X10676Y12391D01*
X10659D01*
X10651Y12399D01*
X11904Y12433D02*
X11912Y12442D01*
X11929D01*
X11938Y12433D01*
Y12399D01*
X11929Y12391D01*
X11912D01*
X11904Y12399D01*
Y12433D01*
X11955Y12391D02*
Y12399D01*
X11963D01*
Y12391D01*
X11955D01*
X12031Y12442D02*
X11997D01*
Y12416D01*
X12014Y12425D01*
X12022D01*
X12031Y12416D01*
Y12399D01*
X12022Y12391D01*
X12006D01*
X11997Y12399D01*
X14975Y12052D02*
X14983Y12061D01*
X15000D01*
X15009Y12052D01*
Y12018D01*
X15000Y12010D01*
X14983D01*
X14975Y12018D01*
Y12052D01*
X15026Y12010D02*
Y12018D01*
X15034D01*
Y12010D01*
X15026D01*
X15102Y12061D02*
X15068D01*
Y12035D01*
X15085Y12044D01*
X15093D01*
X15102Y12035D01*
Y12018D01*
X15093Y12010D01*
X15076D01*
X15068Y12018D01*
X9008Y12062D02*
X9017Y12071D01*
X9034D01*
X9042Y12062D01*
Y12028D01*
X9034Y12020D01*
X9017D01*
X9008Y12028D01*
Y12062D01*
X9059Y12020D02*
Y12028D01*
X9068D01*
Y12020D01*
X9059D01*
X9135Y12071D02*
X9101D01*
Y12045D01*
X9118Y12054D01*
X9127D01*
X9135Y12045D01*
Y12028D01*
X9127Y12020D01*
X9110D01*
X9101Y12028D01*
X15115Y7196D02*
X15123Y7204D01*
X15140D01*
X15148Y7196D01*
Y7162D01*
X15140Y7153D01*
X15123D01*
X15115Y7162D01*
Y7196D01*
X15165Y7153D02*
Y7162D01*
X15174D01*
Y7153D01*
X15165D01*
X15242Y7204D02*
X15208D01*
Y7179D01*
X15225Y7187D01*
X15233D01*
X15242Y7179D01*
Y7162D01*
X15233Y7153D01*
X15216D01*
X15208Y7162D01*
X8884Y11930D02*
X8892Y11939D01*
X8909D01*
X8918Y11930D01*
Y11896D01*
X8909Y11888D01*
X8892D01*
X8884Y11896D01*
Y11930D01*
X8935Y11888D02*
Y11896D01*
X8943D01*
Y11888D01*
X8935D01*
X9011Y11939D02*
X8977D01*
Y11913D01*
X8994Y11922D01*
X9002D01*
X9011Y11913D01*
Y11896D01*
X9002Y11888D01*
X8985D01*
X8977Y11896D01*
X9598Y12263D02*
X9606Y12271D01*
X9623D01*
X9632Y12263D01*
Y12229D01*
X9623Y12221D01*
X9606D01*
X9598Y12229D01*
Y12263D01*
X9648Y12221D02*
Y12229D01*
X9657D01*
Y12221D01*
X9648D01*
X9725Y12271D02*
X9691D01*
Y12246D01*
X9708Y12254D01*
X9716D01*
X9725Y12246D01*
Y12229D01*
X9716Y12221D01*
X9699D01*
X9691Y12229D01*
X9694Y12433D02*
X9703Y12442D01*
X9720D01*
X9728Y12433D01*
Y12399D01*
X9720Y12391D01*
X9703D01*
X9694Y12399D01*
Y12433D01*
X9745Y12391D02*
Y12399D01*
X9753D01*
Y12391D01*
X9745D01*
X9821Y12442D02*
X9787D01*
Y12416D01*
X9804Y12425D01*
X9813D01*
X9821Y12416D01*
Y12399D01*
X9813Y12391D01*
X9796D01*
X9787Y12399D01*
X9605Y11575D02*
X9614Y11583D01*
X9631D01*
X9639Y11575D01*
Y11541D01*
X9631Y11532D01*
X9614D01*
X9605Y11541D01*
Y11575D01*
X9656Y11532D02*
Y11541D01*
X9665D01*
Y11532D01*
X9656D01*
X9732Y11583D02*
X9698D01*
Y11558D01*
X9715Y11566D01*
X9724D01*
X9732Y11558D01*
Y11541D01*
X9724Y11532D01*
X9707D01*
X9698Y11541D01*
X14055Y2931D02*
X14064Y2939D01*
X14081D01*
X14089Y2931D01*
Y2897D01*
X14081Y2889D01*
X14064D01*
X14055Y2897D01*
Y2931D01*
X14106Y2889D02*
Y2897D01*
X14115D01*
Y2889D01*
X14106D01*
X14182Y2939D02*
X14148D01*
Y2914D01*
X14165Y2922D01*
X14174D01*
X14182Y2914D01*
Y2897D01*
X14174Y2889D01*
X14157D01*
X14148Y2897D01*
X9610Y11831D02*
X9619Y11840D01*
X9636D01*
X9644Y11831D01*
Y11797D01*
X9636Y11789D01*
X9619D01*
X9610Y11797D01*
Y11831D01*
X9661Y11789D02*
Y11797D01*
X9670D01*
Y11789D01*
X9661D01*
X9737Y11840D02*
X9703D01*
Y11814D01*
X9720Y11823D01*
X9729D01*
X9737Y11814D01*
Y11797D01*
X9729Y11789D01*
X9712D01*
X9703Y11797D01*
X5389Y7465D02*
X5397Y7473D01*
X5414D01*
X5423Y7465D01*
Y7431D01*
X5414Y7423D01*
X5397D01*
X5389Y7431D01*
Y7465D01*
X5440Y7423D02*
Y7431D01*
X5448D01*
Y7423D01*
X5440D01*
X5516Y7473D02*
X5482D01*
Y7448D01*
X5499Y7456D01*
X5507D01*
X5516Y7448D01*
Y7431D01*
X5507Y7423D01*
X5490D01*
X5482Y7431D01*
X5239Y7066D02*
X5247Y7075D01*
X5264D01*
X5273Y7066D01*
Y7032D01*
X5264Y7024D01*
X5247D01*
X5239Y7032D01*
Y7066D01*
X5290Y7024D02*
Y7032D01*
X5298D01*
Y7024D01*
X5290D01*
X5366Y7075D02*
X5332D01*
Y7049D01*
X5349Y7058D01*
X5358D01*
X5366Y7049D01*
Y7032D01*
X5358Y7024D01*
X5341D01*
X5332Y7032D01*
X5239Y7465D02*
X5247Y7473D01*
X5264D01*
X5273Y7465D01*
Y7431D01*
X5264Y7423D01*
X5247D01*
X5239Y7431D01*
Y7465D01*
X5290Y7423D02*
Y7431D01*
X5298D01*
Y7423D01*
X5290D01*
X5366Y7473D02*
X5332D01*
Y7448D01*
X5349Y7456D01*
X5358D01*
X5366Y7448D01*
Y7431D01*
X5358Y7423D01*
X5341D01*
X5332Y7431D01*
X5539Y7465D02*
X5547Y7473D01*
X5564D01*
X5573Y7465D01*
Y7431D01*
X5564Y7423D01*
X5547D01*
X5539Y7431D01*
Y7465D01*
X5590Y7423D02*
Y7431D01*
X5598D01*
Y7423D01*
X5590D01*
X5666Y7473D02*
X5632D01*
Y7448D01*
X5649Y7456D01*
X5657D01*
X5666Y7448D01*
Y7431D01*
X5657Y7423D01*
X5640D01*
X5632Y7431D01*
X9770Y6530D02*
X9779Y6539D01*
X9796D01*
X9804Y6530D01*
Y6496D01*
X9796Y6488D01*
X9779D01*
X9770Y6496D01*
Y6530D01*
X9821Y6488D02*
Y6496D01*
X9830D01*
Y6488D01*
X9821D01*
X9897Y6539D02*
X9863D01*
Y6513D01*
X9880Y6522D01*
X9889D01*
X9897Y6513D01*
Y6496D01*
X9889Y6488D01*
X9872D01*
X9863Y6496D01*
X9923Y6530D02*
X9931Y6539D01*
X9948D01*
X9957Y6530D01*
Y6496D01*
X9948Y6488D01*
X9931D01*
X9923Y6496D01*
Y6530D01*
X9974Y6488D02*
Y6496D01*
X9982D01*
Y6488D01*
X9974D01*
X10050Y6539D02*
X10016D01*
Y6513D01*
X10033Y6522D01*
X10041D01*
X10050Y6513D01*
Y6496D01*
X10041Y6488D01*
X10024D01*
X10016Y6496D01*
X11033Y9319D02*
X11041Y9327D01*
X11058D01*
X11067Y9319D01*
Y9285D01*
X11058Y9277D01*
X11041D01*
X11033Y9285D01*
Y9319D01*
X11084Y9277D02*
Y9285D01*
X11092D01*
Y9277D01*
X11084D01*
X11160Y9327D02*
X11126D01*
Y9302D01*
X11143Y9311D01*
X11151D01*
X11160Y9302D01*
Y9285D01*
X11151Y9277D01*
X11134D01*
X11126Y9285D01*
X13618Y9718D02*
X13627Y9726D01*
X13644D01*
X13652Y9718D01*
Y9684D01*
X13644Y9675D01*
X13627D01*
X13618Y9684D01*
Y9718D01*
X13669Y9675D02*
Y9684D01*
X13678D01*
Y9675D01*
X13669D01*
X13745Y9726D02*
X13712D01*
Y9701D01*
X13729Y9709D01*
X13737D01*
X13745Y9701D01*
Y9684D01*
X13737Y9675D01*
X13720D01*
X13712Y9684D01*
X8970Y9431D02*
X8979Y9439D01*
X8996D01*
X9004Y9431D01*
Y9397D01*
X8996Y9388D01*
X8979D01*
X8970Y9397D01*
Y9431D01*
X9021Y9388D02*
Y9397D01*
X9030D01*
Y9388D01*
X9021D01*
X9097Y9439D02*
X9063D01*
Y9414D01*
X9080Y9422D01*
X9089D01*
X9097Y9414D01*
Y9397D01*
X9089Y9388D01*
X9072D01*
X9063Y9397D01*
X15115Y9151D02*
X15123Y9160D01*
X15140D01*
X15148Y9151D01*
Y9118D01*
X15140Y9109D01*
X15123D01*
X15115Y9118D01*
Y9151D01*
X15165Y9109D02*
Y9118D01*
X15174D01*
Y9109D01*
X15165D01*
X15242Y9160D02*
X15208D01*
Y9134D01*
X15225Y9143D01*
X15233D01*
X15242Y9134D01*
Y9118D01*
X15233Y9109D01*
X15216D01*
X15208Y9118D01*
X14421Y9154D02*
X14430Y9162D01*
X14447D01*
X14455Y9154D01*
Y9120D01*
X14447Y9112D01*
X14430D01*
X14421Y9120D01*
Y9154D01*
X14472Y9112D02*
Y9120D01*
X14480D01*
Y9112D01*
X14472D01*
X14548Y9162D02*
X14514D01*
Y9137D01*
X14531Y9145D01*
X14540D01*
X14548Y9137D01*
Y9120D01*
X14540Y9112D01*
X14523D01*
X14514Y9120D01*
X8498Y9431D02*
X8506Y9439D01*
X8523D01*
X8532Y9431D01*
Y9397D01*
X8523Y9388D01*
X8506D01*
X8498Y9397D01*
Y9431D01*
X8549Y9388D02*
Y9397D01*
X8557D01*
Y9388D01*
X8549D01*
X8625Y9439D02*
X8591D01*
Y9414D01*
X8608Y9422D01*
X8616D01*
X8625Y9414D01*
Y9397D01*
X8616Y9388D01*
X8599D01*
X8591Y9397D01*
X8818Y9431D02*
X8826Y9439D01*
X8843D01*
X8852Y9431D01*
Y9397D01*
X8843Y9388D01*
X8826D01*
X8818Y9397D01*
Y9431D01*
X8869Y9388D02*
Y9397D01*
X8877D01*
Y9388D01*
X8869D01*
X8945Y9439D02*
X8911D01*
Y9414D01*
X8928Y9422D01*
X8936D01*
X8945Y9414D01*
Y9397D01*
X8936Y9388D01*
X8919D01*
X8911Y9397D01*
X9123Y9431D02*
X9131Y9439D01*
X9148D01*
X9157Y9431D01*
Y9397D01*
X9148Y9388D01*
X9131D01*
X9123Y9397D01*
Y9431D01*
X9173Y9388D02*
Y9397D01*
X9182D01*
Y9388D01*
X9173D01*
X9250Y9439D02*
X9216D01*
Y9414D01*
X9233Y9422D01*
X9241D01*
X9250Y9414D01*
Y9397D01*
X9241Y9388D01*
X9224D01*
X9216Y9397D01*
X14421Y7196D02*
X14430Y7204D01*
X14447D01*
X14455Y7196D01*
Y7162D01*
X14447Y7153D01*
X14430D01*
X14421Y7162D01*
Y7196D01*
X14472Y7153D02*
Y7162D01*
X14480D01*
Y7153D01*
X14472D01*
X14548Y7204D02*
X14514D01*
Y7179D01*
X14531Y7187D01*
X14540D01*
X14548Y7179D01*
Y7162D01*
X14540Y7153D01*
X14523D01*
X14514Y7162D01*
X14421Y5164D02*
X14430Y5172D01*
X14447D01*
X14455Y5164D01*
Y5130D01*
X14447Y5121D01*
X14430D01*
X14421Y5130D01*
Y5164D01*
X14472Y5121D02*
Y5130D01*
X14480D01*
Y5121D01*
X14472D01*
X14548Y5172D02*
X14514D01*
Y5147D01*
X14531Y5155D01*
X14540D01*
X14548Y5147D01*
Y5130D01*
X14540Y5121D01*
X14523D01*
X14514Y5130D01*
X15115Y5164D02*
X15123Y5172D01*
X15140D01*
X15148Y5164D01*
Y5130D01*
X15140Y5121D01*
X15123D01*
X15115Y5130D01*
Y5164D01*
X15165Y5121D02*
Y5130D01*
X15174D01*
Y5121D01*
X15165D01*
X15242Y5172D02*
X15208D01*
Y5147D01*
X15225Y5155D01*
X15233D01*
X15242Y5147D01*
Y5130D01*
X15233Y5121D01*
X15216D01*
X15208Y5130D01*
X5126Y12052D02*
X5135Y12061D01*
X5152D01*
X5160Y12052D01*
Y12018D01*
X5152Y12010D01*
X5135D01*
X5126Y12018D01*
Y12052D01*
X5177Y12010D02*
Y12018D01*
X5186D01*
Y12010D01*
X5177D01*
X5253Y12061D02*
X5219D01*
Y12035D01*
X5236Y12044D01*
X5245D01*
X5253Y12035D01*
Y12018D01*
X5245Y12010D01*
X5228D01*
X5219Y12018D01*
X8803Y12718D02*
X8811Y12726D01*
X8828D01*
X8837Y12718D01*
Y12684D01*
X8828Y12675D01*
X8811D01*
X8803Y12684D01*
Y12718D01*
X8853Y12675D02*
Y12684D01*
X8862D01*
Y12675D01*
X8853D01*
X8930Y12726D02*
X8896D01*
Y12701D01*
X8913Y12709D01*
X8921D01*
X8930Y12701D01*
Y12684D01*
X8921Y12675D01*
X8904D01*
X8896Y12684D01*
X10510Y11255D02*
X10518Y11263D01*
X10535D01*
X10543Y11255D01*
Y11221D01*
X10535Y11212D01*
X10518D01*
X10510Y11221D01*
Y11255D01*
X10560Y11212D02*
Y11221D01*
X10569D01*
Y11212D01*
X10560D01*
X10636Y11263D02*
X10603D01*
Y11238D01*
X10620Y11246D01*
X10628D01*
X10636Y11238D01*
Y11221D01*
X10628Y11212D01*
X10611D01*
X10603Y11221D01*
X13643Y3913D02*
X13651Y3921D01*
X13668D01*
X13677Y3913D01*
Y3879D01*
X13668Y3870D01*
X13651D01*
X13643Y3879D01*
Y3913D01*
X13694Y3870D02*
Y3879D01*
X13702D01*
Y3870D01*
X13694D01*
X13770Y3921D02*
X13736D01*
Y3896D01*
X13753Y3904D01*
X13761D01*
X13770Y3896D01*
Y3879D01*
X13761Y3870D01*
X13744D01*
X13736Y3879D01*
X11598Y3913D02*
X11607Y3921D01*
X11623D01*
X11632Y3913D01*
Y3879D01*
X11623Y3870D01*
X11607D01*
X11598Y3879D01*
Y3913D01*
X11649Y3870D02*
Y3879D01*
X11657D01*
Y3870D01*
X11649D01*
X11725Y3921D02*
X11691D01*
Y3896D01*
X11708Y3904D01*
X11717D01*
X11725Y3896D01*
Y3879D01*
X11717Y3870D01*
X11700D01*
X11691Y3879D01*
X9604Y3913D02*
X9613Y3921D01*
X9630D01*
X9638Y3913D01*
Y3879D01*
X9630Y3870D01*
X9613D01*
X9604Y3879D01*
Y3913D01*
X9655Y3870D02*
Y3879D01*
X9663D01*
Y3870D01*
X9655D01*
X9731Y3921D02*
X9697D01*
Y3896D01*
X9714Y3904D01*
X9723D01*
X9731Y3896D01*
Y3879D01*
X9723Y3870D01*
X9706D01*
X9697Y3879D01*
X7554Y3913D02*
X7563Y3921D01*
X7580D01*
X7588Y3913D01*
Y3879D01*
X7580Y3870D01*
X7563D01*
X7554Y3879D01*
Y3913D01*
X7605Y3870D02*
Y3879D01*
X7614D01*
Y3870D01*
X7605D01*
X7681Y3921D02*
X7648D01*
Y3896D01*
X7664Y3904D01*
X7673D01*
X7681Y3896D01*
Y3879D01*
X7673Y3870D01*
X7656D01*
X7648Y3879D01*
X5533Y3913D02*
X5541Y3921D01*
X5558D01*
X5566Y3913D01*
Y3879D01*
X5558Y3870D01*
X5541D01*
X5533Y3879D01*
Y3913D01*
X5583Y3870D02*
Y3879D01*
X5592D01*
Y3870D01*
X5583D01*
X5660Y3921D02*
X5626D01*
Y3896D01*
X5643Y3904D01*
X5651D01*
X5660Y3896D01*
Y3879D01*
X5651Y3870D01*
X5634D01*
X5626Y3879D01*
X6684Y5103D02*
X6693Y5111D01*
X6710D01*
X6718Y5103D01*
Y5069D01*
X6710Y5060D01*
X6693D01*
X6684Y5069D01*
Y5103D01*
X6735Y5060D02*
Y5069D01*
X6744D01*
Y5060D01*
X6735D01*
X6811Y5111D02*
X6777D01*
Y5086D01*
X6794Y5094D01*
X6803D01*
X6811Y5086D01*
Y5069D01*
X6803Y5060D01*
X6786D01*
X6777Y5069D01*
X10673Y11253D02*
X10682Y11262D01*
X10699D01*
X10707Y11253D01*
Y11220D01*
X10699Y11211D01*
X10682D01*
X10673Y11220D01*
Y11253D01*
X10724Y11211D02*
Y11220D01*
X10732D01*
Y11211D01*
X10724D01*
X10800Y11262D02*
X10766D01*
Y11237D01*
X10783Y11245D01*
X10792D01*
X10800Y11237D01*
Y11220D01*
X10792Y11211D01*
X10775D01*
X10766Y11220D01*
X7982Y7467D02*
X7991Y7476D01*
X8008D01*
X8016Y7467D01*
Y7434D01*
X8008Y7425D01*
X7991D01*
X7982Y7434D01*
Y7467D01*
X8033Y7425D02*
Y7434D01*
X8041D01*
Y7425D01*
X8033D01*
X8109Y7476D02*
X8075D01*
Y7450D01*
X8092Y7459D01*
X8101D01*
X8109Y7450D01*
Y7434D01*
X8101Y7425D01*
X8084D01*
X8075Y7434D01*
X5940Y7467D02*
X5949Y7476D01*
X5965D01*
X5974Y7467D01*
Y7434D01*
X5965Y7425D01*
X5949D01*
X5940Y7434D01*
Y7467D01*
X5991Y7425D02*
Y7434D01*
X5999D01*
Y7425D01*
X5991D01*
X6067Y7476D02*
X6033D01*
Y7450D01*
X6050Y7459D01*
X6059D01*
X6067Y7450D01*
Y7434D01*
X6059Y7425D01*
X6042D01*
X6033Y7434D01*
X5559Y5659D02*
X5568Y5667D01*
X5584D01*
X5593Y5659D01*
Y5625D01*
X5584Y5617D01*
X5568D01*
X5559Y5625D01*
Y5659D01*
X5610Y5617D02*
Y5625D01*
X5618D01*
Y5617D01*
X5610D01*
X5686Y5667D02*
X5652D01*
Y5642D01*
X5669Y5650D01*
X5678D01*
X5686Y5642D01*
Y5625D01*
X5678Y5617D01*
X5661D01*
X5652Y5625D01*
X11228Y12718D02*
X11237Y12726D01*
X11254D01*
X11262Y12718D01*
Y12684D01*
X11254Y12675D01*
X11237D01*
X11228Y12684D01*
Y12718D01*
X11279Y12675D02*
Y12684D01*
X11288D01*
Y12675D01*
X11279D01*
X11355Y12726D02*
X11321D01*
Y12701D01*
X11338Y12709D01*
X11347D01*
X11355Y12701D01*
Y12684D01*
X11347Y12675D01*
X11330D01*
X11321Y12684D01*
X13462Y11155D02*
X13470Y11164D01*
X13487D01*
X13496Y11155D01*
Y11122D01*
X13487Y11113D01*
X13470D01*
X13462Y11122D01*
Y11155D01*
X13513Y11113D02*
Y11122D01*
X13521D01*
Y11113D01*
X13513D01*
X13589Y11164D02*
X13555D01*
Y11139D01*
X13572Y11147D01*
X13580D01*
X13589Y11139D01*
Y11122D01*
X13580Y11113D01*
X13563D01*
X13555Y11122D01*
X13970Y11155D02*
X13978Y11164D01*
X13995D01*
X14004Y11155D01*
Y11122D01*
X13995Y11113D01*
X13978D01*
X13970Y11122D01*
Y11155D01*
X14021Y11113D02*
Y11122D01*
X14029D01*
Y11113D01*
X14021D01*
X14097Y11164D02*
X14063D01*
Y11139D01*
X14080Y11147D01*
X14088D01*
X14097Y11139D01*
Y11122D01*
X14088Y11113D01*
X14071D01*
X14063Y11122D01*
X14476Y11155D02*
X14485Y11164D01*
X14502D01*
X14510Y11155D01*
Y11122D01*
X14502Y11113D01*
X14485D01*
X14476Y11122D01*
Y11155D01*
X14527Y11113D02*
Y11122D01*
X14536D01*
Y11113D01*
X14527D01*
X14603Y11164D02*
X14570D01*
Y11139D01*
X14587Y11147D01*
X14595D01*
X14603Y11139D01*
Y11122D01*
X14595Y11113D01*
X14578D01*
X14570Y11122D01*
X9674Y11704D02*
X9682Y11713D01*
X9699D01*
X9708Y11704D01*
Y11670D01*
X9699Y11662D01*
X9682D01*
X9674Y11670D01*
Y11704D01*
X9725Y11662D02*
Y11670D01*
X9733D01*
Y11662D01*
X9725D01*
X9801Y11713D02*
X9767D01*
Y11687D01*
X9784Y11696D01*
X9792D01*
X9801Y11687D01*
Y11670D01*
X9792Y11662D01*
X9775D01*
X9767Y11670D01*
X11551Y11554D02*
X11559Y11563D01*
X11576D01*
X11585Y11554D01*
Y11520D01*
X11576Y11512D01*
X11559D01*
X11551Y11520D01*
Y11554D01*
X11602Y11512D02*
Y11520D01*
X11610D01*
Y11512D01*
X11602D01*
X11678Y11563D02*
X11644D01*
Y11537D01*
X11661Y11546D01*
X11669D01*
X11678Y11537D01*
Y11520D01*
X11669Y11512D01*
X11652D01*
X11644Y11520D01*
X11551Y11732D02*
X11559Y11740D01*
X11576D01*
X11585Y11732D01*
Y11698D01*
X11576Y11690D01*
X11559D01*
X11551Y11698D01*
Y11732D01*
X11602Y11690D02*
Y11698D01*
X11610D01*
Y11690D01*
X11602D01*
X11678Y11740D02*
X11644D01*
Y11715D01*
X11661Y11724D01*
X11669D01*
X11678Y11715D01*
Y11698D01*
X11669Y11690D01*
X11652D01*
X11644Y11698D01*
X11551Y11935D02*
X11559Y11944D01*
X11576D01*
X11585Y11935D01*
Y11901D01*
X11576Y11893D01*
X11559D01*
X11551Y11901D01*
Y11935D01*
X11602Y11893D02*
Y11901D01*
X11610D01*
Y11893D01*
X11602D01*
X11678Y11944D02*
X11644D01*
Y11918D01*
X11661Y11927D01*
X11669D01*
X11678Y11918D01*
Y11901D01*
X11669Y11893D01*
X11652D01*
X11644Y11901D01*
X11576Y12138D02*
X11585Y12147D01*
X11602D01*
X11610Y12138D01*
Y12105D01*
X11602Y12096D01*
X11585D01*
X11576Y12105D01*
Y12138D01*
X11627Y12096D02*
Y12105D01*
X11636D01*
Y12096D01*
X11627D01*
X11703Y12147D02*
X11669D01*
Y12121D01*
X11686Y12130D01*
X11695D01*
X11703Y12121D01*
Y12105D01*
X11695Y12096D01*
X11678D01*
X11669Y12105D01*
X12237Y12298D02*
X12245Y12307D01*
X12262D01*
X12271Y12298D01*
Y12265D01*
X12262Y12256D01*
X12245D01*
X12237Y12265D01*
Y12298D01*
X12288Y12256D02*
Y12265D01*
X12296D01*
Y12256D01*
X12288D01*
X12364Y12307D02*
X12330D01*
Y12282D01*
X12347Y12290D01*
X12355D01*
X12364Y12282D01*
Y12265D01*
X12355Y12256D01*
X12338D01*
X12330Y12265D01*
X12510Y12298D02*
X12518Y12307D01*
X12535D01*
X12544Y12298D01*
Y12265D01*
X12535Y12256D01*
X12518D01*
X12510Y12265D01*
Y12298D01*
X12561Y12256D02*
Y12265D01*
X12569D01*
Y12256D01*
X12561D01*
X12637Y12307D02*
X12603D01*
Y12282D01*
X12620Y12290D01*
X12629D01*
X12637Y12282D01*
Y12265D01*
X12629Y12256D01*
X12612D01*
X12603Y12265D01*
X12785Y12301D02*
X12794Y12309D01*
X12811D01*
X12819Y12301D01*
Y12267D01*
X12811Y12259D01*
X12794D01*
X12785Y12267D01*
Y12301D01*
X12836Y12259D02*
Y12267D01*
X12845D01*
Y12259D01*
X12836D01*
X12912Y12309D02*
X12878D01*
Y12284D01*
X12895Y12293D01*
X12904D01*
X12912Y12284D01*
Y12267D01*
X12904Y12259D01*
X12887D01*
X12878Y12267D01*
X13060Y12294D02*
X13068Y12303D01*
X13085D01*
X13094Y12294D01*
Y12261D01*
X13085Y12252D01*
X13068D01*
X13060Y12261D01*
Y12294D01*
X13110Y12252D02*
Y12261D01*
X13119D01*
Y12252D01*
X13110D01*
X13187Y12303D02*
X13153D01*
Y12277D01*
X13170Y12286D01*
X13178D01*
X13187Y12277D01*
Y12261D01*
X13178Y12252D01*
X13161D01*
X13153Y12261D01*
X15252Y11155D02*
X15260Y11164D01*
X15277D01*
X15286Y11155D01*
Y11122D01*
X15277Y11113D01*
X15260D01*
X15252Y11122D01*
Y11155D01*
X15302Y11113D02*
Y11122D01*
X15311D01*
Y11113D01*
X15302D01*
X15379Y11164D02*
X15345D01*
Y11139D01*
X15362Y11147D01*
X15370D01*
X15379Y11139D01*
Y11122D01*
X15370Y11113D01*
X15353D01*
X15345Y11122D01*
M02*
