G04 Layer_Color=65535*
%FSLAX42Y42*%
%MOMM*%
G71*
G01*
G75*
%ADD31C,0.25*%
%ADD32C,0.25*%
%ADD33C,0.05*%
%ADD34C,0.20*%
%ADD35C,0.20*%
D31*
X15498Y12009D02*
G03*
X15498Y12009I-160J0D01*
G01*
X4849Y12010D02*
G03*
X4849Y12010I-160J0D01*
G01*
X7144Y3036D02*
G03*
X7144Y3036I-160J0D01*
G01*
X13166Y3049D02*
G03*
X13166Y3049I-160J0D01*
G01*
X9157Y12018D02*
G03*
X9157Y12018I-22J0D01*
G01*
X9016Y12018D02*
G03*
X9016Y12018I-22J0D01*
G01*
X8874D02*
G03*
X8874Y12018I-22J0D01*
G01*
X8733Y12018D02*
G03*
X8733Y12018I-22J0D01*
G01*
X8598Y11884D02*
G03*
X8598Y11884I-22J0D01*
G01*
X8740Y11884D02*
G03*
X8740Y11884I-22J0D01*
G01*
X8881D02*
G03*
X8881Y11884I-22J0D01*
G01*
X9023Y11870D02*
G03*
X9023Y11870I-22J0D01*
G01*
X9164Y11870D02*
G03*
X9164Y11870I-22J0D01*
G01*
X11583Y12018D02*
G03*
X11583Y12018I-22J0D01*
G01*
X11441Y12018D02*
G03*
X11441Y12018I-22J0D01*
G01*
X11300D02*
G03*
X11300Y12018I-22J0D01*
G01*
X11158Y12018D02*
G03*
X11158Y12018I-22J0D01*
G01*
X11024Y11884D02*
G03*
X11024Y11884I-22J0D01*
G01*
X11165Y11884D02*
G03*
X11165Y11884I-22J0D01*
G01*
X11307D02*
G03*
X11307Y11884I-22J0D01*
G01*
X11448Y11870D02*
G03*
X11448Y11870I-22J0D01*
G01*
X11590Y11870D02*
G03*
X11590Y11870I-22J0D01*
G01*
X12912Y12962D02*
G03*
X12965Y12957I25J-11D01*
G01*
X12963Y12632D02*
G03*
X12911Y12637I-25J11D01*
G01*
X12638Y12962D02*
G03*
X12690Y12957I25J-11D01*
G01*
X12689Y12632D02*
G03*
X12637Y12637I-25J11D01*
G01*
X12363Y12960D02*
G03*
X12415Y12955I25J-11D01*
G01*
X12414Y12630D02*
G03*
X12361Y12635I-25J11D01*
G01*
X12089Y12962D02*
G03*
X12142Y12957I25J-11D01*
G01*
X12140Y12632D02*
G03*
X12088Y12637I-25J11D01*
G01*
X6765Y10510D02*
G03*
X6423Y10851I-341J0D01*
G01*
X5165Y9593D02*
G03*
X5506Y9251I341J0D01*
G01*
Y10851D02*
G03*
X5165Y10510I0J-341D01*
G01*
X6465Y9251D02*
G03*
X6765Y9551I0J300D01*
G01*
X8780Y10503D02*
G03*
X8439Y10844I-341J0D01*
G01*
X7180Y9586D02*
G03*
X7522Y9244I341J0D01*
G01*
Y10844D02*
G03*
X7180Y10503I0J-341D01*
G01*
X8480Y9244D02*
G03*
X8780Y9544I0J300D01*
G01*
X10815Y10507D02*
G03*
X10474Y10849I-341J0D01*
G01*
X9215Y9590D02*
G03*
X9557Y9249I341J0D01*
G01*
Y10849D02*
G03*
X9215Y10507I0J-341D01*
G01*
X10515Y9249D02*
G03*
X10815Y9549I0J300D01*
G01*
X12831Y10507D02*
G03*
X12490Y10848I-341J0D01*
G01*
X11231Y9589D02*
G03*
X11573Y9248I341J0D01*
G01*
Y10848D02*
G03*
X11231Y10507I0J-341D01*
G01*
X12531Y9248D02*
G03*
X12831Y9548I0J300D01*
G01*
X12531Y7218D02*
G03*
X12831Y7518I0J300D01*
G01*
X11573Y8818D02*
G03*
X11231Y8477I0J-341D01*
G01*
Y7559D02*
G03*
X11573Y7218I341J0D01*
G01*
X12831Y8477D02*
G03*
X12490Y8818I-341J0D01*
G01*
X10515Y7219D02*
G03*
X10815Y7519I0J300D01*
G01*
X9557Y8819D02*
G03*
X9215Y8477I0J-341D01*
G01*
Y7560D02*
G03*
X9557Y7219I341J0D01*
G01*
X10815Y8477D02*
G03*
X10474Y8819I-341J0D01*
G01*
X8480Y7224D02*
G03*
X8780Y7524I0J300D01*
G01*
X7522Y8824D02*
G03*
X7180Y8483I0J-341D01*
G01*
Y7566D02*
G03*
X7522Y7224I341J0D01*
G01*
X8780Y8483D02*
G03*
X8439Y8824I-341J0D01*
G01*
X6465Y7221D02*
G03*
X6765Y7521I0J300D01*
G01*
X5506Y8821D02*
G03*
X5165Y8480I0J-341D01*
G01*
Y7563D02*
G03*
X5506Y7221I341J0D01*
G01*
X6765Y8480D02*
G03*
X6423Y8821I-341J0D01*
G01*
X6765Y4420D02*
G03*
X6423Y4761I-341J0D01*
G01*
X5165Y3503D02*
G03*
X5506Y3161I341J0D01*
G01*
Y4761D02*
G03*
X5165Y4420I0J-341D01*
G01*
X6465Y3161D02*
G03*
X6765Y3461I0J300D01*
G01*
X8780Y4423D02*
G03*
X8439Y4764I-341J0D01*
G01*
X7180Y3506D02*
G03*
X7522Y3164I341J0D01*
G01*
Y4764D02*
G03*
X7180Y4423I0J-341D01*
G01*
X8480Y3164D02*
G03*
X8780Y3464I0J300D01*
G01*
X10815Y4417D02*
G03*
X10474Y4759I-341J0D01*
G01*
X9215Y3500D02*
G03*
X9557Y3159I341J0D01*
G01*
Y4759D02*
G03*
X9215Y4417I0J-341D01*
G01*
X10515Y3159D02*
G03*
X10815Y3459I0J300D01*
G01*
X12831Y4417D02*
G03*
X12490Y4758I-341J0D01*
G01*
X11231Y3499D02*
G03*
X11573Y3158I341J0D01*
G01*
Y4758D02*
G03*
X11231Y4417I0J-341D01*
G01*
X12531Y3158D02*
G03*
X12831Y3458I0J300D01*
G01*
X12531Y5188D02*
G03*
X12831Y5488I0J300D01*
G01*
X11573Y6788D02*
G03*
X11231Y6447I0J-341D01*
G01*
Y5529D02*
G03*
X11573Y5188I341J0D01*
G01*
X12831Y6447D02*
G03*
X12490Y6788I-341J0D01*
G01*
X10515Y5189D02*
G03*
X10815Y5489I0J300D01*
G01*
X9557Y6789D02*
G03*
X9215Y6447I0J-341D01*
G01*
Y5530D02*
G03*
X9557Y5189I341J0D01*
G01*
X10815Y6447D02*
G03*
X10474Y6789I-341J0D01*
G01*
X8480Y5194D02*
G03*
X8780Y5494I0J300D01*
G01*
X7522Y6794D02*
G03*
X7180Y6453I0J-341D01*
G01*
Y5536D02*
G03*
X7522Y5194I341J0D01*
G01*
X8780Y6453D02*
G03*
X8439Y6794I-341J0D01*
G01*
X6465Y5191D02*
G03*
X6765Y5491I0J300D01*
G01*
X5506Y6791D02*
G03*
X5165Y6450I0J-341D01*
G01*
Y5533D02*
G03*
X5506Y5191I341J0D01*
G01*
X6765Y6450D02*
G03*
X6423Y6791I-341J0D01*
G01*
X14868Y10550D02*
G03*
X14568Y10850I-300J0D01*
G01*
X13268Y9592D02*
G03*
X13610Y9250I341J0D01*
G01*
X14527D02*
G03*
X14868Y9592I0J341D01*
G01*
X13610Y10850D02*
G03*
X13268Y10509I0J-341D01*
G01*
X14867Y8522D02*
G03*
X14567Y8822I-300J0D01*
G01*
X13267Y7563D02*
G03*
X13609Y7222I341J0D01*
G01*
X14526D02*
G03*
X14867Y7563I0J341D01*
G01*
X13609Y8822D02*
G03*
X13267Y8480I0J-341D01*
G01*
X14862Y6487D02*
G03*
X14562Y6787I-300J0D01*
G01*
X13262Y5528D02*
G03*
X13603Y5187I341J0D01*
G01*
X14521D02*
G03*
X14862Y5528I0J341D01*
G01*
X13603Y6787D02*
G03*
X13262Y6445I0J-341D01*
G01*
X14865Y4458D02*
G03*
X14565Y4758I-300J0D01*
G01*
X13265Y3500D02*
G03*
X13606Y3158I341J0D01*
G01*
X14523D02*
G03*
X14865Y3500I0J341D01*
G01*
X13606Y4758D02*
G03*
X13265Y4417I0J-341D01*
G01*
X15948Y9566D02*
Y10201D01*
X15389Y9566D02*
X15948D01*
X15389D02*
Y10836D01*
X15948D01*
Y10201D02*
Y10836D01*
X15088Y11759D02*
X15468D01*
X15588Y11879D01*
Y12259D01*
X15088Y11759D02*
Y12259D01*
X15588D01*
X4559Y12260D02*
X4939D01*
X4439Y12140D02*
X4559Y12260D01*
X4439Y11760D02*
Y12140D01*
X4939Y11760D02*
Y12260D01*
X4439Y11760D02*
X4939D01*
X6734Y2786D02*
X7114D01*
X7234Y2906D01*
Y3286D01*
X6734Y2786D02*
Y3286D01*
X7234D01*
X12876Y3299D02*
X13256D01*
X12756Y3179D02*
X12876Y3299D01*
X12756Y2799D02*
Y3179D01*
X13256Y2799D02*
Y3299D01*
X12756Y2799D02*
X13256D01*
X12912Y12759D02*
X12963D01*
X12853Y12772D02*
X13023D01*
X12853Y12797D02*
X13023D01*
X12853Y12962D02*
X12912D01*
X12965Y12962D02*
X13023D01*
X12853Y12632D02*
X12911Y12632D01*
X12963D02*
X13023D01*
X12853Y12692D02*
X13023D01*
X12853Y12902D02*
X13023D01*
X13023Y12632D02*
Y12962D01*
X12853Y12632D02*
Y12962D01*
X12638Y12759D02*
X12689D01*
X12578Y12772D02*
X12748D01*
X12578Y12797D02*
X12748D01*
X12578Y12962D02*
X12638D01*
X12690Y12962D02*
X12748D01*
X12578Y12632D02*
X12637Y12632D01*
X12689D02*
X12748D01*
X12578Y12692D02*
X12748D01*
X12578Y12902D02*
X12748D01*
X12748Y12632D02*
Y12962D01*
X12578Y12632D02*
Y12962D01*
X12363Y12757D02*
X12414D01*
X12303Y12769D02*
X12473D01*
X12303Y12795D02*
X12473D01*
X12303Y12960D02*
X12363D01*
X12415Y12960D02*
X12473D01*
X12303Y12630D02*
X12361Y12630D01*
X12414D02*
X12473D01*
X12303Y12690D02*
X12473D01*
X12303Y12900D02*
X12473D01*
X12473Y12630D02*
Y12960D01*
X12303Y12630D02*
Y12960D01*
X12089Y12759D02*
X12140D01*
X12030Y12772D02*
X12200D01*
X12030Y12797D02*
X12200D01*
X12030Y12962D02*
X12089D01*
X12142Y12962D02*
X12200D01*
X12030Y12632D02*
X12088Y12632D01*
X12140D02*
X12200D01*
X12030Y12692D02*
X12200D01*
X12030Y12902D02*
X12200D01*
X12200Y12632D02*
Y12962D01*
X12030Y12632D02*
Y12962D01*
X5958Y11796D02*
Y12431D01*
X5399Y11796D02*
X5958D01*
X5399D02*
Y13066D01*
X5958D01*
Y12431D02*
Y13066D01*
X5506Y10851D02*
X6423D01*
X6765Y9551D02*
Y10510D01*
X5506Y9251D02*
X6465D01*
X5165Y9593D02*
Y10510D01*
X7522Y10844D02*
X8439D01*
X8780Y9544D02*
Y10503D01*
X7522Y9244D02*
X8480D01*
X7180Y9586D02*
Y10503D01*
X9557Y10849D02*
X10474D01*
X10815Y9549D02*
Y10507D01*
X9557Y9249D02*
X10515D01*
X9215Y9590D02*
Y10507D01*
X11573Y10848D02*
X12490D01*
X12831Y9548D02*
Y10507D01*
X11573Y9248D02*
X12531D01*
X11231Y9589D02*
Y10507D01*
X11231Y7559D02*
Y8477D01*
X11573Y7218D02*
X12531D01*
X12831Y7518D02*
Y8477D01*
X11573Y8818D02*
X12490D01*
X9215Y7560D02*
Y8477D01*
X9557Y7219D02*
X10515D01*
X10815Y7519D02*
Y8477D01*
X9557Y8819D02*
X10474D01*
X7180Y7566D02*
Y8483D01*
X7522Y7224D02*
X8480D01*
X8780Y7524D02*
Y8483D01*
X7522Y8824D02*
X8439D01*
X5165Y7563D02*
Y8480D01*
X5506Y7221D02*
X6465D01*
X6765Y7521D02*
Y8480D01*
X5506Y8821D02*
X6423D01*
X5506Y4761D02*
X6423D01*
X6765Y3461D02*
Y4420D01*
X5506Y3161D02*
X6465D01*
X5165Y3503D02*
Y4420D01*
X7522Y4764D02*
X8439D01*
X8780Y3464D02*
Y4423D01*
X7522Y3164D02*
X8480D01*
X7180Y3506D02*
Y4423D01*
X9557Y4759D02*
X10474D01*
X10815Y3459D02*
Y4417D01*
X9557Y3159D02*
X10515D01*
X9215Y3500D02*
Y4417D01*
X11573Y4758D02*
X12490D01*
X12831Y3458D02*
Y4417D01*
X11573Y3158D02*
X12531D01*
X11231Y3499D02*
Y4417D01*
X11231Y5529D02*
Y6447D01*
X11573Y5188D02*
X12531D01*
X12831Y5488D02*
Y6447D01*
X11573Y6788D02*
X12490D01*
X9215Y5530D02*
Y6447D01*
X9557Y5189D02*
X10515D01*
X10815Y5489D02*
Y6447D01*
X9557Y6789D02*
X10474D01*
X7180Y5536D02*
Y6453D01*
X7522Y5194D02*
X8480D01*
X8780Y5494D02*
Y6453D01*
X7522Y6794D02*
X8439D01*
X5165Y5533D02*
Y6450D01*
X5506Y5191D02*
X6465D01*
X6765Y5491D02*
Y6450D01*
X5506Y6791D02*
X6423D01*
X13610Y9250D02*
X14527D01*
X14868Y9592D02*
Y10550D01*
X13610Y10850D02*
X14568D01*
X13268Y9592D02*
Y10509D01*
X13609Y7222D02*
X14526D01*
X14867Y7563D02*
Y8522D01*
X13609Y8822D02*
X14567D01*
X13267Y7563D02*
Y8480D01*
X13603Y5187D02*
X14521D01*
X14862Y5528D02*
Y6487D01*
X13603Y6787D02*
X14562D01*
X13262Y5528D02*
Y6445D01*
X13606Y3158D02*
X14523D01*
X14865Y3500D02*
Y4458D01*
X13606Y4758D02*
X14565D01*
X13265Y3500D02*
Y4417D01*
X5808Y9889D02*
X6098D01*
X5808D02*
Y10249D01*
X5858Y9947D02*
X6048D01*
X5858D02*
Y10039D01*
X6048D01*
Y9947D02*
Y10039D01*
X5855Y10102D02*
X6048D01*
X5855D02*
Y10192D01*
X6048Y10102D02*
Y10162D01*
X6018Y10192D02*
X6048Y10162D01*
X5855Y10192D02*
X6018D01*
X5808Y10249D02*
X6038D01*
X6098Y10189D01*
Y9889D02*
Y10189D01*
X8122Y9889D02*
Y10189D01*
X8062Y10249D02*
X8122Y10189D01*
X7832Y10249D02*
X8062D01*
X7880Y10192D02*
X8042D01*
X8072Y10162D01*
Y10102D02*
Y10162D01*
X7880Y10102D02*
Y10192D01*
Y10102D02*
X8072D01*
Y9947D02*
Y10039D01*
X7882D02*
X8072D01*
X7882Y9947D02*
Y10039D01*
Y9947D02*
X8072D01*
X7832Y9889D02*
Y10249D01*
Y9889D02*
X8122D01*
X9872D02*
X10162D01*
X9872D02*
Y10249D01*
X9922Y9947D02*
X10112D01*
X9922D02*
Y10039D01*
X10112D01*
Y9947D02*
Y10039D01*
X9919Y10102D02*
X10112D01*
X9919D02*
Y10192D01*
X10112Y10102D02*
Y10162D01*
X10082Y10192D02*
X10112Y10162D01*
X9919Y10192D02*
X10082D01*
X9872Y10249D02*
X10102D01*
X10162Y10189D01*
Y9889D02*
Y10189D01*
X12171Y9889D02*
Y10189D01*
X12111Y10249D02*
X12171Y10189D01*
X11881Y10249D02*
X12111D01*
X11928Y10192D02*
X12091D01*
X12121Y10162D01*
Y10102D02*
Y10162D01*
X11928Y10102D02*
Y10192D01*
Y10102D02*
X12121D01*
Y9947D02*
Y10039D01*
X11931D02*
X12121D01*
X11931Y9947D02*
Y10039D01*
Y9947D02*
X12121D01*
X11881Y9889D02*
Y10249D01*
Y9889D02*
X12171D01*
X13910D02*
X14200D01*
X13910D02*
Y10249D01*
X13960Y9947D02*
X14150D01*
X13960D02*
Y10039D01*
X14150D01*
Y9947D02*
Y10039D01*
X13958Y10102D02*
X14150D01*
X13958D02*
Y10192D01*
X14150Y10102D02*
Y10162D01*
X14120Y10192D02*
X14150Y10162D01*
X13958Y10192D02*
X14120D01*
X13910Y10249D02*
X14140D01*
X14200Y10189D01*
Y9889D02*
Y10189D01*
X6098Y7829D02*
Y8129D01*
X6038Y8189D02*
X6098Y8129D01*
X5808Y8189D02*
X6038D01*
X5855Y8132D02*
X6018D01*
X6048Y8102D01*
Y8042D02*
Y8102D01*
X5855Y8042D02*
Y8132D01*
Y8042D02*
X6048D01*
Y7887D02*
Y7979D01*
X5858D02*
X6048D01*
X5858Y7887D02*
Y7979D01*
Y7887D02*
X6048D01*
X5808Y7829D02*
Y8189D01*
Y7829D02*
X6098D01*
X7832D02*
X8122D01*
X7832D02*
Y8189D01*
X7882Y7887D02*
X8072D01*
X7882D02*
Y7979D01*
X8072D01*
Y7887D02*
Y7979D01*
X7880Y8042D02*
X8072D01*
X7880D02*
Y8132D01*
X8072Y8042D02*
Y8102D01*
X8042Y8132D02*
X8072Y8102D01*
X7880Y8132D02*
X8042D01*
X7832Y8189D02*
X8062D01*
X8122Y8129D01*
Y7829D02*
Y8129D01*
X10162Y7829D02*
Y8129D01*
X10102Y8189D02*
X10162Y8129D01*
X9872Y8189D02*
X10102D01*
X9919Y8132D02*
X10082D01*
X10112Y8102D01*
Y8042D02*
Y8102D01*
X9919Y8042D02*
Y8132D01*
Y8042D02*
X10112D01*
Y7887D02*
Y7979D01*
X9922D02*
X10112D01*
X9922Y7887D02*
Y7979D01*
Y7887D02*
X10112D01*
X9872Y7829D02*
Y8189D01*
Y7829D02*
X10162D01*
X11881D02*
X12171D01*
X11881D02*
Y8189D01*
X11931Y7887D02*
X12121D01*
X11931D02*
Y7979D01*
X12121D01*
Y7887D02*
Y7979D01*
X11928Y8042D02*
X12121D01*
X11928D02*
Y8132D01*
X12121Y8042D02*
Y8102D01*
X12091Y8132D02*
X12121Y8102D01*
X11928Y8132D02*
X12091D01*
X11881Y8189D02*
X12111D01*
X12171Y8129D01*
Y7829D02*
Y8129D01*
X14200Y7829D02*
Y8129D01*
X14140Y8189D02*
X14200Y8129D01*
X13910Y8189D02*
X14140D01*
X13958Y8132D02*
X14120D01*
X14150Y8102D01*
Y8042D02*
Y8102D01*
X13958Y8042D02*
Y8132D01*
Y8042D02*
X14150D01*
Y7887D02*
Y7979D01*
X13960D02*
X14150D01*
X13960Y7887D02*
Y7979D01*
Y7887D02*
X14150D01*
X13910Y7829D02*
Y8189D01*
Y7829D02*
X14200D01*
X5808Y5807D02*
X6098D01*
X5808D02*
Y6167D01*
X5858Y5865D02*
X6048D01*
X5858D02*
Y5957D01*
X6048D01*
Y5865D02*
Y5957D01*
X5855Y6020D02*
X6048D01*
X5855D02*
Y6110D01*
X6048Y6020D02*
Y6080D01*
X6018Y6110D02*
X6048Y6080D01*
X5855Y6110D02*
X6018D01*
X5808Y6167D02*
X6038D01*
X6098Y6107D01*
Y5807D02*
Y6107D01*
X8122Y5807D02*
Y6107D01*
X8062Y6167D02*
X8122Y6107D01*
X7832Y6167D02*
X8062D01*
X7880Y6110D02*
X8042D01*
X8072Y6080D01*
Y6020D02*
Y6080D01*
X7880Y6020D02*
Y6110D01*
Y6020D02*
X8072D01*
Y5865D02*
Y5957D01*
X7882D02*
X8072D01*
X7882Y5865D02*
Y5957D01*
Y5865D02*
X8072D01*
X7832Y5807D02*
Y6167D01*
Y5807D02*
X8122D01*
X9872D02*
X10162D01*
X9872D02*
Y6167D01*
X9922Y5865D02*
X10112D01*
X9922D02*
Y5957D01*
X10112D01*
Y5865D02*
Y5957D01*
X9919Y6020D02*
X10112D01*
X9919D02*
Y6110D01*
X10112Y6020D02*
Y6080D01*
X10082Y6110D02*
X10112Y6080D01*
X9919Y6110D02*
X10082D01*
X9872Y6167D02*
X10102D01*
X10162Y6107D01*
Y5807D02*
Y6107D01*
X12171Y5807D02*
Y6107D01*
X12111Y6167D02*
X12171Y6107D01*
X11881Y6167D02*
X12111D01*
X11928Y6110D02*
X12091D01*
X12121Y6080D01*
Y6020D02*
Y6080D01*
X11928Y6020D02*
Y6110D01*
Y6020D02*
X12121D01*
Y5865D02*
Y5957D01*
X11931D02*
X12121D01*
X11931Y5865D02*
Y5957D01*
Y5865D02*
X12121D01*
X11881Y5807D02*
Y6167D01*
Y5807D02*
X12171D01*
X13910D02*
X14200D01*
X13910D02*
Y6167D01*
X13960Y5865D02*
X14150D01*
X13960D02*
Y5957D01*
X14150D01*
Y5865D02*
Y5957D01*
X13958Y6020D02*
X14150D01*
X13958D02*
Y6110D01*
X14150Y6020D02*
Y6080D01*
X14120Y6110D02*
X14150Y6080D01*
X13958Y6110D02*
X14120D01*
X13910Y6167D02*
X14140D01*
X14200Y6107D01*
Y5807D02*
Y6107D01*
X6098Y3780D02*
Y4080D01*
X6038Y4140D02*
X6098Y4080D01*
X5808Y4140D02*
X6038D01*
X5855Y4083D02*
X6018D01*
X6048Y4053D01*
Y3993D02*
Y4053D01*
X5855Y3993D02*
Y4083D01*
Y3993D02*
X6048D01*
Y3838D02*
Y3930D01*
X5858D02*
X6048D01*
X5858Y3838D02*
Y3930D01*
Y3838D02*
X6048D01*
X5808Y3780D02*
Y4140D01*
Y3780D02*
X6098D01*
X7832D02*
X8122D01*
X7832D02*
Y4140D01*
X7882Y3838D02*
X8072D01*
X7882D02*
Y3930D01*
X8072D01*
Y3838D02*
Y3930D01*
X7880Y3993D02*
X8072D01*
X7880D02*
Y4083D01*
X8072Y3993D02*
Y4053D01*
X8042Y4083D02*
X8072Y4053D01*
X7880Y4083D02*
X8042D01*
X7832Y4140D02*
X8062D01*
X8122Y4080D01*
Y3780D02*
Y4080D01*
X10162Y3780D02*
Y4080D01*
X10102Y4140D02*
X10162Y4080D01*
X9872Y4140D02*
X10102D01*
X9919Y4083D02*
X10082D01*
X10112Y4053D01*
Y3993D02*
Y4053D01*
X9919Y3993D02*
Y4083D01*
Y3993D02*
X10112D01*
Y3838D02*
Y3930D01*
X9922D02*
X10112D01*
X9922Y3838D02*
Y3930D01*
Y3838D02*
X10112D01*
X9872Y3780D02*
Y4140D01*
Y3780D02*
X10162D01*
X11881D02*
X12171D01*
X11881D02*
Y4140D01*
X11931Y3838D02*
X12121D01*
X11931D02*
Y3930D01*
X12121D01*
Y3838D02*
Y3930D01*
X11928Y3993D02*
X12121D01*
X11928D02*
Y4083D01*
X12121Y3993D02*
Y4053D01*
X12091Y4083D02*
X12121Y4053D01*
X11928Y4083D02*
X12091D01*
X11881Y4140D02*
X12111D01*
X12171Y4080D01*
Y3780D02*
Y4080D01*
X14200Y3780D02*
Y4080D01*
X14140Y4140D02*
X14200Y4080D01*
X13910Y4140D02*
X14140D01*
X13958Y4083D02*
X14120D01*
X14150Y4053D01*
Y3993D02*
Y4053D01*
X13958Y3993D02*
Y4083D01*
Y3993D02*
X14150D01*
Y3838D02*
Y3930D01*
X13960D02*
X14150D01*
X13960Y3838D02*
Y3930D01*
Y3838D02*
X14150D01*
X13910Y3780D02*
Y4140D01*
Y3780D02*
X14200D01*
D32*
X13379Y11264D02*
G03*
X13379Y11264I-12J0D01*
G01*
X13887D02*
G03*
X13887Y11264I-12J0D01*
G01*
X14394D02*
G03*
X14394Y11264I-12J0D01*
G01*
X15317Y3662D02*
G03*
X15317Y3662I-12J0D01*
G01*
Y5668D02*
G03*
X15317Y5668I-12J0D01*
G01*
Y7726D02*
G03*
X15317Y7726I-12J0D01*
G01*
Y9758D02*
G03*
X15317Y9758I-12J0D01*
G01*
X9300Y12392D02*
G03*
X9300Y12392I-12J0D01*
G01*
X11726D02*
G03*
X11726Y12392I-12J0D01*
G01*
D33*
X12773Y11728D02*
G03*
X12798Y11703I25J0D01*
G01*
X12223Y11378D02*
G03*
X12198Y11403I-25J0D01*
G01*
X12798D02*
G03*
X12773Y11378I0J-25D01*
G01*
X12198Y11703D02*
G03*
X12223Y11728I0J25D01*
G01*
X12798Y11563D02*
Y11703D01*
X12498Y11728D02*
X12773D01*
X12788Y11553D02*
Y11558D01*
X12798Y11563D01*
X12198Y11403D02*
Y11543D01*
X12223Y11378D02*
X12498D01*
X12208Y11548D02*
Y11553D01*
X12198Y11543D02*
X12208Y11548D01*
X12798Y11403D02*
Y11543D01*
X12498Y11378D02*
X12773D01*
X12788Y11548D02*
Y11553D01*
Y11548D02*
X12798Y11543D01*
X12198Y11563D02*
Y11703D01*
X12223Y11728D02*
X12498D01*
X12208Y11553D02*
Y11558D01*
X12198Y11563D02*
X12208Y11558D01*
D34*
X13768Y3295D02*
Y3645D01*
X13918Y3295D02*
Y3645D01*
X13893D02*
X13918D01*
X13768D02*
X13793D01*
X13768Y3295D02*
X13793D01*
X13893D02*
X13918D01*
X11738D02*
Y3645D01*
X11888Y3295D02*
Y3645D01*
X11863D02*
X11888D01*
X11738D02*
X11763D01*
X11738Y3295D02*
X11763D01*
X11863D02*
X11888D01*
X9729D02*
Y3645D01*
X9879Y3295D02*
Y3645D01*
X9854D02*
X9879D01*
X9729D02*
X9754D01*
X9729Y3295D02*
X9754D01*
X9854D02*
X9879D01*
X7690Y3295D02*
Y3645D01*
X7840Y3295D02*
Y3645D01*
X7815D02*
X7840D01*
X7690D02*
X7715D01*
X7690Y3295D02*
X7715D01*
X7815D02*
X7840D01*
X5658D02*
Y3645D01*
X5808Y3295D02*
Y3645D01*
X5783D02*
X5808D01*
X5658D02*
X5683D01*
X5658Y3295D02*
X5683D01*
X5783D02*
X5808D01*
X13763Y5348D02*
Y5698D01*
X13913Y5348D02*
Y5698D01*
X13888D02*
X13913D01*
X13763D02*
X13788D01*
X13763Y5348D02*
X13788D01*
X13888D02*
X13913D01*
X11738D02*
Y5698D01*
X11888Y5348D02*
Y5698D01*
X11863D02*
X11888D01*
X11738D02*
X11763D01*
X11738Y5348D02*
X11763D01*
X11863D02*
X11888D01*
X9729D02*
Y5698D01*
X9879Y5348D02*
Y5698D01*
X9854D02*
X9879D01*
X9729D02*
X9754D01*
X9729Y5348D02*
X9754D01*
X9854D02*
X9879D01*
X7690D02*
Y5698D01*
X7840Y5348D02*
Y5698D01*
X7815D02*
X7840D01*
X7690D02*
X7715D01*
X7690Y5348D02*
X7715D01*
X7815D02*
X7840D01*
X13768Y7344D02*
Y7694D01*
X13918Y7344D02*
Y7694D01*
X13893D02*
X13918D01*
X13768D02*
X13793D01*
X13768Y7344D02*
X13793D01*
X13893D02*
X13918D01*
X11738D02*
Y7694D01*
X11888Y7344D02*
Y7694D01*
X11863D02*
X11888D01*
X11738D02*
X11763D01*
X11738Y7344D02*
X11763D01*
X11863D02*
X11888D01*
X9729D02*
Y7694D01*
X9879Y7344D02*
Y7694D01*
X9854D02*
X9879D01*
X9729D02*
X9754D01*
X9729Y7344D02*
X9754D01*
X9854D02*
X9879D01*
X7690D02*
Y7694D01*
X7840Y7344D02*
Y7694D01*
X7815D02*
X7840D01*
X7690D02*
X7715D01*
X7690Y7344D02*
X7715D01*
X7815D02*
X7840D01*
X14343Y3295D02*
Y3645D01*
X14193Y3295D02*
Y3645D01*
Y3295D02*
X14218D01*
X14318D02*
X14343D01*
X14318Y3645D02*
X14343D01*
X14193D02*
X14218D01*
X12313Y3295D02*
Y3645D01*
X12163Y3295D02*
Y3645D01*
Y3295D02*
X12188D01*
X12288D02*
X12313D01*
X12288Y3645D02*
X12313D01*
X12163D02*
X12188D01*
X10304Y3295D02*
Y3645D01*
X10154Y3295D02*
Y3645D01*
Y3295D02*
X10179D01*
X10279D02*
X10304D01*
X10279Y3645D02*
X10304D01*
X10154D02*
X10179D01*
X8265Y3295D02*
Y3645D01*
X8115Y3295D02*
Y3645D01*
Y3295D02*
X8140D01*
X8240D02*
X8265D01*
X8240Y3645D02*
X8265D01*
X8115D02*
X8140D01*
X6240Y3295D02*
Y3645D01*
X6090Y3295D02*
Y3645D01*
Y3295D02*
X6115D01*
X6215D02*
X6240D01*
X6215Y3645D02*
X6240D01*
X6090D02*
X6115D01*
X14343Y5348D02*
Y5698D01*
X14193Y5348D02*
Y5698D01*
Y5348D02*
X14218D01*
X14318D02*
X14343D01*
X14318Y5698D02*
X14343D01*
X14193D02*
X14218D01*
X12313Y5348D02*
Y5698D01*
X12163Y5348D02*
Y5698D01*
Y5348D02*
X12188D01*
X12288D02*
X12313D01*
X12288Y5698D02*
X12313D01*
X12163D02*
X12188D01*
X10304Y5348D02*
Y5698D01*
X10154Y5348D02*
Y5698D01*
Y5348D02*
X10179D01*
X10279D02*
X10304D01*
X10279Y5698D02*
X10304D01*
X10154D02*
X10179D01*
X8265Y5348D02*
Y5698D01*
X8115Y5348D02*
Y5698D01*
Y5348D02*
X8140D01*
X8240D02*
X8265D01*
X8240Y5698D02*
X8265D01*
X8115D02*
X8140D01*
X6240Y5348D02*
Y5698D01*
X6090Y5348D02*
Y5698D01*
Y5348D02*
X6115D01*
X6215D02*
X6240D01*
X6215Y5698D02*
X6240D01*
X6090D02*
X6115D01*
X14343Y7344D02*
Y7694D01*
X14193Y7344D02*
Y7694D01*
Y7344D02*
X14218D01*
X14318D02*
X14343D01*
X14318Y7694D02*
X14343D01*
X14193D02*
X14218D01*
X12313Y7344D02*
Y7694D01*
X12163Y7344D02*
Y7694D01*
Y7344D02*
X12188D01*
X12288D02*
X12313D01*
X12288Y7694D02*
X12313D01*
X12163D02*
X12188D01*
X10304Y7344D02*
Y7694D01*
X10154Y7344D02*
Y7694D01*
Y7344D02*
X10179D01*
X10279D02*
X10304D01*
X10279Y7694D02*
X10304D01*
X10154D02*
X10179D01*
X8265Y7344D02*
Y7694D01*
X8115Y7344D02*
Y7694D01*
Y7344D02*
X8140D01*
X8240D02*
X8265D01*
X8240Y7694D02*
X8265D01*
X8115D02*
X8140D01*
X6240Y7344D02*
Y7694D01*
X6090Y7344D02*
Y7694D01*
Y7344D02*
X6115D01*
X6215D02*
X6240D01*
X6215Y7694D02*
X6240D01*
X6090D02*
X6115D01*
X14193Y9404D02*
Y9754D01*
X14343Y9404D02*
Y9754D01*
X14318D02*
X14343D01*
X14193D02*
X14218D01*
X14193Y9404D02*
X14218D01*
X14318D02*
X14343D01*
X12163D02*
Y9754D01*
X12313Y9404D02*
Y9754D01*
X12288D02*
X12313D01*
X12163D02*
X12188D01*
X12163Y9404D02*
X12188D01*
X12288D02*
X12313D01*
X10154D02*
Y9754D01*
X10304Y9404D02*
Y9754D01*
X10279D02*
X10304D01*
X10154D02*
X10179D01*
X10154Y9404D02*
X10179D01*
X10279D02*
X10304D01*
X8115D02*
Y9754D01*
X8265Y9404D02*
Y9754D01*
X8240D02*
X8265D01*
X8115D02*
X8140D01*
X8115Y9404D02*
X8140D01*
X8240D02*
X8265D01*
X6090D02*
Y9754D01*
X6240Y9404D02*
Y9754D01*
X6215D02*
X6240D01*
X6090D02*
X6115D01*
X6090Y9404D02*
X6115D01*
X6215D02*
X6240D01*
X13382Y10886D02*
Y10911D01*
Y11011D02*
Y11036D01*
X13732Y11011D02*
Y11036D01*
Y10886D02*
Y10911D01*
X13382Y10886D02*
X13732D01*
X13382Y11036D02*
X13732D01*
X9944Y3060D02*
X9969D01*
X10069D02*
X10094D01*
X10069Y2710D02*
X10094D01*
X9944D02*
X9969D01*
X9944D02*
Y3060D01*
X10094Y2710D02*
Y3060D01*
X6906Y3704D02*
X6931D01*
X7031D02*
X7056D01*
X7031Y3354D02*
X7056D01*
X6906D02*
X6931D01*
X6906D02*
Y3704D01*
X7056Y3354D02*
Y3704D01*
X13923Y2939D02*
Y2964D01*
Y2814D02*
Y2839D01*
X13573Y2814D02*
Y2839D01*
Y2939D02*
Y2964D01*
X13923D01*
X13573Y2814D02*
X13923D01*
X13890Y10886D02*
Y10911D01*
Y11011D02*
Y11036D01*
X14240Y11011D02*
Y11036D01*
Y10886D02*
Y10911D01*
X13890Y10886D02*
X14240D01*
X13890Y11036D02*
X14240D01*
X14396Y10886D02*
Y10911D01*
Y11011D02*
Y11036D01*
X14746Y11011D02*
Y11036D01*
Y10886D02*
Y10911D01*
X14396Y10886D02*
X14746D01*
X14396Y11036D02*
X14746D01*
X12977Y3704D02*
X13002D01*
X13102D02*
X13127D01*
X13102Y3354D02*
X13127D01*
X12977D02*
X13002D01*
X12977D02*
Y3704D01*
X13127Y3354D02*
Y3704D01*
X7834Y3028D02*
Y3053D01*
Y2903D02*
Y2928D01*
X7484Y2903D02*
Y2928D01*
Y3028D02*
Y3053D01*
X7834D01*
X7484Y2903D02*
X7834D01*
X4489Y10905D02*
X4514D01*
X4364D02*
X4389D01*
X4364Y11255D02*
X4389D01*
X4489D02*
X4514D01*
Y10905D02*
Y11255D01*
X4364Y10905D02*
Y11255D01*
X15638Y10906D02*
X15663D01*
X15513D02*
X15538D01*
X15513Y11256D02*
X15538D01*
X15638D02*
X15663D01*
Y10906D02*
Y11256D01*
X15513Y10906D02*
Y11256D01*
X13407Y11384D02*
Y11444D01*
X13477D01*
X13707Y11384D02*
Y11444D01*
X13637D02*
X13707D01*
X13915Y11384D02*
Y11444D01*
X13985D01*
X14215Y11384D02*
Y11444D01*
X14145D02*
X14215D01*
X14421Y11384D02*
Y11444D01*
X14491D01*
X14721Y11384D02*
Y11444D01*
X14651D02*
X14721D01*
X14945Y4250D02*
X14970D01*
X15070D02*
X15095D01*
X15070Y3900D02*
X15095D01*
X14945D02*
X14970D01*
X14945D02*
Y4250D01*
X15095Y3900D02*
Y4250D01*
X14945Y6256D02*
X14970D01*
X15070D02*
X15095D01*
X15070Y5906D02*
X15095D01*
X14945D02*
X14970D01*
X14945D02*
Y6256D01*
X15095Y5906D02*
Y6256D01*
X14945Y8314D02*
X14970D01*
X15070D02*
X15095D01*
X15070Y7964D02*
X15095D01*
X14945D02*
X14970D01*
X14945D02*
Y8314D01*
X15095Y7964D02*
Y8314D01*
X14945Y10341D02*
X14970D01*
X15070D02*
X15095D01*
X15070Y9991D02*
X15095D01*
X14945D02*
X14970D01*
X14945D02*
Y10341D01*
X15095Y9991D02*
Y10341D01*
X5790Y5348D02*
X5815D01*
X5665D02*
X5690D01*
X5665Y5698D02*
X5690D01*
X5790D02*
X5815D01*
Y5348D02*
Y5698D01*
X5665Y5348D02*
Y5698D01*
X5790Y7344D02*
X5815D01*
X5665D02*
X5690D01*
X5665Y7694D02*
X5690D01*
X5790D02*
X5815D01*
Y7344D02*
Y7694D01*
X5665Y7344D02*
Y7694D01*
X13893Y9404D02*
X13918D01*
X13768D02*
X13793D01*
X13768Y9754D02*
X13793D01*
X13893D02*
X13918D01*
Y9404D02*
Y9754D01*
X13768Y9404D02*
Y9754D01*
X11863Y9404D02*
X11888D01*
X11738D02*
X11763D01*
X11738Y9754D02*
X11763D01*
X11863D02*
X11888D01*
Y9404D02*
Y9754D01*
X11738Y9404D02*
Y9754D01*
X9854Y9404D02*
X9879D01*
X9729D02*
X9754D01*
X9729Y9754D02*
X9754D01*
X9854D02*
X9879D01*
Y9404D02*
Y9754D01*
X9729Y9404D02*
Y9754D01*
X7815Y9404D02*
X7840D01*
X7690D02*
X7715D01*
X7690Y9754D02*
X7715D01*
X7815D02*
X7840D01*
Y9404D02*
Y9754D01*
X7690Y9404D02*
Y9754D01*
X5790Y9404D02*
X5815D01*
X5665D02*
X5690D01*
X5665Y9754D02*
X5690D01*
X5790D02*
X5815D01*
Y9404D02*
Y9754D01*
X5665Y9404D02*
Y9754D01*
X14965Y3482D02*
X15035D01*
X14965D02*
Y3542D01*
X15195Y3482D02*
X15265D01*
Y3542D01*
X14965Y5488D02*
X15035D01*
X14965D02*
Y5548D01*
X15195Y5488D02*
X15265D01*
Y5548D01*
X14965Y7546D02*
X15035D01*
X14965D02*
Y7606D01*
X15195Y7546D02*
X15265D01*
Y7606D01*
X14965Y9578D02*
X15035D01*
X14965D02*
Y9638D01*
X15195Y9578D02*
X15265D01*
Y9638D01*
X8808Y10807D02*
Y10832D01*
Y10932D02*
Y10957D01*
X9158Y10932D02*
Y10957D01*
Y10807D02*
Y10832D01*
X8808Y10807D02*
X9158D01*
X8808Y10957D02*
X9158D01*
X9158Y10703D02*
Y10728D01*
Y10578D02*
Y10603D01*
X8808Y10578D02*
Y10603D01*
Y10703D02*
Y10728D01*
X9158D01*
X8808Y10578D02*
X9158D01*
X13084Y11321D02*
X13109D01*
X13209D02*
X13234D01*
X13209Y10971D02*
X13234D01*
X13084D02*
X13109D01*
X13084D02*
Y11321D01*
X13234Y10971D02*
Y11321D01*
X12672D02*
X12697D01*
X12797D02*
X12822D01*
X12797Y10971D02*
X12822D01*
X12672D02*
X12697D01*
X12672D02*
Y11321D01*
X12822Y10971D02*
Y11321D01*
X12173D02*
X12198D01*
X12298D02*
X12323D01*
X12298Y10971D02*
X12323D01*
X12173D02*
X12198D01*
X12173D02*
Y11321D01*
X12323Y10971D02*
Y11321D01*
X12676Y11892D02*
Y11917D01*
Y11767D02*
Y11792D01*
X12326Y11767D02*
Y11792D01*
Y11892D02*
Y11917D01*
X12676D01*
X12326Y11767D02*
X12676D01*
X10037Y12421D02*
X10291D01*
Y11151D02*
Y12421D01*
X10037Y11151D02*
Y12421D01*
Y11151D02*
X10291D01*
X7545Y12419D02*
X7799D01*
Y11149D02*
Y12419D01*
X7545Y11149D02*
Y12419D01*
Y11149D02*
X7799D01*
X12863Y12178D02*
Y12528D01*
X13013Y12178D02*
Y12528D01*
X12988D02*
X13013D01*
X12863D02*
X12888D01*
X12863Y12178D02*
X12888D01*
X12988D02*
X13013D01*
X12588D02*
Y12528D01*
X12738Y12178D02*
Y12528D01*
X12713D02*
X12738D01*
X12588D02*
X12613D01*
X12588Y12178D02*
X12613D01*
X12713D02*
X12738D01*
X12313Y12175D02*
Y12525D01*
X12463Y12175D02*
Y12525D01*
X12438D02*
X12463D01*
X12313D02*
X12338D01*
X12313Y12175D02*
X12338D01*
X12438D02*
X12463D01*
X12040D02*
Y12525D01*
X12190Y12175D02*
Y12525D01*
X12165D02*
X12190D01*
X12040D02*
X12065D01*
X12040Y12175D02*
X12065D01*
X12165D02*
X12190D01*
D35*
X8576Y11799D02*
Y11884D01*
X8378Y11601D02*
X8576Y11799D01*
X8647Y11955D02*
X8710Y12018D01*
X8647Y11771D02*
Y11955D01*
X8378Y11502D02*
X8647Y11771D01*
X8710Y12018D02*
Y12247D01*
X8378Y11397D02*
X9228Y11397D01*
X8378Y11397D02*
Y11403D01*
X8717Y11742D01*
Y11884D01*
X8471Y11397D02*
X8788Y11714D01*
Y11955D01*
X8852Y12018D01*
X8852Y12247D01*
X8859Y11884D02*
X8859Y11686D01*
X8570Y11397D02*
X8859Y11686D01*
X8993Y12018D02*
Y12247D01*
X8930Y11955D02*
X8993Y12018D01*
X8930Y11658D02*
Y11955D01*
X8669Y11397D02*
X8930Y11658D01*
X8768Y11397D02*
X9000Y11629D01*
Y11870D01*
X9135Y12018D02*
Y12245D01*
X9071Y11955D02*
X9135Y12018D01*
X9071Y11601D02*
X9071Y11955D01*
X8867Y11397D02*
X9071Y11601D01*
X9142Y11573D02*
Y11870D01*
X8966Y11397D02*
X9142Y11573D01*
X9228Y12247D02*
X9228Y11397D01*
X8378Y12247D02*
X9228Y12247D01*
X8378Y11397D02*
Y12247D01*
X11002Y11799D02*
Y11884D01*
X10804Y11601D02*
X11002Y11799D01*
X11072Y11955D02*
X11136Y12018D01*
X11072Y11771D02*
Y11955D01*
X10804Y11502D02*
X11072Y11771D01*
X11136Y12018D02*
Y12247D01*
X10803Y11397D02*
X11653Y11397D01*
X10803Y11397D02*
Y11403D01*
X11143Y11742D01*
Y11884D01*
X10896Y11397D02*
X11214Y11714D01*
Y11955D01*
X11277Y12018D01*
X11277Y12247D01*
X11284Y11884D02*
X11284Y11686D01*
X10995Y11397D02*
X11284Y11686D01*
X11419Y12018D02*
Y12247D01*
X11355Y11955D02*
X11419Y12018D01*
X11355Y11658D02*
Y11955D01*
X11094Y11397D02*
X11355Y11658D01*
X11193Y11397D02*
X11426Y11629D01*
Y11870D01*
X11560Y12018D02*
Y12245D01*
X11497Y11955D02*
X11560Y12018D01*
X11497Y11601D02*
X11497Y11955D01*
X11292Y11397D02*
X11497Y11601D01*
X11567Y11573D02*
Y11870D01*
X11391Y11397D02*
X11567Y11573D01*
X11653Y12247D02*
X11653Y11397D01*
X10803Y12247D02*
X11653Y12247D01*
X10803Y11397D02*
Y12247D01*
M02*
