G04 Layer_Color=128*
%FSLAX42Y42*%
%MOMM*%
G71*
G01*
G75*
%ADD33C,0.05*%
D33*
X15618Y10201D02*
X15718D01*
X15668Y10151D02*
Y10251D01*
X15618Y9846D02*
X15718D01*
X15668Y9796D02*
Y9896D01*
X15618Y10557D02*
X15718D01*
X15668Y10507D02*
Y10607D01*
X6975Y11175D02*
X7075D01*
X7025Y11125D02*
Y11225D01*
X6213Y11173D02*
X6313D01*
X6263Y11123D02*
Y11223D01*
X6721Y11173D02*
X6821D01*
X6771Y11123D02*
Y11223D01*
X6467Y11175D02*
X6567D01*
X6517Y11125D02*
Y11225D01*
X14370Y11898D02*
X14450D01*
X14410Y11858D02*
Y11938D01*
X13670Y11898D02*
X13750D01*
X13710Y11858D02*
Y11938D01*
X14120Y11898D02*
X14200D01*
X14160Y11858D02*
Y11938D01*
X13920Y11898D02*
X14000D01*
X13960Y11858D02*
Y11938D01*
X13303Y12169D02*
X13503D01*
X13403Y12069D02*
Y12269D01*
X14617Y12169D02*
X14817D01*
X14717Y12069D02*
Y12269D01*
X10114Y11278D02*
X10214D01*
X10164Y11228D02*
Y11328D01*
X10114Y11532D02*
X10214D01*
X10164Y11482D02*
Y11582D01*
X10114Y11786D02*
X10214D01*
X10164Y11736D02*
Y11836D01*
X10114Y12040D02*
X10214D01*
X10164Y11990D02*
Y12090D01*
X10114Y12294D02*
X10214D01*
X10164Y12244D02*
Y12344D01*
X7622Y11276D02*
X7722D01*
X7672Y11226D02*
Y11326D01*
X7622Y11530D02*
X7722D01*
X7672Y11480D02*
Y11580D01*
X7622Y11784D02*
X7722D01*
X7672Y11734D02*
Y11834D01*
X7622Y12038D02*
X7722D01*
X7672Y11988D02*
Y12088D01*
X7622Y12292D02*
X7722D01*
X7672Y12242D02*
Y12342D01*
X5628Y12431D02*
X5728D01*
X5678Y12381D02*
Y12481D01*
X5628Y12076D02*
X5728D01*
X5678Y12026D02*
Y12126D01*
X5628Y12787D02*
X5728D01*
X5678Y12737D02*
Y12837D01*
X4799Y12812D02*
X5199D01*
X4999Y12612D02*
Y13012D01*
X4289Y12813D02*
X4589D01*
X4439Y12663D02*
Y12963D01*
X4282Y2990D02*
X4582D01*
X4432Y2840D02*
Y3140D01*
X4792Y2991D02*
X5192D01*
X4992Y2791D02*
Y3191D01*
X14809Y2991D02*
X15209D01*
X15009Y2791D02*
Y3191D01*
X15419Y2990D02*
X15719D01*
X15569Y2840D02*
Y3140D01*
X15419Y12813D02*
X15719D01*
X15569Y12663D02*
Y12963D01*
X14809Y12812D02*
X15209D01*
X15009Y12612D02*
Y13012D01*
X14028Y3376D02*
X14078D01*
X14053Y3351D02*
Y3401D01*
X10533Y12391D02*
X10583D01*
X10558Y12366D02*
Y12416D01*
X11879Y12391D02*
X11929D01*
X11904Y12366D02*
Y12416D01*
X14950Y12010D02*
X15000D01*
X14975Y11985D02*
Y12035D01*
X8983Y12020D02*
X9033D01*
X9008Y11995D02*
Y12045D01*
X15090Y7153D02*
X15140D01*
X15115Y7128D02*
Y7178D01*
X8859Y11888D02*
X8909D01*
X8884Y11863D02*
Y11913D01*
X9573Y12221D02*
X9623D01*
X9598Y12196D02*
Y12246D01*
X9669Y12391D02*
X9719D01*
X9694Y12366D02*
Y12416D01*
X9580Y11532D02*
X9630D01*
X9605Y11507D02*
Y11557D01*
X14030Y2889D02*
X14080D01*
X14055Y2864D02*
Y2914D01*
X9585Y11789D02*
X9635D01*
X9610Y11764D02*
Y11814D01*
X5364Y7423D02*
X5414D01*
X5389Y7398D02*
Y7448D01*
X5214Y7024D02*
X5264D01*
X5239Y6999D02*
Y7049D01*
X5214Y7423D02*
X5264D01*
X5239Y7398D02*
Y7448D01*
X5514Y7423D02*
X5564D01*
X5539Y7398D02*
Y7448D01*
X9745Y6488D02*
X9795D01*
X9770Y6463D02*
Y6513D01*
X9898Y6488D02*
X9948D01*
X9923Y6463D02*
Y6513D01*
X11008Y9277D02*
X11058D01*
X11033Y9252D02*
Y9302D01*
X13593Y9675D02*
X13643D01*
X13618Y9650D02*
Y9700D01*
X8945Y9388D02*
X8995D01*
X8970Y9363D02*
Y9413D01*
X15090Y9109D02*
X15140D01*
X15115Y9084D02*
Y9134D01*
X14396Y9112D02*
X14446D01*
X14421Y9087D02*
Y9137D01*
X8473Y9388D02*
X8523D01*
X8498Y9363D02*
Y9413D01*
X8793Y9388D02*
X8843D01*
X8818Y9363D02*
Y9413D01*
X9098Y9388D02*
X9148D01*
X9123Y9363D02*
Y9413D01*
X14396Y7153D02*
X14446D01*
X14421Y7128D02*
Y7178D01*
X14396Y5121D02*
X14446D01*
X14421Y5096D02*
Y5146D01*
X15090Y5121D02*
X15140D01*
X15115Y5096D02*
Y5146D01*
X5101Y12010D02*
X5151D01*
X5126Y11985D02*
Y12035D01*
X8778Y12675D02*
X8828D01*
X8803Y12650D02*
Y12700D01*
X10485Y11212D02*
X10535D01*
X10510Y11187D02*
Y11237D01*
X13618Y3870D02*
X13668D01*
X13643Y3845D02*
Y3895D01*
X11573Y3870D02*
X11623D01*
X11598Y3845D02*
Y3895D01*
X9579Y3870D02*
X9629D01*
X9604Y3845D02*
Y3895D01*
X7529Y3870D02*
X7579D01*
X7554Y3845D02*
Y3895D01*
X5508Y3870D02*
X5558D01*
X5533Y3845D02*
Y3895D01*
X6659Y5060D02*
X6709D01*
X6684Y5035D02*
Y5085D01*
X10648Y11211D02*
X10698D01*
X10673Y11186D02*
Y11236D01*
X7957Y7425D02*
X8007D01*
X7982Y7400D02*
Y7450D01*
X5915Y7425D02*
X5965D01*
X5940Y7400D02*
Y7450D01*
X5534Y5617D02*
X5584D01*
X5559Y5592D02*
Y5642D01*
X11203Y12675D02*
X11253D01*
X11228Y12650D02*
Y12700D01*
X13437Y11113D02*
X13487D01*
X13462Y11088D02*
Y11138D01*
X13945Y11113D02*
X13995D01*
X13970Y11088D02*
Y11138D01*
X14451Y11113D02*
X14501D01*
X14476Y11088D02*
Y11138D01*
X9649Y11662D02*
X9699D01*
X9674Y11637D02*
Y11687D01*
X11526Y11512D02*
X11576D01*
X11551Y11487D02*
Y11537D01*
X11526Y11690D02*
X11576D01*
X11551Y11665D02*
Y11715D01*
X11526Y11893D02*
X11576D01*
X11551Y11868D02*
Y11918D01*
X11551Y12096D02*
X11601D01*
X11576Y12071D02*
Y12121D01*
X12212Y12256D02*
X12262D01*
X12237Y12231D02*
Y12281D01*
X12485Y12256D02*
X12535D01*
X12510Y12231D02*
Y12281D01*
X12760Y12259D02*
X12810D01*
X12785Y12234D02*
Y12284D01*
X13035Y12252D02*
X13085D01*
X13060Y12227D02*
Y12277D01*
X15227Y11113D02*
X15277D01*
X15252Y11088D02*
Y11138D01*
M02*
